<svg width="68" height="68" viewBox="0 0 68 68" fill="none" xmlns="http://www.w3.org/2000/svg">
<rect width="68" height="68" rx="8.24242" fill="#B4E8E0" fill-opacity="0.27"/>
<rect x="6.52539" y="6.52832" width="54.2626" height="54.2626" rx="8.24242" fill="url(#paint0_linear_881_2351)"/>
<path d="M30.4456 44.8318L30.4469 44.8265L30.4482 44.8121C30.4598 44.666 30.4675 44.52 30.4675 44.3714C30.4675 42.9677 29.9111 41.6982 29.0109 40.7787C28.1107 39.8591 26.8679 39.2908 25.4937 39.2908C24.1195 39.2908 22.8767 39.8591 21.9765 40.7787C21.0762 41.6982 20.5198 42.9677 20.5198 44.3714C20.5198 45.775 21.0762 47.0445 21.9765 47.964C22.8767 48.8836 24.1195 49.4519 25.4937 49.4519C26.8679 49.4519 28.1107 48.8836 29.0109 47.964C29.8107 47.1471 30.34 46.05 30.4469 44.8305L30.4456 44.8318ZM22.5058 44.5963C22.2096 44.2937 22.2096 43.8044 22.5058 43.5018C22.802 43.1992 23.2799 43.1992 23.5773 43.5018L24.976 44.9305L27.6767 42.1718C27.9729 41.8693 28.4507 41.8693 28.7469 42.1718C29.0431 42.4744 29.0431 42.9638 28.7469 43.2663L25.5105 46.5735C25.2142 46.8761 24.7351 46.8761 24.4389 46.5735L22.5045 44.5976L22.5058 44.5963ZM31.9757 44.1188H47.4627C47.2759 41.1694 46.028 38.5159 44.105 36.5518C42.0148 34.4168 39.1286 33.0972 35.9384 33.0972C33.8546 33.0972 31.9009 33.6603 30.2152 34.6443C28.8255 35.456 27.6175 36.5531 26.6696 37.8528C27.9884 38.1001 29.1681 38.7553 30.0787 39.684C31.1978 40.8272 31.91 42.3874 31.9744 44.1173L31.9757 44.1188ZM24.8961 37.7713C26.0398 35.9256 27.6097 34.3864 29.4654 33.3023C30.336 32.7932 31.2698 32.3841 32.2511 32.0894C31.687 31.7566 31.1706 31.3514 30.7147 30.8857C29.3778 29.5202 28.5497 27.6324 28.5497 25.5485C28.5497 23.4647 29.3778 21.577 30.7147 20.2114C32.0515 18.8459 33.8996 18 35.9397 18C37.9798 18 39.8279 18.8459 41.1648 20.2114C42.5016 21.5769 43.3297 23.4647 43.3297 25.5485C43.3297 27.6324 42.5016 29.5201 41.1648 30.8857C40.7076 31.3527 40.1911 31.7579 39.6283 32.0894C41.752 32.7274 43.6503 33.9009 45.1738 35.4571C47.5384 37.8724 49 41.2072 49 44.8921C49 45.3197 48.6613 45.6657 48.2427 45.6657H31.8544C31.6007 46.9772 30.9683 48.1494 30.0784 49.0583C28.9038 50.2581 27.2811 51 25.4897 51C23.6982 51 22.0756 50.2581 20.9009 49.0583C19.7262 47.8586 19 46.2023 19 44.3711C19 42.5412 19.7264 40.8838 20.9009 39.6839C21.9428 38.6196 23.3402 37.9146 24.8932 37.7698L24.8961 37.7713ZM35.9397 19.5448C34.317 19.5448 32.8475 20.2171 31.7849 21.3024C30.721 22.389 30.0642 23.8887 30.0642 25.5464C30.0642 27.2041 30.7223 28.7049 31.7849 29.7904C32.8487 30.877 34.3181 31.5479 35.9397 31.5479C37.5625 31.5479 39.0319 30.8757 40.0946 29.7904C41.1584 28.7038 41.8152 27.2041 41.8152 25.5464C41.8152 23.8887 41.1571 22.3878 40.0946 21.3024C39.0308 20.2158 37.5626 19.5448 35.9397 19.5448Z" fill="white"/>
<defs>
<linearGradient id="paint0_linear_881_2351" x1="33.6567" y1="6.52832" x2="33.6567" y2="60.7909" gradientUnits="userSpaceOnUse">
<stop stop-color="#1ADBBE"/>
<stop offset="1" stop-color="#00B69B"/>
</linearGradient>
</defs>
</svg>
