<svg width="68" height="68" viewBox="0 0 68 68" fill="none" xmlns="http://www.w3.org/2000/svg">
<rect width="68" height="68" rx="8.24242" fill="#B4E8E0" fill-opacity="0.27"/>
<rect x="6.52539" y="6.52832" width="54.2626" height="54.2626" rx="8.24242" fill="url(#paint0_linear_881_2272)"/>
<path d="M24.4833 37.2235C24.3446 37.3236 24.2146 37.4381 24.1021 37.5712C23.8596 37.8559 23.7121 38.1949 23.6464 38.5541C23.4185 38.9618 23.2141 39.3911 23.0037 39.9118C21.4277 43.8177 20.3863 46.3974 21.4044 48.1342C21.9725 49.1014 23.1425 49.7037 25.0558 50.0257C25.4341 50.6094 26.0943 51 26.8509 51H40.1495C40.9061 51 41.5663 50.6094 41.9446 50.0257C43.8594 49.7037 45.0293 49.1028 45.596 48.1342C46.6141 46.3987 45.5727 43.8177 43.9777 39.866C43.7864 39.3939 43.5833 38.9676 43.3569 38.5626C43.2912 38.2021 43.1437 37.8587 42.8983 37.5712C42.7858 37.4381 42.6544 37.3236 42.5156 37.2235C40.2386 34.0873 37.1627 33.0685 36.1154 32.8012V31.3304C36.9567 30.9126 37.6797 30.3017 38.2245 29.5562C38.2873 29.5548 38.3501 29.5448 38.41 29.5162C39.9246 28.7965 40.9587 27.6433 41.4013 26.184C41.9563 24.3483 41.5429 22.1664 40.2357 20.0416C38.1178 16.6007 34.5175 17.0929 33.8485 17.2174C31.8899 16.8211 30.254 16.967 28.9847 17.6523C28.1697 18.0915 27.4248 18.8026 26.7091 19.8213C25.2646 21.8787 24.6628 24.1122 25.0163 26.1109C25.4369 28.4988 27.419 30.4603 29.6244 30.675C29.639 30.6764 29.6536 30.6764 29.6682 30.6764C29.7178 30.6764 29.766 30.665 29.8113 30.6507C30.14 30.9153 30.5007 31.1414 30.8819 31.3303V32.8011C29.8347 33.0686 26.7588 34.0873 24.4817 37.2248L24.4833 37.2235ZM42.2266 38.1191C42.4749 38.411 42.5756 38.7916 42.5114 39.1364L40.5498 46.6335H26.4492L24.4949 39.1649C24.4248 38.7915 24.5256 38.4109 24.7739 38.119C25.0222 37.8272 25.3859 37.6598 25.7729 37.6598H41.226C41.6131 37.6598 41.9767 37.8272 42.225 38.119L42.2266 38.1191ZM22.1654 47.7066C21.3577 46.3288 22.3904 43.7692 23.8378 40.1809C23.8422 40.1708 23.8466 40.1623 23.851 40.1508L25.6431 47.0041C25.0881 47.3803 24.723 48.007 24.723 48.7167V48.9141C24.723 48.9756 24.7361 49.0343 24.742 49.0958C23.3807 48.8139 22.5525 48.3662 22.1654 47.7066ZM40.1499 50.1417H26.8513C26.4116 50.1417 26.0261 49.9185 25.8026 49.5823C25.788 49.4907 25.7471 49.4092 25.6828 49.3462C25.6317 49.2117 25.5996 49.0672 25.5996 48.9155V48.7181C25.5996 48.0413 26.1619 47.4919 26.8513 47.4919H40.1499C40.8407 47.4919 41.4016 48.0413 41.4016 48.7181V48.9155C41.4016 49.0658 41.3695 49.2074 41.3198 49.3405C41.2541 49.4034 41.2132 49.4879 41.1986 49.5823C40.9751 49.9185 40.5895 50.1417 40.1499 50.1417ZM44.8368 47.7066C44.4498 48.3662 43.6216 48.814 42.2604 49.0958C42.2662 49.0343 42.2794 48.9757 42.2794 48.9141V48.7167C42.2794 48.007 41.9142 47.3804 41.3592 47.0041L43.1514 40.1494C43.1616 40.1751 43.1733 40.1994 43.1835 40.2266C44.6134 43.7691 45.646 46.3272 44.8369 47.7051L44.8368 47.7066ZM33.5013 31.0871C30.7802 31.0871 28.5661 28.9195 28.5661 26.2542C28.5661 25.6991 28.5807 25.164 28.6084 24.6561C28.6931 24.6546 28.7778 24.6446 28.8626 24.6403C28.9458 24.6346 29.0291 24.6332 29.1123 24.6246C29.2102 24.6146 29.308 24.596 29.4044 24.5802C29.4862 24.5674 29.568 24.5573 29.6498 24.5402C29.7477 24.5201 29.8426 24.493 29.939 24.4672C30.0179 24.4457 30.0982 24.4286 30.1756 24.4043C30.272 24.3742 30.3655 24.337 30.4604 24.3012C30.5349 24.2741 30.6109 24.2497 30.6839 24.2183C30.7803 24.1782 30.8738 24.1296 30.9687 24.0838C31.0359 24.0509 31.106 24.0208 31.1718 23.9851C31.2696 23.9321 31.3631 23.872 31.458 23.8134C31.5165 23.7776 31.5763 23.7447 31.6333 23.7061C31.7355 23.6374 31.8305 23.5616 31.9283 23.4857C31.9736 23.45 32.0218 23.4185 32.0656 23.3827C32.2044 23.2683 32.3359 23.1452 32.4615 23.0164L32.6718 22.7975C33.0676 22.3812 33.4664 21.9505 33.9031 21.9992C34.1528 22.0278 34.4187 22.2281 34.6918 22.437C34.9737 22.6444 35.2688 22.8361 35.5726 23.015C35.6821 23.0794 35.7975 23.1323 35.9085 23.1924C36.1057 23.2997 36.3029 23.407 36.5074 23.5014C36.649 23.5673 36.7951 23.6202 36.9397 23.6789C37.1208 23.7533 37.3019 23.8277 37.4874 23.892C37.6393 23.945 37.7926 23.9865 37.9475 24.0308C38.0848 24.0709 38.2206 24.121 38.3594 24.1553C38.4105 24.7863 38.4353 25.4902 38.4353 26.2528C38.4353 28.9182 36.2211 31.0857 33.5001 31.0857L33.5013 31.0871ZM25.8814 25.9638C25.5688 24.1882 26.1194 22.1795 27.4325 20.3067C28.0693 19.3996 28.7164 18.7758 29.4102 18.4024C30.5085 17.8087 31.9721 17.6985 33.7584 18.0734C33.8241 18.0862 33.8913 18.0848 33.957 18.0705C34.1016 18.0362 37.499 17.2521 39.4883 20.4827C40.667 22.3985 41.0497 24.3359 40.5648 25.9383C40.2931 26.8368 39.7454 27.5965 38.964 28.1803C39.186 27.5779 39.3131 26.9312 39.3131 26.2545C39.3131 25.5463 39.2911 24.8867 39.2488 24.2829C39.3963 24.2329 39.5161 24.1141 39.5438 23.9539C39.5833 23.7207 39.4226 23.4989 39.1831 23.4602C39.0867 23.4445 38.9844 23.4245 38.8646 23.3916C37.5501 23.1068 36.2911 22.5403 35.2132 21.7462C34.8787 21.4915 34.4989 21.2025 34.0052 21.1467C33.1391 21.0495 32.5242 21.6947 32.0305 22.2141L31.829 22.423C31.7048 22.5503 31.5705 22.6691 31.4317 22.7807C30.5451 23.4903 29.3839 23.8609 28.2315 23.7879L28.0168 23.7693C27.7773 23.7536 27.5641 23.9267 27.5451 24.1627C27.5319 24.323 27.6152 24.4661 27.7422 24.549C27.7116 25.0913 27.6911 25.6578 27.6911 26.2516C27.6911 27.5064 28.1132 28.6638 28.8172 29.6052C27.3712 29.0716 26.1779 27.6437 25.8814 25.9612L25.8814 25.9638ZM33.5013 31.9457C34.1075 31.9457 34.6917 31.8541 35.2423 31.6838V33.1418C35.2423 33.3492 35.3942 33.5266 35.6016 33.5638C35.6352 33.5695 38.6207 34.1404 41.0495 36.803H25.9513C28.3803 34.1419 31.3656 33.571 31.3992 33.5638C31.6081 33.5266 31.7585 33.3492 31.7585 33.1418V31.6838C32.3077 31.8527 32.8934 31.9457 33.4996 31.9457H33.5013Z" fill="white"/>
<defs>
<linearGradient id="paint0_linear_881_2272" x1="60.788" y1="33.6596" x2="6.52539" y2="33.6596" gradientUnits="userSpaceOnUse">
<stop stop-color="#8CEAFF"/>
<stop offset="1" stop-color="#30B9D8"/>
</linearGradient>
</defs>
</svg>
