<svg width="69" height="68" viewBox="0 0 69 68" fill="none" xmlns="http://www.w3.org/2000/svg">
<rect x="0.333984" width="68" height="68" rx="8.24242" fill="#FFF2E8" fill-opacity="0.53"/>
<rect x="6.85938" y="6.52832" width="54.2626" height="54.2626" rx="8.24242" fill="url(#paint0_linear_881_2284)"/>
<path d="M18.3119 17C17.0418 17 16 18.0456 16 19.3255V45.4874C16 46.7672 17.0432 47.8143 18.3119 47.8143H26.6695C26.9744 47.8129 27.2205 47.5622 27.2191 47.255C27.2191 46.9491 26.973 46.7011 26.6695 46.6998H18.3133C17.6366 46.6998 17.1061 46.1694 17.1061 45.4874L17.1047 24.2246H49.8953V45.4874C49.8953 46.1694 49.3649 46.6998 48.6881 46.6998H43.0553C42.909 46.6984 42.7681 46.7576 42.6642 46.8609C42.5603 46.9657 42.5015 47.1076 42.5015 47.255C42.5002 47.4038 42.559 47.5457 42.6629 47.6517C42.7668 47.7564 42.909 47.8143 43.0553 47.8143H48.6867C49.9568 47.8143 50.9986 46.7673 50.9986 45.4874L51 19.3255C51 18.0457 49.9568 17 48.6881 17L18.3119 17ZM18.3119 18.1131H48.6879C49.3646 18.1131 49.8951 18.6435 49.8951 19.3255V23.1097H17.1045V19.3255C17.1045 18.6435 17.6352 18.1131 18.3119 18.1131ZM20.0031 19.8586C19.5943 19.8586 19.2539 20.2017 19.2539 20.6149C19.2539 21.0269 19.593 21.3671 20.0031 21.3671C20.4119 21.3671 20.7496 21.0269 20.7496 20.6149C20.7496 20.203 20.4119 19.8586 20.0031 19.8586ZM22.8359 19.8586C22.4271 19.8586 22.0867 20.2017 22.0867 20.6149C22.0867 21.0269 22.4258 21.3671 22.8359 21.3671C23.2447 21.3671 23.5824 21.0269 23.5824 20.6149C23.5824 20.203 23.2447 19.8586 22.8359 19.8586ZM25.6687 19.8586C25.2599 19.8586 24.9195 20.2017 24.9195 20.6149C24.9195 21.0269 25.2586 21.3671 25.6687 21.3671C26.0775 21.3671 26.4152 21.0269 26.4152 20.6149C26.4152 20.203 26.0775 19.8586 25.6687 19.8586ZM32.9735 26.7539C32.7233 26.7525 32.5046 26.922 32.4403 27.1658L31.5626 30.4612V30.4626C31.5243 30.6045 31.5435 30.7574 31.6173 30.8855C31.6911 31.0136 31.8128 31.1073 31.9536 31.1445C32.0958 31.1831 32.2462 31.1624 32.3734 31.0894C32.5005 31.015 32.5935 30.8938 32.6304 30.7505L33.5081 27.4551C33.5464 27.3118 33.5259 27.1589 33.4534 27.0308C33.3796 26.9027 33.2579 26.8104 33.1157 26.7718C33.0692 26.7594 33.0214 26.7525 32.9735 26.7525L32.9735 26.7539ZM26.6067 27.2636C26.5097 27.265 26.4139 27.2898 26.3306 27.3394C26.0667 27.4937 25.9778 27.834 26.1309 28.0998L27.8235 31.0549H27.8221C27.896 31.183 28.0163 31.2767 28.1585 31.3153C28.2993 31.3539 28.451 31.3346 28.5782 31.2602C28.7053 31.1872 28.7997 31.0646 28.8379 30.9213C28.8749 30.7766 28.8543 30.6237 28.7805 30.4956L27.0838 27.5405C26.9854 27.3697 26.8036 27.2636 26.6067 27.2636ZM29.9563 31.6555C28.9719 31.6817 28.0614 32.4807 28.06 33.5732C28.0614 33.5746 28.0628 33.576 28.0641 33.5774L28.0436 48.1378C28.0422 49.357 29.4053 50.1464 30.4539 49.5389L34.1741 47.3856L36.3971 51.2443C36.8127 51.9648 37.7438 52.2141 38.4602 51.7995L41.4734 50.0526C42.1899 49.6379 42.4428 48.6984 42.0285 47.9778L39.8096 44.123L43.5241 41.9684C44.5728 41.3608 44.5741 39.7751 43.5241 39.169L30.935 31.9044C30.6206 31.7226 30.2843 31.6454 29.9561 31.6537L29.9563 31.6555ZM22.985 32.5634C22.7349 32.5648 22.5161 32.7342 22.4519 32.9767C22.4136 33.12 22.4341 33.2729 22.5065 33.401C22.5804 33.5291 22.7021 33.6214 22.8442 33.66L26.1145 34.5431C26.4085 34.623 26.712 34.4466 26.7913 34.1491C26.8296 34.0058 26.8091 33.8542 26.7353 33.7261C26.6628 33.598 26.5411 33.5043 26.3989 33.4658L23.1286 32.5827V32.5841C23.0821 32.5703 23.0329 32.5634 22.985 32.5634ZM29.9619 32.7535C30.1027 32.7535 30.2476 32.7907 30.3898 32.872L42.9747 40.1379C43.3329 40.3446 43.3329 40.7978 42.9747 41.0058L38.7789 43.4388L38.7776 43.436C38.6504 43.5104 38.5575 43.6316 38.5192 43.7749C38.4809 43.9168 38.5 44.0697 38.5739 44.1979L41.0703 48.5376C41.1852 48.7374 41.1237 48.9716 40.924 49.0873L37.9108 50.8341C37.7098 50.9499 37.4665 50.8851 37.3516 50.6867L34.8551 46.347L34.8538 46.3456C34.7006 46.0811 34.3629 45.9916 34.0991 46.1445L29.9033 48.5733C29.5451 48.7813 29.1486 48.5485 29.1486 48.1379L29.1692 33.5733V33.5705C29.1733 33.0856 29.541 32.7522 29.9607 32.7522L29.9619 32.7535Z" fill="white"/>
<defs>
<linearGradient id="paint0_linear_881_2284" x1="6.85938" y1="33.6596" x2="61.122" y2="33.6596" gradientUnits="userSpaceOnUse">
<stop stop-color="#E47112"/>
<stop offset="1" stop-color="#FAB271"/>
</linearGradient>
</defs>
</svg>
