<svg width="69" height="68" viewBox="0 0 69 68" fill="none" xmlns="http://www.w3.org/2000/svg">
<rect x="0.666016" width="68" height="68" rx="8.24242" fill="#1B85D1" fill-opacity="0.11"/>
<rect x="7.19141" y="6.52832" width="54.2626" height="54.2626" rx="8.24242" fill="url(#paint0_linear_881_2369)"/>
<path fill-rule="evenodd" clip-rule="evenodd" d="M47.5869 22.6413V38.3089C47.5869 38.5545 47.3864 38.7532 47.1385 38.7532H39.2592L42.8871 47.5557C42.8871 47.8013 42.6865 48 42.4386 48H39.5739V47.9988C39.3989 47.9988 39.2312 47.8953 39.1607 47.7243L37.6184 44.0185L31.3785 44.0173L29.8362 47.7231C29.7657 47.894 29.5992 47.9976 29.423 47.9976V47.9988H26.5583C26.252 47.9988 26.0029 47.6882 26.1597 47.3522L29.739 38.7534H21.861C21.613 38.7534 21.4125 38.5548 21.4125 38.3092V22.6416C19.7632 22.6416 20.0136 22.88 20.0136 20.4443C20.0136 20.1987 20.2141 20 20.4621 20H48.5386C48.7866 20 48.9871 20.1987 48.9871 20.4443C48.9859 22.8799 49.2362 22.6413 47.5869 22.6413ZM37.25 43.1298L35.4281 38.7534H33.5685L31.7467 43.1311L37.25 43.1298ZM38.2928 38.7534H36.3943L39.8729 47.1127H41.7713L38.2928 38.7534ZM32.6036 38.7534H30.7052L27.2279 47.1115H29.1263L32.6036 38.7534ZM35.9459 32.6022V33.4895H36.9838V32.6022H35.9459ZM38.1408 32.6022V33.4895H44.2323V32.6022H38.1408ZM35.9459 29.8053V30.6926H36.9838V29.8053H35.9459ZM38.1408 29.8053V30.6926H44.2323V29.8053H38.1408ZM35.9459 27.0168V27.9042H36.9838V27.0168H35.9459ZM38.1408 27.0168V27.9042H44.2323V27.0168H38.1408ZM29.6841 26.2944V29.81H33.2329C33.0263 27.9631 31.5472 26.4991 29.6841 26.2944ZM33.2329 30.6974H29.2367C28.9887 30.6974 28.7882 30.4987 28.7882 30.2531V26.2943C25.4627 26.6591 24.0069 30.7056 26.3927 33.0703C28.7797 35.4337 32.8636 33.9915 33.2329 30.6974ZM29.2367 25.3818C26.5215 25.3818 24.3191 27.5634 24.3191 30.2532C24.3191 34.5779 29.6231 36.7595 32.7127 33.6979C35.8034 30.6362 33.6024 25.3818 29.2367 25.3818ZM22.3076 22.6415V37.8649H46.6894L46.6906 22.6415H22.3076ZM20.9087 21.7529H48.0895V20.8885H20.9087V21.7529Z" fill="white"/>
<defs>
<linearGradient id="paint0_linear_881_2369" x1="34.3227" y1="6.52832" x2="34.3227" y2="60.7909" gradientUnits="userSpaceOnUse">
<stop stop-color="#1B85D1"/>
<stop offset="1" stop-color="#6AC0FD"/>
</linearGradient>
</defs>
</svg>
