<svg width="69" height="68" viewBox="0 0 69 68" fill="none" xmlns="http://www.w3.org/2000/svg">
<rect x="0.333984" width="68" height="68" rx="8.24242" fill="#FFF2E8"/>
<rect x="6.85938" y="6.52832" width="54.2626" height="54.2626" rx="8.24242" fill="url(#paint0_linear_881_2360)"/>
<path d="M34.9286 33.5464C38.55 33.5464 41.4959 30.7323 41.4959 27.2727C41.4959 23.8136 38.55 21 34.9286 21C31.3071 21 28.3612 23.8136 28.3612 27.2727C28.3612 30.7323 31.3071 33.5464 34.9286 33.5464ZM34.9286 22.0714C37.9591 22.0714 40.4245 24.4045 40.4245 27.2727C40.4245 30.1409 37.9591 32.475 34.9286 32.475C31.898 32.475 29.4327 30.1414 29.4327 27.2727C29.4327 24.4045 31.898 22.0714 34.9286 22.0714ZM42.1286 33.2571C39.9884 33.2571 37.9371 34.0323 36.2893 35.4643H32.25C26.0464 35.4643 21 38.348 21 41.8929V47.7857C21 48.0814 21.24 48.3214 21.5357 48.3214H35.7937C37.4534 50.0223 39.7441 51 42.1286 51C44.5955 51 46.9687 49.9612 48.6568 48.1334C48.6611 48.1296 48.6648 48.1254 48.668 48.1216C48.6745 48.1152 48.713 48.0712 48.7195 48.0643C50.19 46.4341 51 44.3261 51 42.1286C51 37.237 47.0202 33.2571 42.1286 33.2571ZM22.0714 47.25V41.8929C22.0714 38.9893 26.7327 36.5357 32.25 36.5357H35.2446C35.1686 36.6289 35.1016 36.728 35.0304 36.8245C34.9725 36.9016 34.913 36.9771 34.8579 37.0559C34.7234 37.2488 34.598 37.447 34.4796 37.65C34.4561 37.6902 34.4293 37.7277 34.4062 37.7684C34.2686 38.0121 34.1443 38.2623 34.0307 38.5179C33.997 38.5939 33.9691 38.6716 33.937 38.7487C33.8609 38.9325 33.7896 39.1173 33.7259 39.3064C33.6932 39.4034 33.6643 39.5009 33.6354 39.5989C33.5829 39.7752 33.5357 39.952 33.4939 40.1314C33.4704 40.2321 33.4473 40.3329 33.4275 40.4346C33.3905 40.6243 33.3616 40.8161 33.337 41.0089C33.3257 41.0984 33.3107 41.1873 33.3021 41.2779C33.2748 41.5602 33.2577 41.8441 33.2577 42.1296C33.2577 42.3868 33.2711 42.6429 33.293 42.8973C33.3 42.9771 33.3118 43.0559 33.3209 43.1352C33.3407 43.3109 33.3643 43.4861 33.3948 43.6596C33.4104 43.748 33.428 43.8354 33.4462 43.9232C33.4811 44.092 33.5212 44.2591 33.5657 44.4257C33.5871 44.5061 33.6086 44.5864 33.6321 44.6662C33.6889 44.857 33.7537 45.045 33.8234 45.2314C33.8421 45.2812 33.8577 45.3316 33.8775 45.3809C34.0698 45.8684 34.3066 46.3382 34.5846 46.7871C34.6066 46.822 34.6296 46.8557 34.6521 46.8905C34.7298 47.0116 34.8043 47.1343 34.8879 47.2516H22.0714V47.25ZM36.4446 47.4616C36.4173 47.4262 36.3873 47.3941 36.3525 47.3668C36.2705 47.2768 36.1966 47.1814 36.12 47.0882C36.0445 46.9971 35.9652 46.9087 35.8945 46.815C35.8189 46.7148 35.7525 46.6098 35.6823 46.5064C35.6175 46.4116 35.5489 46.3189 35.4889 46.222C35.422 46.1138 35.3652 46.0012 35.3036 45.8904C35.2495 45.7923 35.1911 45.6964 35.1412 45.5968C35.0834 45.4805 35.0357 45.3605 34.9843 45.2416C34.9409 45.142 34.8927 45.0445 34.853 44.9432C34.8054 44.82 34.7679 44.6925 34.7266 44.5666C34.6934 44.4659 34.6554 44.3673 34.6264 44.2655C34.5889 44.1332 34.5621 43.9977 34.5316 43.8632C34.5091 43.7646 34.4812 43.6677 34.4625 43.568C34.4341 43.4159 34.4175 43.2616 34.3982 43.1079C34.3875 43.0232 34.3709 42.9402 34.3634 42.855C34.3409 42.615 34.3296 42.3729 34.3296 42.1296C34.3296 39.9552 35.2468 37.8654 36.8759 36.3654C38.3186 35.0529 40.1845 34.3296 42.1296 34.3296C46.4304 34.3296 49.9296 37.8289 49.9296 42.1296C49.9296 44.0614 49.2177 45.9145 47.9437 47.3277C47.9416 47.3298 47.9239 47.3496 47.9127 47.3625C47.9025 47.3721 47.8929 47.3823 47.8837 47.3925L47.8687 47.4075L47.8682 47.408C47.8629 47.4134 47.8554 47.4214 47.8537 47.423C46.3843 49.0152 44.2977 49.9286 42.1286 49.9286C39.9921 49.9286 37.9393 49.0387 36.4446 47.4616ZM42.9643 36V42.4286C42.9643 42.7243 42.7243 42.9643 42.4286 42.9643H38.1429C37.8471 42.9643 37.6071 42.7243 37.6071 42.4286C37.6071 42.1329 37.8471 41.8929 38.1429 41.8929H41.8929V36C41.8929 35.7043 42.1329 35.4643 42.4286 35.4643C42.7243 35.4643 42.9643 35.7043 42.9643 36Z" fill="white"/>
<defs>
<linearGradient id="paint0_linear_881_2360" x1="6.85938" y1="33.6596" x2="61.122" y2="33.6596" gradientUnits="userSpaceOnUse">
<stop stop-color="#E47112"/>
<stop offset="1" stop-color="#EA7E1B"/>
</linearGradient>
</defs>
</svg>
