<svg width="69" height="68" viewBox="0 0 69 68" fill="none" xmlns="http://www.w3.org/2000/svg">
<rect x="0.666016" width="68" height="68" rx="8.24242" fill="#B417B6" fill-opacity="0.05"/>
<rect x="7.19141" y="6.52832" width="54.2626" height="54.2626" rx="8.24242" fill="url(#paint0_linear_881_2296)"/>
<path d="M35.2235 51.1383H19.6884C19.2175 51.1383 18.8401 50.7549 18.8401 50.2765V22.9825C18.8401 22.5041 19.2175 22.1207 19.6884 22.1207H23.8812V23.4059C23.8812 24.1093 24.444 24.6811 25.1365 24.6811H36.9042C37.5967 24.6811 38.1595 24.1094 38.1595 23.4059V22.1207H42.3523C42.8282 22.1207 43.2056 22.5041 43.2056 22.9825V31.0818C43.2056 31.3168 43.3943 31.5085 43.6257 31.5085C43.857 31.5085 44.0458 31.3168 44.0458 31.0818V22.9825C44.0458 22.0357 43.2893 21.2673 42.3572 21.2673H38.1645V20.8356C38.1645 20.1321 37.6016 19.5604 36.9091 19.5604H33.9356C33.7305 18.1135 32.503 17 31.0245 17C29.546 17 28.3185 18.1135 28.1134 19.5604H25.1399C24.4442 19.5604 23.8813 20.1321 23.8813 20.8356V21.2673H19.6886C18.7565 21.2673 18 22.0357 18 22.9825V50.2799C18 51.2233 18.7565 51.9918 19.6886 51.9918H35.2236C35.455 51.9918 35.6437 51.8001 35.6437 51.5651C35.6437 51.33 35.4548 51.1383 35.2235 51.1383ZM24.7211 20.8354C24.7211 20.6004 24.9099 20.4137 25.1363 20.4137H28.502C28.7334 20.4137 28.9221 20.222 28.9221 19.987C28.9221 18.8085 29.8624 17.8533 31.0225 17.8533C32.1827 17.8533 33.123 18.8085 33.123 19.987C33.123 20.222 33.3117 20.4137 33.5431 20.4137H36.9087C37.1401 20.4137 37.3239 20.6054 37.3239 20.8354V23.4008C37.3239 23.6358 37.1352 23.8225 36.9087 23.8225H25.1365C24.91 23.8275 24.7213 23.6358 24.7213 23.4058L24.7211 20.8354ZM39.4244 30.6553H30.1824C29.951 30.6553 29.7623 30.4636 29.7623 30.2286C29.7623 29.9935 29.951 29.8018 30.1824 29.8018H39.4244C39.6558 29.8018 39.8445 29.9935 39.8445 30.2286C39.8445 30.4636 39.6558 30.6553 39.4244 30.6553ZM43.6253 39.1899C41.5413 39.1899 39.8445 40.9135 39.8445 43.0304C39.8445 45.1474 41.5413 46.871 43.6253 46.871C45.7094 46.871 47.4062 45.1474 47.4062 43.0304C47.4062 40.9135 45.7094 39.1899 43.6253 39.1899ZM43.6253 46.0175C42.004 46.0175 40.6847 44.6773 40.6847 43.0304C40.6847 41.3835 42.004 40.0433 43.6253 40.0433C45.2466 40.0433 46.566 41.3835 46.566 43.0304C46.566 44.6773 45.2466 46.0175 43.6253 46.0175ZM27.9605 28.8251L24.5997 32.2389C24.5161 32.3189 24.411 32.3622 24.3011 32.3622C24.1911 32.3622 24.0861 32.3189 24.0024 32.2389L22.322 30.532C22.158 30.3653 22.158 30.0969 22.322 29.9302C22.4862 29.7635 22.7503 29.7635 22.9145 29.9302L24.3011 31.3338L27.3632 28.2233C27.5273 28.0566 27.7915 28.0566 27.9556 28.2233C28.1198 28.39 28.1246 28.6583 27.9605 28.8251ZM32.7029 38.3364H30.1824C29.951 38.3364 29.7623 38.1447 29.7623 37.9097C29.7623 37.6746 29.951 37.483 30.1824 37.483H32.7029C32.9343 37.483 33.123 37.6746 33.123 37.9097C33.123 38.1447 32.9343 38.3364 32.7029 38.3364ZM27.9605 36.5061L24.5997 39.92C24.5161 40 24.411 40.0433 24.3011 40.0433C24.1911 40.0433 24.0861 40 24.0024 39.92L22.322 38.213C22.158 38.0463 22.158 37.778 22.322 37.6113C22.4862 37.4446 22.7503 37.4446 22.9145 37.6113L24.3011 39.0148L27.3632 35.9044C27.5273 35.7377 27.7915 35.7377 27.9556 35.9044C28.1198 36.071 28.1246 36.3394 27.9605 36.5061ZM31.8628 45.164C32.0941 45.164 32.2829 45.3557 32.2829 45.5907C32.2829 45.8258 32.0941 46.0175 31.8628 46.0175H30.1824C29.951 46.0175 29.7623 45.8258 29.7623 45.5907C29.7623 45.3557 29.951 45.164 30.1824 45.164H31.8628ZM27.9605 43.5805C28.1246 43.7472 28.1246 44.0155 27.9605 44.1822L24.5997 47.5961C24.5161 47.6811 24.411 47.7244 24.3011 47.7244C24.1911 47.7244 24.0861 47.6811 24.0024 47.6011L22.322 45.8942C22.158 45.7275 22.158 45.4591 22.322 45.2924C22.4862 45.1257 22.7503 45.1257 22.9145 45.2924L24.3011 46.6959L27.3632 43.5855C27.5273 43.4138 27.7964 43.4138 27.9605 43.5805ZM50.7375 44.3539C50.6915 44.3106 50.6653 44.2422 50.6784 44.1656C50.7375 43.7855 50.767 43.4055 50.767 43.0304C50.767 42.6553 50.7375 42.2753 50.6784 41.8952C50.6653 41.8218 50.6915 41.7502 50.7375 41.7068L51.645 40.8967C52.0109 40.5683 52.0979 40.0216 51.855 39.5915L50.6752 37.5096C50.4323 37.0779 49.9187 36.8828 49.4576 37.0395L48.3105 37.4329C48.2514 37.4545 48.1809 37.4379 48.1251 37.3895C47.5376 36.9028 46.8812 36.5194 46.1838 36.2494C46.1165 36.2244 46.0656 36.1677 46.0541 36.1043L45.8146 34.9008C45.7177 34.4141 45.2943 34.0607 44.807 34.0607H42.4423C41.9549 34.0607 41.5299 34.4141 41.4348 34.8975L41.1952 36.1043C41.1821 36.1676 41.1328 36.2193 41.0656 36.2493C40.3681 36.5177 39.7134 36.9027 39.1243 37.3895C39.0701 37.4362 38.9979 37.4528 38.9388 37.4328L37.7918 37.0394C37.329 36.8811 36.817 37.0778 36.5742 37.5095L35.3943 39.5915C35.1514 40.0232 35.2384 40.5683 35.6093 40.8967L36.5168 41.7068C36.5676 41.7501 36.589 41.8218 36.5758 41.8951C36.5135 42.2669 36.4839 42.6502 36.4839 43.0303C36.4839 43.4104 36.5135 43.7938 36.5726 44.1655C36.5857 44.2422 36.5644 44.3105 36.5135 44.3539L35.606 45.164C35.2401 45.4924 35.1531 46.0391 35.396 46.4692L36.5758 48.5511C36.8187 48.9828 37.3323 49.1779 37.7934 49.0212L38.9405 48.6278C39.0028 48.6061 39.0701 48.6228 39.1292 48.6712C39.7134 49.1529 40.3681 49.5379 41.0705 49.8113C41.1427 49.8363 41.1886 49.893 41.2001 49.9564L41.4397 51.1599C41.5365 51.6466 41.9599 52 42.4473 52H44.8119C45.2993 52 45.7243 51.6466 45.8195 51.1632L46.0591 49.9564C46.0722 49.8931 46.1214 49.8414 46.1887 49.8114C46.891 49.543 47.5458 49.158 48.13 48.6712C48.1891 48.6245 48.2563 48.6079 48.3187 48.6279L49.4658 49.0213C49.9285 49.1796 50.4405 48.9829 50.6834 48.5512L51.8632 46.4692C52.1061 46.0425 52.0191 45.4924 51.6532 45.164L50.7375 44.3539ZM51.1281 46.0425L49.9482 48.1244C49.9022 48.2011 49.8103 48.2395 49.725 48.2095L48.5779 47.8161C48.2415 47.701 47.8756 47.7727 47.5901 48.0044C47.0731 48.4312 46.4971 48.7679 45.8801 49.0079C45.5405 49.1396 45.2927 49.4296 45.2254 49.7797L44.9858 50.9865C44.9743 51.0749 44.8988 51.1382 44.8102 51.1382H42.4456C42.3569 51.1382 42.2782 51.0749 42.2601 50.9849L42.0205 49.7814C41.9483 49.428 41.7055 49.1363 41.3658 49.0096C40.7488 48.7712 40.1728 48.4328 39.6559 48.0061C39.4622 47.8477 39.2276 47.7627 38.9929 47.7627C38.883 47.7627 38.7747 47.7794 38.6697 47.8177L37.5226 48.2111C37.4389 48.2411 37.3454 48.2028 37.2994 48.1261L36.1196 46.0441C36.0736 45.9675 36.09 45.8641 36.1573 45.8058L37.0648 44.9957C37.3339 44.7573 37.4553 44.3989 37.4012 44.0305C37.3487 43.7005 37.3241 43.3671 37.3241 43.0304C37.3241 42.6936 37.3487 42.3603 37.4045 42.0319C37.4635 41.6652 37.3372 41.3018 37.0681 41.0668L36.1606 40.2567C36.0933 40.1967 36.0769 40.0983 36.1228 40.0183L37.3027 37.9364C37.3487 37.8597 37.4405 37.8213 37.5259 37.8513L38.6729 38.2447C39.0093 38.3598 39.3753 38.2881 39.6559 38.0564C40.1761 37.6296 40.7521 37.2879 41.3658 37.0529C41.7055 36.9212 41.95 36.6312 42.0205 36.2811L42.2601 35.0743C42.2765 34.9843 42.352 34.9209 42.4456 34.9209H44.8102C44.8988 34.9209 44.9776 34.9843 44.9957 35.0743L45.2352 36.2778C45.3074 36.6312 45.5503 36.9179 45.89 37.0496C46.5037 37.2879 47.0781 37.6263 47.5999 38.053C47.8821 38.2831 48.2514 38.3564 48.5828 38.2414L49.7299 37.848C49.8136 37.818 49.9071 37.8564 49.9531 37.933L51.1329 40.015C51.1789 40.0917 51.1625 40.195 51.0952 40.2534L50.1877 41.0635C49.9235 41.2985 49.7972 41.6569 49.8513 42.0236C49.9022 42.3603 49.9268 42.697 49.9268 43.0304C49.9268 43.3638 49.9022 43.7005 49.8513 44.0339C49.7972 44.3973 49.9235 44.7557 50.1877 44.9891L51.0952 45.7992C51.1576 45.8642 51.174 45.9625 51.1281 46.0425Z" fill="white"/>
<defs>
<linearGradient id="paint0_linear_881_2296" x1="61.454" y1="33.6596" x2="7.19141" y2="33.6596" gradientUnits="userSpaceOnUse">
<stop stop-color="#F18DF3"/>
<stop offset="1" stop-color="#A700AA"/>
</linearGradient>
</defs>
</svg>
