<svg width="26" height="26" viewBox="0 0 26 26" fill="none" xmlns="http://www.w3.org/2000/svg">
<path d="M18.144 12.9179C18.3983 12.9179 18.6044 12.7117 18.6044 12.4575C18.6044 12.2032 18.3983 11.9971 18.144 11.9971C17.8898 11.9971 17.6836 12.2032 17.6836 12.4575C17.6836 12.7117 17.8898 12.9179 18.144 12.9179Z" fill="#83859F" stroke="#83859F" stroke-linecap="round" stroke-linejoin="round"/>
<path d="M13.5405 12.9179C13.7947 12.9179 14.0009 12.7117 14.0009 12.4575C14.0009 12.2032 13.7947 11.9971 13.5405 11.9971C13.2863 11.9971 13.0801 12.2032 13.0801 12.4575C13.0801 12.7117 13.2863 12.9179 13.5405 12.9179Z" fill="#83859F" stroke="#83859F" stroke-linecap="round" stroke-linejoin="round"/>
<path d="M8.93698 12.9179C9.19126 12.9179 9.3974 12.7117 9.3974 12.4575C9.3974 12.2032 9.19126 11.9971 8.93698 11.9971C8.6827 11.9971 8.47656 12.2032 8.47656 12.4575C8.47656 12.7117 8.6827 12.9179 8.93698 12.9179Z" fill="#83859F" stroke="#83859F" stroke-linecap="round" stroke-linejoin="round"/>
<path d="M13.5423 21.6667C18.6279 21.6667 22.7507 17.5439 22.7507 12.4583C22.7507 7.37271 18.6279 3.25 13.5423 3.25C8.45669 3.25 4.33398 7.37271 4.33398 12.4583C4.33398 14.1355 4.7824 15.708 5.56589 17.0625L4.7944 21.2062L8.93815 20.4348C10.2926 21.2182 11.8651 21.6667 13.5423 21.6667Z" stroke="#83859F" stroke-linecap="round" stroke-linejoin="round"/>
</svg>
