<svg width="24" height="20" viewBox="0 0 24 20" fill="none" xmlns="http://www.w3.org/2000/svg">
<path d="M5.07027 11.6804C5.52902 10.9377 6.54081 10.9377 6.99956 11.6804L9.87344 16.3328C10.3866 17.1635 9.83437 18.2757 8.90879 18.2757H3.16104C2.23546 18.2757 1.68324 17.1635 2.19639 16.3328L5.07027 11.6804Z" fill="#ED5156"/>
<path d="M16.6612 11.6804C17.12 10.9377 18.1318 10.9377 18.5905 11.6804L21.4644 16.3328C21.9776 17.1635 21.4253 18.2757 20.4997 18.2757H14.7519C13.8264 18.2757 13.2742 17.1635 13.7873 16.3328L16.6612 11.6804Z" fill="#ED5156"/>
<path d="M10.8657 2.55698C11.3245 1.81434 12.3363 1.81434 12.795 2.55698L15.6689 7.20934C16.1821 8.04007 15.6299 9.15236 14.7042 9.15236H8.9565C8.03092 9.15236 7.4787 8.04007 7.99185 7.20934L10.8657 2.55698Z" fill="#ED5156"/>
</svg>
