<svg width="21" height="17" viewBox="0 0 21 17" fill="none" xmlns="http://www.w3.org/2000/svg">
<path d="M4.5178 9.40408C4.76798 9.00799 5.3456 9.00799 5.59578 9.40408L8.0473 13.2854C8.31541 13.7099 8.01038 14.2633 7.50831 14.2633H2.60527C2.1032 14.2633 1.79817 13.7099 2.06628 13.2854L4.5178 9.40408Z" stroke="#83859F" stroke-width="0.85"/>
<path d="M14.5901 9.40408C14.8402 9.00799 15.4179 9.00799 15.668 9.40408L18.1196 13.2854C18.3877 13.7099 18.0826 14.2633 17.5806 14.2633H12.6775C12.1755 14.2633 11.8704 13.7099 12.1385 13.2854L14.5901 9.40408Z" stroke="#83859F" stroke-width="0.85"/>
<path d="M9.55491 1.64919C9.80509 1.25311 10.3827 1.25311 10.6329 1.64919L13.0844 5.5305C13.3525 5.95499 13.0475 6.50844 12.5454 6.50844H7.64238C7.14031 6.50844 6.83528 5.95499 7.10339 5.5305L9.55491 1.64919Z" stroke="#83859F" stroke-width="0.85"/>
</svg>
