<svg width="24" height="24" viewBox="0 0 24 24" fill="none" xmlns="http://www.w3.org/2000/svg">
<path d="M1.803 4.29785C1.90385 4.1506 2.06089 4.04821 2.23958 4.0132C2.41827 3.9782 2.60398 4.01345 2.75587 4.11119L4.81837 5.44582C4.96427 5.54612 5.06411 5.69761 5.0967 5.86812C5.1293 6.03864 5.09209 6.21476 4.99296 6.35911C4.89384 6.50346 4.74061 6.60467 4.56579 6.64126C4.39097 6.67786 4.20833 6.64695 4.05663 6.55511L1.99413 5.22182C1.84248 5.12382 1.73717 4.97145 1.70134 4.7982C1.6655 4.62494 1.70206 4.44498 1.803 4.29785ZM12 4.00053C10.359 4.00053 8.78516 4.63265 7.62478 5.75783C6.4644 6.88301 5.8125 8.40908 5.8125 10.0003V13.2016L4.487 16.4188C4.4452 16.5199 4.4296 16.6295 4.44157 16.7378C4.45355 16.8462 4.49273 16.95 4.55569 17.0403C4.61865 17.1305 4.70347 17.2044 4.80272 17.2556C4.90197 17.3067 5.01262 17.3334 5.125 17.3334H9.25C9.25 18.8107 10.4765 20 12 20C13.5235 20 14.75 18.8107 14.75 17.3334H18.875C18.9872 17.3333 19.0977 17.3066 19.1968 17.2555C19.2959 17.2045 19.3806 17.1307 19.4435 17.0406C19.5064 16.9506 19.5457 16.8469 19.5578 16.7388C19.5699 16.6306 19.5545 16.5212 19.513 16.4201L18.1875 13.2002V10.0003C18.1875 8.40908 17.5356 6.88301 16.3752 5.75783C15.2148 4.63265 13.641 4.00053 12 4.00053ZM13.375 17.3334C13.375 18.0747 12.7645 18.6667 12 18.6667C11.2355 18.6667 10.625 18.0747 10.625 17.3334H13.375ZM7.1875 10.0003C7.1875 8.76269 7.69453 7.57575 8.59705 6.70061C9.49957 5.82547 10.7236 5.33382 12 5.33382C13.2764 5.33382 14.5004 5.82547 15.403 6.70061C16.3055 7.57575 16.8125 8.76269 16.8125 10.0003V13.3309C16.8127 13.4154 16.8295 13.4991 16.862 13.5775L17.8603 16.0001H6.13975L7.138 13.5775C7.17048 13.4991 7.18727 13.4154 7.1875 13.3309V10.0003ZM21.2441 4.11253C21.3958 4.02068 21.5785 3.98978 21.7533 4.02638C21.9281 4.06297 22.0813 4.16418 22.1805 4.30853C22.2796 4.45288 22.3168 4.629 22.2842 4.79951C22.2516 4.97003 22.1518 5.12151 22.0059 5.22182L19.9434 6.55511C19.7917 6.64695 19.609 6.67786 19.4342 6.64126C19.2594 6.60467 19.1062 6.50346 19.007 6.35911C18.9079 6.21476 18.8707 6.03864 18.9033 5.86812C18.9359 5.69761 19.0357 5.54612 19.1816 5.44582L21.2441 4.11253ZM1 10.0003C1 9.82353 1.07243 9.65396 1.20136 9.52894C1.3303 9.40392 1.50516 9.33369 1.6875 9.33369H3.75C3.93234 9.33369 4.1072 9.40392 4.23614 9.52894C4.36507 9.65396 4.4375 9.82353 4.4375 10.0003C4.4375 10.1771 4.36507 10.3467 4.23614 10.4717C4.1072 10.5967 3.93234 10.667 3.75 10.667H1.6875C1.50516 10.667 1.3303 10.5967 1.20136 10.4717C1.07243 10.3467 1 10.1771 1 10.0003ZM22.3125 9.33369C22.4948 9.33369 22.6697 9.40392 22.7986 9.52894C22.9276 9.65396 23 9.82353 23 10.0003C23 10.1771 22.9276 10.3467 22.7986 10.4717C22.6697 10.5967 22.4948 10.667 22.3125 10.667H20.25C20.0677 10.667 19.8928 10.5967 19.7639 10.4717C19.6349 10.3467 19.5625 10.1771 19.5625 10.0003C19.5625 9.82353 19.6349 9.65396 19.7639 9.52894C19.8928 9.40392 20.0677 9.33369 20.25 9.33369H22.3125Z" fill="#2E2E2E"/>
</svg>
