<svg width="25" height="25" viewBox="0 0 25 25" fill="none" xmlns="http://www.w3.org/2000/svg">
<path d="M9.78997 6.98258C8.84531 7.86247 8.31173 9.09571 8.31644 10.3867C8.31644 10.6364 8.51904 10.839 8.76875 10.839C9.01846 10.839 9.22106 10.6364 9.22106 10.3867C9.21752 9.34541 9.64746 8.35127 10.4095 7.64099C10.5909 7.4702 10.6004 7.18398 10.4296 7.00257C10.2576 6.82 9.97138 6.81061 9.78997 6.98258Z" fill="black"/>
<path d="M12.9913 3.00004C12.5755 3.00004 12.2375 3.33809 12.2375 3.75388V3.95413C10.8558 4.10961 9.56131 4.71033 8.55055 5.6656C7.25016 6.89296 6.51163 8.59973 6.5081 10.3877V16.6269C5.54107 16.8554 4.89794 17.7718 5.01337 18.76C5.1288 19.7471 5.9663 20.4903 6.96041 20.4892H11.0888C11.2961 21.3726 12.0841 21.9957 12.9911 21.9957C13.898 21.9957 14.6861 21.3726 14.8934 20.4892H19.0217C20.0159 20.4903 20.8534 19.7471 20.9688 18.76C21.0842 17.7718 20.4411 16.8554 19.4741 16.6269V10.6244C19.4988 9.00482 18.9299 7.43232 17.8733 6.20385C16.8179 4.97532 15.3491 4.17552 13.7449 3.95645V3.75385C13.7449 3.33806 13.4071 3.00004 12.9913 3.00004ZM12.9913 21.0924C12.5849 21.0912 12.2151 20.8568 12.042 20.4893H13.9407C13.7676 20.8568 13.3977 21.0912 12.9913 21.0924ZM20.0775 18.5293C20.0763 19.1124 19.6052 19.5835 19.0221 19.5847H6.96053C6.37748 19.5847 5.90514 19.1124 5.90514 18.5293C5.90514 17.9463 6.37748 17.4739 6.96053 17.4739H19.0221C19.6052 17.4751 20.0763 17.9463 20.0775 18.5293ZM18.5698 10.6245V16.5693H7.41284V10.3878C7.41284 8.84824 8.05008 7.37589 9.1726 6.32179C10.2951 5.26758 11.804 4.72457 13.3411 4.82115C14.7864 4.94247 16.1315 5.61034 17.1034 6.68928C18.074 7.76704 18.5981 9.17324 18.5698 10.6245Z" fill="black"/>
</svg>
