<svg width="24" height="25" viewBox="0 0 24 25" fill="none" xmlns="http://www.w3.org/2000/svg">
<path d="M1.803 4.67285C1.90385 4.5256 2.06089 4.42321 2.23958 4.3882C2.41827 4.3532 2.60398 4.38845 2.75587 4.48619L4.81837 5.82082C4.96427 5.92112 5.06411 6.07261 5.0967 6.24312C5.1293 6.41364 5.09209 6.58976 4.99296 6.73411C4.89384 6.87846 4.74061 6.97967 4.56579 7.01626C4.39097 7.05286 4.20833 7.02195 4.05663 6.93011L1.99412 5.59682C1.84248 5.49882 1.73717 5.34645 1.70134 5.1732C1.6655 4.99994 1.70206 4.81998 1.803 4.67285ZM12 4.37553C10.359 4.37553 8.78516 5.00765 7.62478 6.13283C6.4644 7.25801 5.8125 8.78408 5.8125 10.3753V13.5766L4.487 16.7938C4.4452 16.8949 4.4296 17.0045 4.44157 17.1128C4.45355 17.2212 4.49273 17.325 4.55569 17.4153C4.61865 17.5055 4.70347 17.5794 4.80272 17.6306C4.90197 17.6817 5.01262 17.7084 5.125 17.7084H9.25C9.25 19.1857 10.4765 20.375 12 20.375C13.5235 20.375 14.75 19.1857 14.75 17.7084H18.875C18.9872 17.7083 19.0977 17.6816 19.1968 17.6305C19.2959 17.5795 19.3806 17.5057 19.4435 17.4156C19.5064 17.3256 19.5457 17.2219 19.5578 17.1138C19.5699 17.0056 19.5545 16.8962 19.513 16.7951L18.1875 13.5752V10.3753C18.1875 8.78408 17.5356 7.25801 16.3752 6.13283C15.2148 5.00765 13.641 4.37553 12 4.37553ZM13.375 17.7084C13.375 18.4497 12.7645 19.0417 12 19.0417C11.2355 19.0417 10.625 18.4497 10.625 17.7084H13.375ZM7.1875 10.3753C7.1875 9.13769 7.69453 7.95075 8.59705 7.07561C9.49957 6.20047 10.7236 5.70882 12 5.70882C13.2764 5.70882 14.5004 6.20047 15.403 7.07561C16.3055 7.95075 16.8125 9.13769 16.8125 10.3753V13.7059C16.8127 13.7904 16.8295 13.8741 16.862 13.9525L17.8603 16.3751H6.13975L7.138 13.9525C7.17048 13.8741 7.18727 13.7904 7.1875 13.7059V10.3753ZM21.2441 4.48753C21.3958 4.39568 21.5785 4.36478 21.7533 4.40138C21.9281 4.43797 22.0813 4.53918 22.1805 4.68353C22.2796 4.82788 22.3168 5.004 22.2842 5.17451C22.2516 5.34503 22.1518 5.49651 22.0059 5.59682L19.9434 6.93011C19.7917 7.02195 19.609 7.05286 19.4342 7.01626C19.2594 6.97967 19.1062 6.87846 19.007 6.73411C18.9079 6.58976 18.8707 6.41364 18.9033 6.24312C18.9359 6.07261 19.0357 5.92112 19.1816 5.82082L21.2441 4.48753ZM1 10.3753C1 10.1985 1.07243 10.029 1.20136 9.90394C1.3303 9.77892 1.50516 9.70869 1.6875 9.70869H3.75C3.93234 9.70869 4.1072 9.77892 4.23614 9.90394C4.36507 10.029 4.4375 10.1985 4.4375 10.3753C4.4375 10.5521 4.36507 10.7217 4.23614 10.8467C4.1072 10.9717 3.93234 11.042 3.75 11.042H1.6875C1.50516 11.042 1.3303 10.9717 1.20136 10.8467C1.07243 10.7217 1 10.5521 1 10.3753ZM22.3125 9.70869C22.4948 9.70869 22.6697 9.77892 22.7986 9.90394C22.9276 10.029 23 10.1985 23 10.3753C23 10.5521 22.9276 10.7217 22.7986 10.8467C22.6697 10.9717 22.4948 11.042 22.3125 11.042H20.25C20.0677 11.042 19.8928 10.9717 19.7639 10.8467C19.6349 10.7217 19.5625 10.5521 19.5625 10.3753C19.5625 10.1985 19.6349 10.029 19.7639 9.90394C19.8928 9.77892 20.0677 9.70869 20.25 9.70869H22.3125Z" fill="#202224"/>
</svg>
