<svg width="24" height="24" viewBox="0 0 24 24" fill="none" xmlns="http://www.w3.org/2000/svg">
<g clip-path="url(#clip0_694_15533)">
<path d="M4.35225 6.22339C4.42789 6.11295 4.54567 6.03616 4.67968 6.0099C4.8137 5.98365 4.95299 6.01008 5.06691 6.08339L6.61378 7.08436C6.7232 7.15959 6.79808 7.27321 6.82253 7.40109C6.84697 7.52898 6.81907 7.66107 6.74472 7.76933C6.67038 7.87759 6.55546 7.9535 6.42434 7.98095C6.29323 8.00839 6.15625 7.98521 6.04247 7.91633L4.49559 6.91637C4.38186 6.84287 4.30288 6.72859 4.276 6.59865C4.24912 6.46871 4.27655 6.33373 4.35225 6.22339ZM12 6.0004C10.7692 6.0004 9.58887 6.47449 8.71858 7.31837C7.8483 8.16226 7.35937 9.30681 7.35937 10.5002V12.9012L6.36525 15.3141C6.3339 15.3899 6.3222 15.4721 6.33118 15.5534C6.34016 15.6346 6.36955 15.7125 6.41677 15.7802C6.46399 15.8479 6.5276 15.9033 6.60204 15.9417C6.67648 15.98 6.75947 16 6.84375 16.0001H9.9375C9.9375 17.108 10.8574 18 12 18C13.1426 18 14.0625 17.108 14.0625 16.0001H17.1562C17.2404 16 17.3233 15.9799 17.3976 15.9417C17.4719 15.9034 17.5354 15.848 17.5826 15.7805C17.6298 15.7129 17.6592 15.6352 17.6683 15.5541C17.6774 15.4729 17.6659 15.3909 17.6347 15.3151L16.6406 12.9002V10.5002C16.6406 9.30681 16.1517 8.16226 15.2814 7.31837C14.4111 6.47449 13.2308 6.0004 12 6.0004ZM13.0312 16.0001C13.0312 16.556 12.5734 17 12 17C11.4266 17 10.9687 16.556 10.9687 16.0001H13.0312ZM8.39062 10.5002C8.39062 9.57202 8.7709 8.68181 9.44779 8.02546C10.1247 7.3691 11.0427 7.00036 12 7.00036C12.9573 7.00036 13.8753 7.3691 14.5522 8.02546C15.2291 8.68181 15.6094 9.57202 15.6094 10.5002V12.9982C15.6095 13.0616 15.6221 13.1243 15.6465 13.1832L16.3952 15.0001H7.60481L8.3535 13.1832C8.37786 13.1243 8.39046 13.0616 8.39062 12.9982V10.5002ZM18.9331 6.08439C19.0469 6.01551 19.1839 5.99234 19.315 6.01978C19.4461 6.04723 19.561 6.12314 19.6353 6.2314C19.7097 6.33966 19.7376 6.47175 19.7132 6.59963C19.6887 6.72752 19.6138 6.84114 19.5044 6.91637L17.9575 7.91633C17.8438 7.98521 17.7068 8.00839 17.5757 7.98095C17.4445 7.9535 17.3296 7.87759 17.2553 7.76933C17.1809 7.66107 17.153 7.52898 17.1775 7.40109C17.2019 7.27321 17.2768 7.15959 17.3862 7.08436L18.9331 6.08439ZM3.75 10.5002C3.75 10.3676 3.80432 10.2405 3.90102 10.1467C3.99772 10.0529 4.12887 10.0003 4.26562 10.0003H5.8125C5.94925 10.0003 6.0804 10.0529 6.1771 10.1467C6.2738 10.2405 6.32812 10.3676 6.32812 10.5002C6.32812 10.6329 6.2738 10.76 6.1771 10.8538C6.0804 10.9476 5.94925 11.0002 5.8125 11.0002H4.26562C4.12887 11.0002 3.99772 10.9476 3.90102 10.8538C3.80432 10.76 3.75 10.6329 3.75 10.5002ZM19.7344 10.0003C19.8711 10.0003 20.0023 10.0529 20.099 10.1467C20.1957 10.2405 20.25 10.3676 20.25 10.5002C20.25 10.6329 20.1957 10.76 20.099 10.8538C20.0023 10.9476 19.8711 11.0002 19.7344 11.0002H18.1875C18.0507 11.0002 17.9196 10.9476 17.8229 10.8538C17.7262 10.76 17.6719 10.6329 17.6719 10.5002C17.6719 10.3676 17.7262 10.2405 17.8229 10.1467C17.9196 10.0529 18.0507 10.0003 18.1875 10.0003H19.7344Z" fill="#202224"/>
</g>
<defs>
<clipPath id="clip0_694_15533">
<rect width="18" height="18" fill="white" transform="translate(3 3)"/>
</clipPath>
</defs>
</svg>
