<svg width="25" height="25" viewBox="0 0 25 25" fill="none" xmlns="http://www.w3.org/2000/svg">
<path d="M19.3578 9.73136C19.2762 9.47812 19.2354 9.16158 19.215 8.82393C19.1539 8.25415 19.1131 7.66326 18.7663 7.17789C18.4196 6.69252 17.8893 6.46039 17.3795 6.22826C17.0939 6.10164 16.8084 5.97502 16.6044 5.8062C16.4005 5.65847 16.1965 5.42634 15.9926 5.17311C15.6458 4.75104 15.2379 4.28678 14.6872 4.09685C14.1366 3.90692 13.5859 4.03354 13.0556 4.16016C12.4233 4.30788 11.9135 4.30788 11.2608 4.16016C10.7305 4.03354 10.1798 3.90692 9.62916 4.09685C9.05809 4.28678 8.67057 4.75104 8.32385 5.17311C8.11989 5.42634 7.91594 5.63737 7.71198 5.8062C7.50803 5.97502 7.22249 6.08053 6.93695 6.22826C6.42707 6.46039 5.89678 6.69252 5.55006 7.17789C5.20334 7.66326 5.16254 8.25415 5.10136 8.82393C5.06057 9.16158 5.04017 9.45702 4.95859 9.73136C4.87701 9.98459 4.73424 10.2378 4.57107 10.5122C4.30593 10.9975 4 11.5251 4 12.1582C4 12.7913 4.30593 13.3189 4.57107 13.8042C4.73424 14.0786 4.87701 14.3318 4.95859 14.585C5.04017 14.8383 5.08096 15.1548 5.10136 15.4925C5.16254 16.0623 5.20334 16.6531 5.55006 17.1385C5.89678 17.6239 6.42707 17.856 6.93695 18.0881C7.22249 18.2148 7.50803 18.3414 7.71198 18.5102C7.91594 18.6579 8.11989 18.8901 8.32385 19.1433C8.67057 19.5654 9.07848 20.0296 9.62916 20.2196C10.1798 20.4095 10.7305 20.2829 11.2608 20.1562C11.8931 20.0085 12.4029 20.0085 13.0556 20.1562C13.4023 20.2407 13.7491 20.304 14.0958 20.304C14.2997 20.304 14.4833 20.2829 14.6872 20.2196C15.2583 20.0296 15.6458 19.5654 15.9926 19.1433C16.1965 18.8901 16.4005 18.679 16.6044 18.5102C16.8084 18.3414 17.0939 18.2359 17.3795 18.0881C17.8893 17.856 18.4196 17.6239 18.7663 17.1385C19.1131 16.6531 19.1539 16.0623 19.215 15.4925C19.2558 15.1548 19.2762 14.8594 19.3578 14.585C19.4394 14.3318 19.5822 14.0786 19.7453 13.8042C20.0105 13.3189 20.3164 12.7913 20.3164 12.1582C20.3164 11.5251 20.0105 10.9975 19.7453 10.5122C19.5822 10.2378 19.4394 9.98459 19.3578 9.73136ZM19.0111 13.3611C18.8479 13.6565 18.6644 13.9731 18.5624 14.3107C18.4604 14.6695 18.4196 15.0282 18.3788 15.387C18.338 15.8512 18.2973 16.3155 18.0933 16.6109C17.8893 16.9064 17.4814 17.0963 17.0531 17.2862C16.7268 17.434 16.4005 17.5817 16.1149 17.7927C15.8294 18.0037 15.605 18.2781 15.3603 18.5524C15.0544 18.9112 14.7688 19.2488 14.4221 19.3754C14.0958 19.4809 13.6675 19.3965 13.2392 19.291C12.8924 19.2066 12.5253 19.1222 12.1582 19.1222C11.7911 19.1222 11.424 19.2066 11.0772 19.291C10.6285 19.3965 10.2206 19.4809 9.8943 19.3754C9.54758 19.2488 9.26204 18.9112 8.95611 18.5524C8.73176 18.2781 8.48701 18.0037 8.20147 17.7927C7.91594 17.5817 7.58961 17.434 7.26328 17.2862C6.83498 17.0963 6.44746 16.9064 6.22311 16.6109C6.01916 16.3155 5.97836 15.8723 5.93757 15.387C5.89678 15.0282 5.87639 14.6484 5.75401 14.3107C5.65204 13.9731 5.46848 13.6565 5.30531 13.3611C5.06057 12.939 4.83622 12.5592 4.83622 12.1582C4.83622 11.7572 5.06057 11.3774 5.30531 10.9553C5.46848 10.6599 5.65204 10.3433 5.75401 10.0057C5.85599 9.64694 5.89678 9.28819 5.93757 8.92944C5.97836 8.46518 6.01916 8.00091 6.22311 7.70547C6.42707 7.41002 6.83498 7.2201 7.26328 7.03017C7.58961 6.88245 7.91594 6.73473 8.20147 6.5237C8.48701 6.31267 8.71136 6.03833 8.95611 5.76399C9.26204 5.40524 9.54758 5.06759 9.8943 4.94097C10.2206 4.83546 10.6489 4.91987 11.0772 5.02538C11.7707 5.17311 12.5253 5.17311 13.2188 5.02538C13.6675 4.91987 14.0754 4.83546 14.4017 4.94097C14.7484 5.06759 15.034 5.40524 15.3399 5.76399C15.5643 6.03833 15.809 6.31267 16.0945 6.5237C16.3801 6.73473 16.7064 6.88245 17.0327 7.03017C17.461 7.2201 17.8486 7.41002 18.0729 7.70547C18.2769 8.00091 18.3176 8.44407 18.3584 8.92944C18.3992 9.28819 18.4196 9.66805 18.542 10.0057C18.644 10.3433 18.8275 10.6599 18.9907 10.9553C19.2354 11.3774 19.4598 11.7572 19.4598 12.1582C19.4598 12.5592 19.2558 12.939 19.0111 13.3611Z" fill="black"/>
<path d="M15.3697 9.55792L11.2464 13.8728L8.96421 11.5046C8.81078 11.3441 8.56146 11.3441 8.40804 11.5046C8.25461 11.6652 8.25461 11.9261 8.40804 12.0867L10.9587 14.7559C11.0355 14.8362 11.1313 14.8763 11.2272 14.8763C11.3231 14.8763 11.4382 14.8362 11.4957 14.7559L15.9067 10.1399C16.0602 9.97937 16.0602 9.71847 15.9067 9.55792C15.7725 9.39736 15.5232 9.39736 15.3697 9.55792Z" fill="black"/>
</svg>
