<svg width="24" height="24" viewBox="0 0 24 24" fill="none" xmlns="http://www.w3.org/2000/svg">
<path d="M11.386 1.89892C11.2642 1.78548 11.1032 1.72373 10.9369 1.72666C10.7705 1.7296 10.6118 1.79699 10.4941 1.91465C10.3764 2.03231 10.309 2.19104 10.3061 2.35741C10.3032 2.52378 10.3649 2.68479 10.4784 2.80653L11.9408 4.26983C6.99777 4.30237 3 8.31983 3 13.2706C3 18.2419 7.0303 22.2722 12.0016 22.2722C16.8959 22.2722 20.8774 18.366 20.9998 13.5009C21.0019 13.4166 20.9874 13.3327 20.9571 13.2539C20.9268 13.1752 20.8813 13.1032 20.8232 13.0421C20.7651 12.9809 20.6955 12.9318 20.6184 12.8976C20.5413 12.8633 20.4582 12.8446 20.3739 12.8425C20.2896 12.8403 20.2056 12.8548 20.1269 12.8851C20.0482 12.9154 19.9762 12.9609 19.915 13.0191C19.8539 13.0772 19.8048 13.1468 19.7705 13.2239C19.7363 13.301 19.7176 13.384 19.7154 13.4684C19.6767 14.9841 19.1924 16.4549 18.3228 17.6971C17.4532 18.9392 16.237 19.8977 14.826 20.4528C13.4151 21.0079 11.8718 21.1351 10.389 20.8184C8.90614 20.5018 7.54945 19.7553 6.4883 18.6722C5.42715 17.5892 4.70856 16.2175 4.42226 14.7285C4.13596 13.2395 4.29464 11.6992 4.87847 10.2998C5.46231 8.90047 6.44543 7.70411 7.70509 6.86012C8.96475 6.01613 10.4451 5.56192 11.9614 5.55419L10.4784 7.03719C10.4153 7.09598 10.3647 7.16688 10.3296 7.24565C10.2945 7.32442 10.2756 7.40946 10.2741 7.49568C10.2726 7.58191 10.2884 7.66756 10.3207 7.74752C10.353 7.82748 10.4011 7.90012 10.4621 7.9611C10.523 8.02208 10.5957 8.07015 10.6756 8.10245C10.7556 8.13475 10.8413 8.15061 10.9275 8.14909C11.0137 8.14757 11.0987 8.1287 11.1775 8.0936C11.2563 8.0585 11.3272 8.00789 11.386 7.9448L13.9547 5.37609C14.0749 5.25568 14.1425 5.09246 14.1425 4.92229C14.1425 4.75211 14.0749 4.58889 13.9547 4.46848L11.386 1.89892ZM15.6672 10.4621C15.7874 10.5825 15.855 10.7458 15.855 10.9159C15.855 11.0861 15.7874 11.2493 15.6672 11.3697L11.1719 15.865C11.0515 15.9852 10.8883 16.0528 10.7181 16.0528C10.5479 16.0528 10.3847 15.9852 10.2643 15.865L8.33606 13.9385C8.21903 13.8174 8.15422 13.6552 8.1556 13.4868C8.15699 13.3185 8.22445 13.1574 8.34346 13.0382C8.46247 12.9191 8.6235 12.8515 8.79188 12.85C8.96026 12.8484 9.1225 12.9131 9.24367 13.03L10.7181 14.5027L14.7595 10.4613C14.8801 10.3411 15.0434 10.2737 15.2135 10.2739C15.3837 10.2741 15.5469 10.3418 15.6672 10.4621Z" fill="#2E2E2E"/>
</svg>
