<svg width="24" height="24" viewBox="0 0 24 24" fill="none" xmlns="http://www.w3.org/2000/svg">
<path d="M19.9425 9.32274C19.8525 9.04338 19.8075 8.69417 19.785 8.32168C19.7175 7.69311 19.6725 7.04125 19.29 6.5058C18.9075 5.97035 18.3225 5.71426 17.76 5.45818C17.445 5.31849 17.13 5.17881 16.905 4.99257C16.68 4.8296 16.455 4.57352 16.23 4.29415C15.8475 3.82854 15.3975 3.31637 14.79 3.10685C14.1825 2.89732 13.575 3.037 12.99 3.17669C12.2925 3.33965 11.73 3.33965 11.01 3.17669C10.425 3.037 9.8175 2.89732 9.21 3.10685C8.58 3.31637 8.1525 3.82854 7.77 4.29415C7.545 4.57352 7.32 4.80632 7.095 4.99257C6.87 5.17881 6.555 5.29521 6.24 5.45818C5.6775 5.71426 5.0925 5.97035 4.71 6.5058C4.3275 7.04125 4.2825 7.69311 4.215 8.32168C4.17 8.69417 4.1475 9.02009 4.0575 9.32274C3.9675 9.60211 3.81 9.88147 3.63 10.1841C3.3375 10.7196 3 11.3016 3 12C3 12.6984 3.3375 13.2804 3.63 13.8159C3.81 14.1185 3.9675 14.3979 4.0575 14.6773C4.1475 14.9566 4.1925 15.3058 4.215 15.6783C4.2825 16.3069 4.3275 16.9587 4.71 17.4942C5.0925 18.0297 5.6775 18.2857 6.24 18.5418C6.555 18.6815 6.87 18.8212 7.095 19.0074C7.32 19.1704 7.545 19.4265 7.77 19.7058C8.1525 20.1715 8.6025 20.6836 9.21 20.8932C9.8175 21.1027 10.425 20.963 11.01 20.8233C11.7075 20.6603 12.27 20.6603 12.99 20.8233C13.3725 20.9164 13.755 20.9863 14.1375 20.9863C14.3625 20.9863 14.565 20.963 14.79 20.8932C15.42 20.6836 15.8475 20.1715 16.23 19.7058C16.455 19.4265 16.68 19.1937 16.905 19.0074C17.13 18.8212 17.445 18.7048 17.76 18.5418C18.3225 18.2857 18.9075 18.0297 19.29 17.4942C19.6725 16.9587 19.7175 16.3069 19.785 15.6783C19.83 15.3058 19.8525 14.9799 19.9425 14.6773C20.0325 14.3979 20.19 14.1185 20.37 13.8159C20.6625 13.2804 21 12.6984 21 12C21 11.3016 20.6625 10.7196 20.37 10.1841C20.19 9.88147 20.0325 9.60211 19.9425 9.32274ZM19.56 13.327C19.38 13.6529 19.1775 14.0021 19.065 14.3746C18.9525 14.7704 18.9075 15.1662 18.8625 15.5619C18.8175 16.0741 18.7725 16.5863 18.5475 16.9122C18.3225 17.2381 17.8725 17.4476 17.4 17.6572C17.04 17.8201 16.68 17.9831 16.365 18.2159C16.05 18.4487 15.8025 18.7513 15.5325 19.054C15.195 19.4498 14.88 19.8222 14.4975 19.9619C14.1375 20.0783 13.665 19.9852 13.1925 19.8688C12.81 19.7757 12.405 19.6826 12 19.6826C11.595 19.6826 11.19 19.7757 10.8075 19.8688C10.3125 19.9852 9.8625 20.0783 9.5025 19.9619C9.12 19.8222 8.805 19.4498 8.4675 19.054C8.22 18.7513 7.95 18.4487 7.635 18.2159C7.32 17.9831 6.96 17.8201 6.6 17.6572C6.1275 17.4476 5.7 17.2381 5.4525 16.9122C5.2275 16.5863 5.1825 16.0974 5.1375 15.5619C5.0925 15.1662 5.07 14.7471 4.935 14.3746C4.8225 14.0021 4.62 13.6529 4.44 13.327C4.17 12.8614 3.9225 12.4423 3.9225 12C3.9225 11.5577 4.17 11.1386 4.44 10.673C4.62 10.3471 4.8225 9.99788 4.935 9.62539C5.0475 9.22962 5.0925 8.83385 5.1375 8.43808C5.1825 7.92591 5.2275 7.41374 5.4525 7.08781C5.6775 6.76189 6.1275 6.55236 6.6 6.34284C6.96 6.17987 7.32 6.01691 7.635 5.7841C7.95 5.5513 8.1975 5.24865 8.4675 4.94601C8.805 4.55024 9.12 4.17775 9.5025 4.03807C9.8625 3.92166 10.335 4.01479 10.8075 4.13119C11.5725 4.29415 12.405 4.29415 13.17 4.13119C13.665 4.01479 14.115 3.92166 14.475 4.03807C14.8575 4.17775 15.1725 4.55024 15.51 4.94601C15.7575 5.24865 16.0275 5.5513 16.3425 5.7841C16.6575 6.01691 17.0175 6.17987 17.3775 6.34284C17.85 6.55236 18.2775 6.76189 18.525 7.08781C18.75 7.41374 18.795 7.90263 18.84 8.43808C18.885 8.83385 18.9075 9.2529 19.0425 9.62539C19.155 9.99788 19.3575 10.3471 19.5375 10.673C19.8075 11.1386 20.055 11.5577 20.055 12C20.055 12.4423 19.83 12.8614 19.56 13.327Z" fill="black"/>
<path d="M15.5413 9.13284L10.9926 13.893L8.47487 11.2804C8.30562 11.1033 8.03057 11.1033 7.86132 11.2804C7.69206 11.4576 7.69206 11.7454 7.86132 11.9225L10.6752 14.8672C10.7598 14.9557 10.8656 15 10.9714 15C11.0772 15 11.2041 14.9557 11.2676 14.8672L16.1337 9.77491C16.303 9.59779 16.303 9.30996 16.1337 9.13284C15.9856 8.95572 15.7106 8.95572 15.5413 9.13284Z" fill="black"/>
</svg>
