<svg width="24" height="24" viewBox="0 0 24 24" fill="none" xmlns="http://www.w3.org/2000/svg">
<path d="M20.8587 16.7885V17.8959H15.2699L17.0953 19.7214L16.3167 20.5L13.1589 17.3422L16.3167 14.1845L17.0953 14.9631L15.2699 16.7885H20.8587ZM14.3182 13.0425L13.5569 13.8471C13.0436 13.3626 12.464 12.9935 11.818 12.7397C11.172 12.4859 10.4943 12.359 9.7849 12.359C9.27735 12.359 8.78711 12.4254 8.31416 12.558C7.84122 12.6907 7.4 12.8752 6.9905 13.1117C6.581 13.3482 6.20899 13.6366 5.87447 13.9768C5.53995 14.3171 5.25157 14.692 5.00933 15.1015C4.76709 15.511 4.57964 15.9522 4.44699 16.4252C4.31433 16.8981 4.248 17.3884 4.248 17.8959H3.14062C3.14062 17.2211 3.24156 16.5607 3.44342 15.9148C3.64529 15.2688 3.93655 14.6718 4.31722 14.1239C4.69788 13.576 5.15063 13.0886 5.67549 12.6618C6.20034 12.235 6.78575 11.9092 7.43172 11.6842C7.10873 11.4766 6.82035 11.2372 6.56658 10.9662C6.3128 10.6951 6.09364 10.398 5.90907 10.0751C5.72451 9.75208 5.58897 9.41179 5.50246 9.0542C5.41594 8.69661 5.36692 8.32171 5.35538 7.92952C5.35538 7.31815 5.47074 6.74427 5.70144 6.20789C5.93214 5.6715 6.24648 5.20144 6.64444 4.79771C7.04241 4.39398 7.51247 4.07676 8.05462 3.84606C8.59677 3.61535 9.17353 3.5 9.7849 3.5C10.3963 3.5 10.9701 3.61535 11.5065 3.84606C12.0429 4.07676 12.513 4.39109 12.9167 4.78906C13.3204 5.18702 13.6377 5.65708 13.8684 6.19924C14.0991 6.74139 14.2144 7.31815 14.2144 7.92952C14.2144 8.71968 14.0327 9.43486 13.6694 10.0751C13.306 10.7153 12.7956 11.2517 12.1381 11.6842C12.5418 11.8342 12.9254 12.0245 13.2887 12.2552C13.6521 12.4859 13.9952 12.7483 14.3182 13.0425ZM6.46276 7.92952C6.46276 8.39092 6.54928 8.82061 6.7223 9.21857C6.89533 9.61654 7.1318 9.96836 7.43172 10.274C7.73163 10.5797 8.08346 10.8191 8.48719 10.9921C8.89092 11.1651 9.32349 11.2517 9.7849 11.2517C10.2405 11.2517 10.6702 11.1651 11.074 10.9921C11.4777 10.8191 11.8295 10.5826 12.1294 10.2827C12.4293 9.98278 12.6687 9.63096 12.8475 9.22723C13.0263 8.82349 13.1128 8.39092 13.107 7.92952C13.107 7.47388 13.0205 7.04419 12.8475 6.64046C12.6745 6.23673 12.438 5.8849 12.1381 5.58499C11.8382 5.28507 11.4835 5.04572 11.074 4.86692C10.6645 4.68813 10.2348 4.60161 9.7849 4.60738C9.32349 4.60738 8.89381 4.69389 8.49584 4.86692C8.09788 5.03995 7.74605 5.27642 7.44037 5.57634C7.13469 5.87625 6.89533 6.23096 6.7223 6.64046C6.54928 7.04996 6.46276 7.47964 6.46276 7.92952Z" fill="#2E2E2E"/>
</svg>
