<svg width="24" height="25" viewBox="0 0 24 25" fill="none" xmlns="http://www.w3.org/2000/svg">
<path d="M12 12.3432C13.2446 12.3432 14.2593 11.2069 14.2593 9.82432C14.2593 8.45749 13.25 7.375 12 7.375C10.7607 7.375 9.74071 8.47359 9.74071 9.83493C9.74571 11.2124 10.7604 12.3432 12 12.3432ZM5.975 12.4606C7.05214 12.4606 7.93607 11.4689 7.93607 10.2525C7.93607 9.06314 7.06286 8.10361 5.975 8.10361C4.8975 8.10361 4.00821 9.07887 4.01357 10.2631C4.01893 11.4744 4.8975 12.4606 5.975 12.4606ZM18.0304 12.4606C19.1025 12.4606 19.9864 11.4744 19.9864 10.2631C19.9918 9.07887 19.1025 8.10361 18.0304 8.10361C16.9375 8.10361 16.0639 9.06277 16.0639 10.2525C16.0639 11.4689 16.9479 12.4606 18.0304 12.4606ZM12 11.5337C11.2364 11.5337 10.5825 10.7835 10.5825 9.83493C10.5825 8.90248 11.2261 8.18449 12.0004 8.18449C12.7793 8.18449 13.4175 8.89187 13.4175 9.82395C13.4175 10.7729 12.7739 11.5337 12 11.5337ZM5.975 11.6625C5.33679 11.6625 4.79286 11.0353 4.79286 10.2635C4.79286 9.50813 5.33143 8.90212 5.975 8.90212C6.63393 8.90212 7.16214 9.49715 7.16214 10.2528C7.16214 11.0353 6.61821 11.6625 5.975 11.6625ZM18.0304 11.6625C17.3818 11.6625 16.8379 11.0353 16.8379 10.2528C16.8379 9.49715 17.3661 8.90248 18.0304 8.90248C18.6736 8.90248 19.2071 9.50813 19.2071 10.2638C19.2071 11.0353 18.6682 11.6625 18.0304 11.6625ZM3.06679 17.375H7.1725C6.92143 17.2304 6.72786 16.9088 6.76464 16.582H2.93607C2.83143 16.582 2.77929 16.5392 2.77929 16.4374C2.77929 15.1083 4.25929 13.8648 5.96964 13.8648C6.62857 13.8648 7.21964 14.0258 7.72679 14.331C7.89497 14.1125 8.09421 13.921 8.31786 13.7631C7.64321 13.3074 6.8325 13.0718 5.96964 13.0718C3.77821 13.0718 2 14.701 2 16.4857C2 17.0804 2.35571 17.375 3.06679 17.375ZM20.9382 17.375C21.6443 17.375 22 17.0804 22 16.4857C22 14.701 20.2214 13.0718 18.0304 13.0718C17.1675 13.0718 16.3618 13.3074 15.6821 13.7634C15.9175 13.9292 16.1107 14.1169 16.2786 14.331C16.7804 14.0258 17.3764 13.8648 18.0304 13.8648C19.7407 13.8648 21.2207 15.1083 21.2207 16.4374C21.2207 16.5392 21.1736 16.582 21.0689 16.582H17.2404C17.2718 16.9088 17.0836 17.2304 16.8325 17.375H20.9382ZM8.71536 17.375H15.2846C16.1525 17.375 16.5661 17.1071 16.5661 16.5176C16.5661 15.1134 14.8346 13.0824 12 13.0824C9.16 13.0824 7.42857 15.1134 7.42857 16.5176C7.42857 17.1071 7.84214 17.375 8.71536 17.375ZM8.46429 16.5662C8.32857 16.5662 8.27107 16.5286 8.27107 16.4162C8.27107 15.5368 9.59964 13.8919 12 13.8919C14.3954 13.8919 15.7239 15.5368 15.7239 16.4158C15.7239 16.5286 15.6714 16.5659 15.5357 16.5659L8.46429 16.5662Z" fill="#2E2E2E"/>
</svg>
