<svg width="24" height="24" viewBox="0 0 24 24" fill="none" xmlns="http://www.w3.org/2000/svg">
<path d="M19 15.3802V16.1618H14.8994L16.2388 17.4504L15.6675 18L13.3506 15.771L15.6675 13.542L16.2388 14.0916L14.8994 15.3802H19ZM14.2012 12.7359L13.6426 13.3038C13.266 12.9618 12.8407 12.7013 12.3667 12.5221C11.8927 12.343 11.3955 12.2534 10.875 12.2534C10.5026 12.2534 10.1429 12.3003 9.7959 12.3939C9.44889 12.4875 9.12516 12.6178 8.82471 12.7847C8.52425 12.9517 8.2513 13.1552 8.00586 13.3954C7.76042 13.6356 7.54883 13.9003 7.37109 14.1893C7.19336 14.4784 7.05583 14.7898 6.9585 15.1237C6.86117 15.4575 6.8125 15.8036 6.8125 16.1618H6C6 15.6855 6.07406 15.2193 6.22217 14.7634C6.37028 14.3074 6.58398 13.886 6.86328 13.4992C7.14258 13.1125 7.47477 12.7684 7.85986 12.4672C8.24495 12.1659 8.67448 11.9359 9.14844 11.7771C8.91146 11.6305 8.69987 11.4616 8.51367 11.2702C8.32747 11.0789 8.16667 10.8692 8.03125 10.6412C7.89583 10.4132 7.79639 10.173 7.73291 9.92061C7.66943 9.66819 7.63346 9.40356 7.625 9.12672C7.625 8.69517 7.70964 8.29008 7.87891 7.91145C8.04818 7.53282 8.27881 7.20102 8.5708 6.91603C8.86279 6.63104 9.20768 6.40712 9.60547 6.24427C10.0033 6.08142 10.4264 6 10.875 6C11.3236 6 11.7446 6.08142 12.1382 6.24427C12.5317 6.40712 12.8766 6.62901 13.1729 6.90992C13.4691 7.19084 13.7018 7.52265 13.8711 7.90534C14.0404 8.28804 14.125 8.69517 14.125 9.12672C14.125 9.68448 13.9917 10.1893 13.7251 10.6412C13.4585 11.0931 13.084 11.4718 12.6016 11.7771C12.8978 11.883 13.1792 12.0173 13.4458 12.1802C13.7124 12.343 13.9642 12.5282 14.2012 12.7359ZM8.4375 9.12672C8.4375 9.45242 8.50098 9.75573 8.62793 10.0366C8.75488 10.3176 8.92839 10.5659 9.14844 10.7817C9.36849 10.9975 9.62663 11.1664 9.92285 11.2885C10.2191 11.4107 10.5365 11.4718 10.875 11.4718C11.2093 11.4718 11.5246 11.4107 11.8208 11.2885C12.117 11.1664 12.3752 10.9995 12.5952 10.7878C12.8153 10.5761 12.9909 10.3277 13.1221 10.0427C13.2533 9.75776 13.3167 9.45242 13.3125 9.12672C13.3125 8.80509 13.249 8.50178 13.1221 8.21679C12.9951 7.93181 12.8216 7.68346 12.6016 7.47176C12.3815 7.26005 12.1213 7.09109 11.8208 6.96489C11.5203 6.83868 11.2051 6.77761 10.875 6.78168C10.5365 6.78168 10.2212 6.84275 9.9292 6.96489C9.63721 7.08702 9.37907 7.25394 9.15479 7.46565C8.9305 7.67735 8.75488 7.92774 8.62793 8.21679C8.50098 8.50585 8.4375 8.80916 8.4375 9.12672Z" fill="#2E2E2E"/>
</svg>
