<svg width="24" height="24" viewBox="0 0 24 24" fill="none" xmlns="http://www.w3.org/2000/svg">
<path d="M18.75 4.8H16.05V3.45C16.05 3.33065 16.0026 3.21619 15.9182 3.1318C15.8338 3.04741 15.7193 3 15.6 3C15.4807 3 15.3662 3.04741 15.2818 3.1318C15.1974 3.21619 15.15 3.33065 15.15 3.45V4.8H8.85V3.45C8.85 3.33065 8.80259 3.21619 8.7182 3.1318C8.63381 3.04741 8.51935 3 8.4 3C8.28065 3 8.16619 3.04741 8.0818 3.1318C7.99741 3.21619 7.95 3.33065 7.95 3.45V4.8H5.25C4.65348 4.80071 4.0816 5.038 3.6598 5.4598C3.238 5.8816 3.00071 6.45348 3 7.05V18.75C3.00071 19.3465 3.238 19.9184 3.6598 20.3402C4.0816 20.762 4.65348 20.9993 5.25 21H18.75C19.3467 21 19.919 20.7629 20.341 20.341C20.7629 19.919 21 19.3467 21 18.75V7.05C21 6.45326 20.7629 5.88097 20.341 5.45901C19.919 5.03705 19.3467 4.8 18.75 4.8ZM20.1 18.75C20.1 19.108 19.9578 19.4514 19.7046 19.7046C19.4514 19.9578 19.108 20.1 18.75 20.1H5.25C4.89196 20.1 4.54858 19.9578 4.29541 19.7046C4.04223 19.4514 3.9 19.108 3.9 18.75V11.1H20.1V18.75ZM20.1 10.2H3.9V7.05C3.9 6.3048 4.503 5.7 5.25 5.7H7.95V7.05C7.95 7.16935 7.99741 7.28381 8.0818 7.3682C8.16619 7.45259 8.28065 7.5 8.4 7.5C8.51935 7.5 8.63381 7.45259 8.7182 7.3682C8.80259 7.28381 8.85 7.16935 8.85 7.05V5.7H15.15V7.05C15.15 7.16935 15.1974 7.28381 15.2818 7.3682C15.3662 7.45259 15.4807 7.5 15.6 7.5C15.7193 7.5 15.8338 7.45259 15.9182 7.3682C16.0026 7.28381 16.05 7.16935 16.05 7.05V5.7H18.75C19.108 5.7 19.4514 5.84223 19.7046 6.09541C19.9578 6.34858 20.1 6.69196 20.1 7.05V10.2Z" fill="black"/>
</svg>
