<svg width="24" height="24" viewBox="0 0 24 24" fill="none" xmlns="http://www.w3.org/2000/svg">
<path d="M17.3141 4.53383H16.1588V3.30075C16.1588 3.1203 16.0433 3 15.87 3C15.6968 3 15.5812 3.1203 15.5812 3.30075V4.53383H12.2888V3.30075C12.2888 3.1203 12.1733 3 12 3C11.8267 3 11.7112 3.1203 11.7112 3.30075V4.53383H8.41877V3.30075C8.41877 3.1203 8.30325 3 8.12996 3C7.95668 3 7.84116 3.1203 7.84116 3.30075V4.53383H6.68592C5.213 4.53383 4 5.79699 4 7.39098V16.203C4 17.7669 5.213 19 6.68592 19H17.3141C18.787 19 20 17.7368 20 16.203V7.39098C20 5.79699 18.8159 4.53383 17.3141 4.53383ZM6.68592 5.13534H7.84116V6.3985C7.84116 6.57895 7.95668 6.69925 8.12996 6.69925C8.30325 6.69925 8.41877 6.57895 8.41877 6.3985V5.13534H11.7112V6.3985C11.7112 6.57895 11.8267 6.69925 12 6.69925C12.1733 6.69925 12.2888 6.57895 12.2888 6.3985V5.13534H15.5812V6.3985C15.5812 6.57895 15.6968 6.69925 15.87 6.69925C16.0433 6.69925 16.1588 6.57895 16.1588 6.3985V5.13534H17.3141C18.4693 5.13534 19.4224 6.12782 19.4224 7.39098V8.44361H4.57762V7.39098C4.57762 6.12782 5.50181 5.13534 6.68592 5.13534ZM17.3141 18.3985H6.68592C5.53069 18.3985 4.57762 17.406 4.57762 16.203V9.01504H19.4513V16.1729C19.4224 17.406 18.4982 18.3985 17.3141 18.3985Z" fill="black"/>
</svg>
