<svg width="24" height="24" viewBox="0 0 24 24" fill="none" xmlns="http://www.w3.org/2000/svg">
<path d="M18.4335 13.7162H15.2916C14.8751 13.7158 14.4755 13.8805 14.1803 14.1743C13.8851 14.4682 13.7185 14.867 13.717 15.2835V18.4254C13.7168 18.6322 13.7574 18.8371 13.8365 19.0282C13.9155 19.2194 14.0315 19.393 14.1777 19.5393C14.324 19.6855 14.4977 19.8015 14.6888 19.8806C14.8799 19.9596 15.0848 20.0002 15.2916 20H18.4335C18.8498 19.9983 19.2485 19.8316 19.5422 19.5364C19.8358 19.2413 20.0004 18.8417 20 18.4254V15.2835C20.0002 15.0777 19.9598 14.8739 19.8812 14.6838C19.8025 14.4936 19.6872 14.3209 19.5417 14.1754C19.3962 14.0299 19.2234 13.9145 19.0332 13.8358C18.8431 13.7572 18.6393 13.7168 18.4335 13.717M9.70838 13.7162H6.56649C6.15021 13.7186 5.75179 13.8856 5.45827 14.1808C5.16475 14.476 4.99999 14.8753 5 15.2916V18.4335C4.99979 18.6393 5.04016 18.8431 5.11881 19.0332C5.19746 19.2234 5.31283 19.3962 5.45834 19.5417C5.60384 19.6872 5.77662 19.8025 5.96677 19.8812C6.15692 19.9598 6.36071 20.0002 6.56649 20H9.70838C10.1247 20.0004 10.5242 19.8358 10.8194 19.5422C11.1146 19.2485 11.2813 18.8498 11.283 18.4335V15.2916C11.2832 15.0848 11.2426 14.8799 11.1635 14.6888C11.0845 14.4977 10.9685 14.324 10.8223 14.1777C10.676 14.0315 10.5023 13.9155 10.3112 13.8365C10.1201 13.7574 9.91522 13.7168 9.70838 13.717M9.70838 5H6.56649C6.36071 4.99979 6.15692 5.04016 5.96677 5.11881C5.77662 5.19746 5.60384 5.31283 5.45834 5.45834C5.31283 5.60384 5.19746 5.77662 5.11881 5.96677C5.04016 6.15692 4.99979 6.36071 5 6.56649V9.70838C4.99957 10.1247 5.16421 10.5242 5.45785 10.8194C5.75148 11.1146 6.15015 11.2813 6.56649 11.283H9.70838C9.91522 11.2832 10.1201 11.2426 10.3112 11.1635C10.5023 11.0845 10.676 10.9685 10.8223 10.8223C10.9685 10.676 11.0845 10.5023 11.1635 10.3112C11.2426 10.1201 11.2832 9.91522 11.283 9.70838V6.56649C11.2813 6.15015 11.1146 5.75148 10.8194 5.45785C10.5242 5.16421 10.1247 4.99957 9.70838 5ZM18.4335 5H15.2916C14.8753 4.99957 14.4758 5.16421 14.1806 5.45785C13.8854 5.75148 13.7187 6.15015 13.717 6.56649V9.70838C13.7172 10.1259 13.8832 10.5263 14.1785 10.8215C14.4737 11.1168 14.8741 11.2828 15.2916 11.283H18.4335C18.8498 11.2813 19.2485 11.1146 19.5422 10.8194C19.8358 10.5242 20.0004 10.1247 20 9.70838V6.56649C20.0002 6.36071 19.9598 6.15692 19.8812 5.96677C19.8025 5.77662 19.6872 5.60384 19.5417 5.45834C19.3962 5.31283 19.2234 5.19746 19.0332 5.11881C18.8431 5.04016 18.6393 4.99979 18.4335 5Z" stroke="#2E2E2E" stroke-linecap="round" stroke-linejoin="round"/>
</svg>
