<svg width="24" height="24" viewBox="0 0 24 24" fill="none" xmlns="http://www.w3.org/2000/svg">
<path d="M9.09945 11.0248H6.00831C4.90091 11.0248 4 10.1344 4 9.04002V5.98515C4 4.89075 4.90091 4 6.00831 4H9.09945C10.2068 4 11.1078 4.89075 11.1078 5.98515V9.04002C11.1078 10.1344 10.2068 11.0248 9.09945 11.0248ZM6.00831 5.23388C5.58949 5.23388 5.24895 5.57043 5.24895 5.98474V9.0396C5.24895 9.4535 5.58949 9.79005 6.00831 9.79005H9.09945C9.51826 9.79005 9.85881 9.4535 9.85881 9.0396V5.98474C9.85881 5.57043 9.51826 5.23388 9.09945 5.23388H6.00831Z" fill="black"/>
<path d="M17.9901 11.0248H14.8993C13.7919 11.0248 12.8906 10.1344 12.8906 9.04002V5.98515C12.8906 4.89075 13.7919 4 14.8993 4H17.9901C19.0975 4 19.9988 4.89075 19.9988 5.98515V9.04002C19.9988 10.1344 19.0975 11.0248 17.9901 11.0248ZM14.8993 5.23388C14.4801 5.23388 14.1396 5.57043 14.1396 5.98474V9.0396C14.1396 9.4535 14.4801 9.79005 14.8993 9.79005H17.9901C18.4093 9.79005 18.7499 9.4535 18.7499 9.0396V5.98474C18.7499 5.57043 18.4093 5.23388 17.9901 5.23388H14.8993Z" fill="black"/>
<path d="M9.09945 20.0013H6.00831C4.90091 20.0013 4 19.1106 4 18.0162V14.9613C4 13.8669 4.90091 12.9766 6.00831 12.9766H9.09945C10.2068 12.9766 11.1078 13.8669 11.1078 14.9613V18.0162C11.1078 19.1106 10.2068 20.0013 9.09945 20.0013ZM6.00831 14.2109C5.58949 14.2109 5.24895 14.5474 5.24895 14.9613V18.0162C5.24895 18.4305 5.58949 18.767 6.00831 18.767H9.09945C9.51826 18.767 9.85881 18.4305 9.85881 18.0162V14.9613C9.85881 14.5474 9.51826 14.2109 9.09945 14.2109H6.00831Z" fill="black"/>
<path d="M17.9901 20.0013H14.8993C13.7919 20.0013 12.8906 19.1106 12.8906 18.0162V14.9613C12.8906 13.8669 13.7919 12.9766 14.8993 12.9766H17.9901C19.0975 12.9766 19.9988 13.8669 19.9988 14.9613V18.0162C19.9988 19.1106 19.0975 20.0013 17.9901 20.0013ZM14.8993 14.2109C14.4801 14.2109 14.1396 14.5474 14.1396 14.9613V18.0162C14.1396 18.4305 14.4801 18.767 14.8993 18.767H17.9901C18.4093 18.767 18.7499 18.4305 18.7499 18.0162V14.9613C18.7499 14.5474 18.4093 14.2109 17.9901 14.2109H14.8993Z" fill="black"/>
</svg>
