<svg width="24" height="25" viewBox="0 0 24 25" fill="none" xmlns="http://www.w3.org/2000/svg">
<path fill-rule="evenodd" clip-rule="evenodd" d="M15.2354 19.2357C17.9875 19.2357 20.2091 18.069 20.2091 16.319V5.23568C20.2091 4.06901 17.9986 2.90234 15.2354 2.90234C12.4722 2.90234 10.2617 4.06901 10.2617 5.23568V9.31901C11.5549 9.89068 12.6601 10.8473 13.4449 12.0607C13.9865 12.1727 14.5833 12.2345 15.2354 12.2345C16.6833 12.2345 17.888 11.93 18.7501 11.4342C18.8725 11.3632 18.9917 11.2861 19.1071 11.2032V12.8132C19.1071 13.0873 18.9005 13.5132 18.2207 13.9052C17.562 14.2843 16.5518 14.5632 15.2365 14.5632C14.9735 14.5632 14.7229 14.5527 14.4849 14.5317C14.5734 14.9151 14.6323 15.3079 14.6618 15.71C14.8482 15.7209 15.0398 15.7263 15.2365 15.7263C16.6844 15.7263 17.8891 15.4218 18.7512 14.926C18.8736 14.855 18.9928 14.7779 19.1082 14.695V16.305C19.1082 16.5803 18.9436 16.9887 18.234 17.3923C17.5355 17.789 16.4877 18.055 15.2387 18.055C14.9845 18.055 14.7384 18.0441 14.5004 18.0223C14.4154 18.4101 14.3012 18.7901 14.1589 19.1587C14.5067 19.1999 14.8662 19.2205 15.2376 19.2205L15.2354 19.2357ZM18.2196 10.4157C18.8994 10.0237 19.106 9.59784 19.106 9.32368V7.71368C18.9918 7.79612 18.8728 7.87312 18.749 7.94468C17.8891 8.44051 16.6822 8.74501 15.2343 8.74501C13.7864 8.74501 12.5817 8.44051 11.7196 7.94468C11.5972 7.87367 11.478 7.79659 11.3626 7.71368V9.32368C11.3626 9.59784 11.5692 10.0237 12.249 10.4145C12.9077 10.7937 13.9179 11.0725 15.2332 11.0725C16.5485 11.0725 17.5542 10.7937 18.2174 10.4145L18.2196 10.4157ZM11.367 5.81901C11.367 5.48301 11.5051 5.15984 11.7627 4.96268C11.903 4.85534 12.0556 4.74801 12.176 4.68968C12.4778 4.54268 13.9887 4.06784 15.2376 4.06784C16.4866 4.06784 17.5697 4.33268 18.2992 4.68968C18.4362 4.75618 18.5877 4.86001 18.7214 4.96268C18.9767 5.15751 19.1082 5.47834 19.1082 5.81084V5.81784C19.1082 6.09201 18.9016 6.51784 18.2218 6.90984C17.5631 7.28901 16.5529 7.56784 15.2376 7.56784C13.9224 7.56784 12.9166 7.28784 12.2534 6.90984C11.5737 6.51901 11.367 6.09201 11.367 5.81901Z" fill="#2E2E2E"/>
<path fill-rule="evenodd" clip-rule="evenodd" d="M12.4728 16.3203C12.4728 19.2253 10.2512 21.5703 7.49908 21.5703C4.74697 21.5703 2.52539 19.2253 2.52539 16.3203C2.52539 13.4153 4.74697 11.0703 7.49908 11.0703C10.2512 11.0703 12.4728 13.4153 12.4728 16.3203ZM11.3675 16.3203C11.3675 18.572 9.63223 20.4036 7.49908 20.4036C5.36592 20.4036 3.63065 18.572 3.63065 16.3203C3.63065 14.0686 5.36592 12.237 7.49908 12.237C9.63223 12.237 11.3675 14.0686 11.3675 16.3203Z" fill="#2E2E2E"/>
</svg>
