<svg width="25" height="25" viewBox="0 0 25 25" fill="none" xmlns="http://www.w3.org/2000/svg">
<path d="M10.292 9.375L14.677 3.125L19.792 6.7085L17.927 9.375H10.292ZM10.292 9.375H5.8125L9.469 4.1665L12.5 6.25L10.292 9.375Z" stroke="#2E2E2E" stroke-linecap="round" stroke-linejoin="round"/>
<path d="M20.8335 9.375H4.1665C3.5915 9.375 3.125 9.8415 3.125 10.4165V20.8335C3.125 21.4085 3.5915 21.875 4.1665 21.875H20.8335C21.4085 21.875 21.875 21.4085 21.875 20.8335V10.4165C21.875 9.8415 21.4085 9.375 20.8335 9.375Z" stroke="#2E2E2E" stroke-linecap="round" stroke-linejoin="round"/>
<path d="M16.6665 13.543H21.875V17.71H16.6665C16.5297 17.71 16.3942 17.683 16.2678 17.6306C16.1414 17.5783 16.0266 17.5015 15.9299 17.4047C15.8332 17.308 15.7564 17.1931 15.7041 17.0667C15.6518 16.9403 15.6249 16.8048 15.625 16.668V14.585C15.625 14.3087 15.7347 14.0437 15.93 13.8483C16.1253 13.6529 16.3902 13.5431 16.6665 13.543Z" stroke="#2E2E2E" stroke-linecap="round" stroke-linejoin="round"/>
</svg>
