<svg width="24" height="24" viewBox="0 0 24 24" fill="none" xmlns="http://www.w3.org/2000/svg">
<path d="M19.4386 5.78125H4.55859C3.89612 5.7831 3.26131 6.04708 2.79287 6.51552C2.32443 6.98396 2.06044 7.61878 2.05859 8.28125V15.7213C2.06227 16.3832 2.32684 17.0169 2.79489 17.485C3.26293 17.953 3.89669 18.2176 4.55859 18.2212H19.4386C20.1011 18.2194 20.7359 17.9554 21.2043 17.487C21.6728 17.0185 21.9367 16.3837 21.9386 15.7213V8.28125C21.9386 7.95294 21.8739 7.62786 21.7483 7.32454C21.6227 7.02123 21.4385 6.74563 21.2064 6.51348C20.9742 6.28134 20.6986 6.09719 20.3953 5.97155C20.092 5.84591 19.7669 5.78125 19.4386 5.78125ZM3.05859 8.28125C3.05859 7.88342 3.21663 7.50189 3.49793 7.22059C3.77924 6.93929 4.16077 6.78125 4.55859 6.78125H6.03859C5.92989 7.53299 5.58094 8.22941 5.04384 8.7665C4.50675 9.30359 3.81034 9.65255 3.05859 9.76125V8.28125ZM4.55859 17.2212C4.16158 17.2186 3.78157 17.0598 3.50083 16.779C3.22009 16.4983 3.06121 16.1183 3.05859 15.7213V14.2412C3.81034 14.35 4.50675 14.6989 5.04384 15.236C5.58094 15.7731 5.92989 16.4695 6.03859 17.2212H4.55859ZM20.9386 15.7213C20.9386 16.1191 20.7806 16.5006 20.4993 16.7819C20.2179 17.0632 19.8364 17.2212 19.4386 17.2212H17.9586C18.0673 16.4695 18.4163 15.7731 18.9533 15.236C19.4904 14.6989 20.1869 14.35 20.9386 14.2412V15.7213ZM20.9386 13.2312C19.9202 13.3469 18.9712 13.8044 18.2465 14.5291C17.5218 15.2538 17.0642 16.2029 16.9486 17.2212H7.04859C6.93296 16.2029 6.47542 15.2538 5.75071 14.5291C5.026 13.8044 4.07695 13.3469 3.05859 13.2312V10.7713C4.07695 10.6556 5.026 10.1981 5.75071 9.47337C6.47542 8.74865 6.93296 7.79961 7.04859 6.78125H16.9486C17.0642 7.79961 17.5218 8.74865 18.2465 9.47337C18.9712 10.1981 19.9202 10.6556 20.9386 10.7713V13.2312ZM20.9386 9.76125C20.1869 9.65255 19.4904 9.30359 18.9533 8.7665C18.4163 8.22941 18.0673 7.53299 17.9586 6.78125H19.4386C19.8364 6.78125 20.2179 6.93929 20.4993 7.22059C20.7806 7.50189 20.9386 7.88342 20.9386 8.28125V9.76125Z" fill="#2E2E2E"/>
<path d="M12.0039 13.9961C13.1085 13.9961 14.0039 13.1007 14.0039 11.9961C14.0039 10.8915 13.1085 9.99609 12.0039 9.99609C10.8993 9.99609 10.0039 10.8915 10.0039 11.9961C10.0039 13.1007 10.8993 13.9961 12.0039 13.9961Z" fill="#2E2E2E"/>
</svg>
