<svg width="25" height="25" viewBox="0 0 25 25" fill="none" xmlns="http://www.w3.org/2000/svg">
<path fill-rule="evenodd" clip-rule="evenodd" d="M6.96356 9.18612H5.7331C5.57946 9.18612 5.4551 9.31134 5.4551 9.46672V13.2474C5.45576 13.3215 5.48505 13.3917 5.53648 13.4441C5.58792 13.4979 5.65953 13.528 5.7331 13.528H6.96356C7.1159 13.5241 7.23829 13.4008 7.24155 13.2474V9.46672C7.24155 9.39198 7.21161 9.32052 7.15822 9.26807C7.10679 9.21628 7.03648 9.18677 6.96356 9.18612ZM13.1172 9.92431H19.252C19.6641 9.92627 19.9981 10.2626 20 10.6782V17.6748C19.998 18.0904 19.6641 18.4267 19.252 18.4287H18.5352V19.7713C18.5352 19.8179 18.5208 19.8638 18.4948 19.9025C18.4238 20.0054 18.2826 20.0309 18.1797 19.9595L15.9681 18.4287H9.01494C8.60218 18.428 8.2682 18.0904 8.2682 17.6748V13.4291H8.15817H7.66664C7.63409 13.5563 7.56704 13.6724 7.47328 13.7648C7.33721 13.9038 7.15102 13.9818 6.95635 13.9812H5.73306C5.33006 13.9812 5.0026 13.6534 5 13.2476V9.46683C5 9.0584 5.32813 8.72799 5.73306 8.72799H6.96352C7.15753 8.72799 7.34306 8.80601 7.4798 8.94434C7.52602 8.99023 7.56508 9.04268 7.59633 9.09906C7.63474 9.0571 7.67315 9.01318 7.70961 8.96991H7.71026C7.83201 8.81323 7.93748 8.64474 8.02471 8.46642C8.05401 8.40807 8.08721 8.35169 8.12497 8.29859C8.16403 8.24417 8.207 8.19304 8.25322 8.14584C8.44659 7.94457 8.65687 7.7197 8.88017 7.47451C9.10347 7.22933 9.3333 6.96249 9.57678 6.68584C9.60933 6.64716 9.63602 6.60324 9.6549 6.55604C9.67183 6.50949 9.68029 6.46032 9.67964 6.41049C9.65946 6.07287 9.7122 5.73524 9.83329 5.41991C9.98824 5.11637 10.25 4.94854 10.6985 5.01409C10.8717 5.04032 11.0377 5.09998 11.1881 5.19045C11.4622 5.36812 11.6516 5.65068 11.7135 5.97257C11.776 6.2984 11.776 6.63341 11.7135 6.95923C11.6393 7.40306 11.5051 7.83511 11.315 8.24287H12.3782C12.8521 8.24418 13.2356 8.63032 13.2369 9.10758C13.2297 9.28787 13.1822 9.46488 13.0982 9.62418C13.0702 9.68319 13.0377 9.73891 12.9999 9.79201C13.0383 9.83463 13.0735 9.87986 13.1047 9.92838L13.1172 9.92431ZM8.72138 13.5563V17.6747C8.72333 17.8373 8.85354 17.9684 9.01499 17.9704H16.0364C16.0892 17.9704 16.1399 17.9887 16.1797 18.0222L18.0813 19.3399V18.2071C18.0813 18.0812 18.1829 17.9789 18.3085 17.9789H19.2519C19.4127 17.9769 19.5429 17.8458 19.5449 17.6832V10.6783C19.5429 10.5157 19.4127 10.3846 19.2519 10.3827H13.2519C13.2428 10.6134 13.1536 10.8337 13 11.0055C12.9499 11.0625 12.8939 11.1136 12.8333 11.1582L12.8581 11.1949C12.9414 11.3306 12.9857 11.4873 12.987 11.6466C12.9818 11.8767 12.8971 12.0977 12.748 12.2727C12.7005 12.3357 12.6445 12.392 12.5814 12.4406C12.5814 12.4537 12.5996 12.4674 12.6061 12.4805H12.6068C12.6881 12.6149 12.7318 12.7697 12.7318 12.927C12.7305 13.4043 12.347 13.7904 11.8731 13.7917H9.7064C9.53257 13.7839 9.35941 13.7616 9.18817 13.7262C9.03518 13.6927 8.88609 13.6409 8.74481 13.5714H8.73179L8.72138 13.5563ZM8.53843 13.0043H8.5534C8.68491 13.0364 8.81187 13.0843 8.93165 13.1472C9.03777 13.1984 9.14975 13.2364 9.26498 13.2613C9.41016 13.2928 9.55794 13.3118 9.70638 13.3183H11.8567C11.9635 13.3183 12.0663 13.2757 12.1418 13.199C12.218 13.123 12.261 13.0201 12.2616 12.9119C12.2616 12.8378 12.2414 12.7657 12.203 12.7021C12.1659 12.6411 12.1138 12.5906 12.0513 12.5559C11.9791 12.5198 11.9303 12.4477 11.9231 12.3664C11.9185 12.3061 11.9381 12.2458 11.9778 12.1999C12.0168 12.154 12.0728 12.1258 12.1334 12.1212C12.2349 12.1068 12.3274 12.0524 12.3899 11.9705C12.4713 11.8774 12.5175 11.7587 12.5201 11.6348C12.5201 11.5601 12.4993 11.4866 12.4602 11.423C12.4211 11.3601 12.3665 11.3083 12.3014 11.2742C12.2076 11.2296 12.1555 11.1267 12.175 11.0238C12.1946 10.9215 12.2812 10.8448 12.3847 10.8396C12.4934 10.8369 12.5956 10.7891 12.6666 10.7065C12.7486 10.614 12.7948 10.4947 12.7968 10.3708C12.7961 10.3262 12.789 10.281 12.7747 10.2384C12.774 10.2312 12.774 10.224 12.7747 10.2168C12.7668 10.1951 12.7564 10.1748 12.7434 10.1564C12.7024 10.0909 12.6451 10.0378 12.5767 10.0037C12.5338 9.98271 12.498 9.94927 12.4752 9.90797C12.4159 9.79718 12.4569 9.65884 12.5663 9.5992C12.6327 9.54937 12.6848 9.48381 12.718 9.40777C12.7694 9.31336 12.7994 9.20847 12.8046 9.1003C12.7981 8.99213 12.7486 8.89117 12.6666 8.82036C12.5911 8.74366 12.4888 8.70039 12.3814 8.69973H10.9433C10.8606 8.70039 10.7838 8.65515 10.7441 8.58238C10.7037 8.50961 10.707 8.42045 10.7519 8.35031C11.0123 7.89926 11.1894 7.40364 11.2747 6.88835C11.3261 6.62021 11.3261 6.34486 11.2747 6.07608C11.2408 5.87088 11.1243 5.68928 10.9531 5.57259C10.8548 5.51424 10.746 5.47622 10.6334 5.46049C10.4251 5.42705 10.3098 5.49261 10.2486 5.61652H10.248C10.1588 5.86957 10.1217 6.13837 10.138 6.40715C10.138 6.51139 10.1197 6.61497 10.0833 6.71265C10.0449 6.81099 9.98822 6.90146 9.9166 6.97947C9.6666 7.2699 9.43157 7.53475 9.21479 7.7747C8.99799 8.01465 8.78316 8.25131 8.57808 8.47291C8.54748 8.50307 8.51949 8.5365 8.49475 8.5719C8.47001 8.60731 8.44787 8.64402 8.42834 8.6827C8.32743 8.88921 8.20438 9.08391 8.06181 9.26354C7.95178 9.39925 7.82875 9.52447 7.69528 9.63593V12.9677H8.16663C8.29423 12.967 8.42182 12.9808 8.54682 13.0077L8.53843 13.0043ZM14.9797 12.39H18.1347C18.2603 12.39 18.3619 12.2878 18.3619 12.1619C18.3619 12.036 18.2603 11.9337 18.1347 11.9337H14.9797C14.8547 11.9337 14.7531 12.036 14.7531 12.1619C14.7531 12.2878 14.8547 12.39 14.9797 12.39ZM13.4211 14.404H18.1346C18.2531 14.3935 18.3436 14.2945 18.3436 14.1752C18.3436 14.0559 18.2531 13.9562 18.1346 13.9457H13.4218C13.3033 13.9562 13.2128 14.0559 13.2128 14.1752C13.2128 14.2945 13.3033 14.3935 13.4218 14.404H13.4211ZM10.1328 16.418H18.1334C18.2584 16.418 18.36 16.3157 18.36 16.1898C18.36 16.0639 18.2584 15.9617 18.1334 15.9617H10.1335C10.0085 15.9617 9.90692 16.0639 9.90692 16.1898C9.90692 16.3157 10.0085 16.418 10.1335 16.418H10.1328Z" fill="black"/>
</svg>
