<svg width="24" height="24" viewBox="0 0 24 24" fill="none" xmlns="http://www.w3.org/2000/svg">
<path fill-rule="evenodd" clip-rule="evenodd" d="M6.52176 5.73563C5.00935 5.73563 3.78249 6.88908 3.78249 8.31126V14.1548C3.78249 15.1841 4.66979 16.0184 5.76447 16.0184C6.17436 16.0184 6.5686 16.1692 6.86306 16.4369L8.86753 18.2646L10.3829 16.6439C10.7546 16.2465 11.2897 16.0184 11.8522 16.0184H17.4783C18.9907 16.0184 20.2176 14.8659 20.2176 13.4428V8.31104C20.2176 6.88898 18.9908 5.73541 17.4783 5.73541L6.52176 5.73563ZM3.00013 8.31126C3.00013 6.48265 4.5771 5 6.52176 5H17.4784C19.4232 5 21 6.48277 21 8.31126V13.443C21 15.2725 19.423 16.7542 17.4784 16.7542H11.8523C11.5148 16.7542 11.1939 16.8913 10.9709 17.1295L9.45555 18.7503C9.16011 19.0657 8.64456 19.0851 8.32273 18.7926L6.31826 16.9658C6.16956 16.8306 5.97098 16.7542 5.76457 16.7542C4.23748 16.7542 3 15.5907 3 14.1548L3.00013 8.31126ZM16.2898 12.5425C16.2898 13.1523 15.7635 13.6463 15.1159 13.6463H11.9346C11.4004 13.6463 10.8878 13.4531 10.5014 13.1073C10.3341 12.9573 10.2392 12.7495 10.2392 12.5324V10.7525C10.2392 10.3809 10.4378 10.0341 10.7675 9.82993C11.0326 9.6662 11.2419 9.45463 11.331 9.15937L11.6489 8.10248C11.7418 7.79067 12.0451 7.57542 12.3894 7.57542C12.814 7.57542 13.1593 7.8992 13.1593 8.29932V9.41507C13.1593 9.71954 13.4215 9.96698 13.7463 9.96698H15.1159C15.7635 9.96698 16.2898 10.4609 16.2898 11.0708L16.2898 12.5425ZM15.1159 14.3822C16.1959 14.3822 17.0724 13.5589 17.0724 12.5425V11.0708C17.0724 10.0544 16.1959 9.23114 15.1159 9.23114H13.9419V8.29936C13.9419 7.49267 13.2464 6.83961 12.3894 6.83961C11.6949 6.83961 11.0844 7.27377 10.8956 7.902L10.5777 8.95888C10.5405 9.08214 10.4437 9.14929 10.3371 9.21551C10.2206 9.28817 10.114 9.37096 10.0181 9.46294C9.73055 8.99475 9.19248 8.67926 8.57619 8.67926C7.65758 8.67926 6.91314 9.37925 6.91314 10.243V13.1864C6.91314 14.0501 7.65761 14.7501 8.57619 14.7501C9.27468 14.7501 9.87239 14.3454 10.1189 13.7714C10.6286 14.1651 11.2704 14.3822 11.9346 14.3822L15.1159 14.3822ZM8.57622 14.0142C8.09002 14.0142 7.69579 13.6436 7.69579 13.1864V10.243C7.69579 9.7858 8.09002 9.41512 8.57622 9.41512C9.06242 9.41512 9.45666 9.7858 9.45666 10.243V13.1864C9.45666 13.6436 9.06242 14.0142 8.57622 14.0142Z" fill="black"/>
</svg>
