<svg width="25" height="25" viewBox="0 0 25 25" fill="none" xmlns="http://www.w3.org/2000/svg">
<path d="M12.0004 4C7.58763 4 4 7.58725 4 12C4 16.4128 7.58834 20 12.0004 20C16.4131 20 20 16.4128 20 12C20 7.58725 16.4129 4 12.0004 4ZM12.0004 4.94098C15.9045 4.94098 19.0592 8.0958 19.0592 12.0001C19.0592 15.9044 15.9045 19.0593 12.0004 19.0593C8.09621 19.0593 4.94152 15.9044 4.94152 12.0001C4.94152 8.0958 8.09621 4.94098 12.0004 4.94098ZM11.9808 8.0595C11.5973 8.06928 11.2858 8.38712 11.2858 8.77275C11.2858 9.16464 11.6071 9.48809 11.999 9.48809C12.3908 9.48809 12.7129 9.16534 12.7129 8.77275C12.7129 8.38085 12.3908 8.0595 11.999 8.0595H11.9808ZM12.0004 10.0791C11.8746 10.0784 11.7545 10.128 11.6658 10.2167C11.577 10.3054 11.5274 10.4263 11.5274 10.5513V15.4671C11.5274 15.5922 11.577 15.713 11.6658 15.8017C11.7545 15.8905 11.8746 15.9401 12.0004 15.9394C12.1247 15.9387 12.2442 15.8891 12.3322 15.8004C12.4202 15.7116 12.4691 15.5922 12.4691 15.4671V10.5513C12.4691 10.427 12.4202 10.3068 12.3322 10.2181C12.2442 10.1294 12.1247 10.0798 12.0004 10.0791Z" fill="black"/>
</svg>
