<svg width="24" height="24" viewBox="0 0 24 24" fill="none" xmlns="http://www.w3.org/2000/svg">
<path d="M12 3C9.61305 3 7.32387 3.94821 5.63604 5.63604C3.94821 7.32387 3 9.61305 3 12C3 14.3869 3.94821 16.6761 5.63604 18.364C7.32387 20.0518 9.61305 21 12 21C14.3869 21 16.6761 20.0518 18.364 18.364C20.0518 16.6761 21 14.3869 21 12C21 9.61305 20.0518 7.32387 18.364 5.63604C16.6761 3.94821 14.3869 3 12 3ZM12 3.94737C14.1357 3.94737 16.1839 4.79577 17.6941 6.30593C19.2042 7.81609 20.0526 9.86431 20.0526 12C20.0526 14.1357 19.2042 16.1839 17.6941 17.6941C16.1839 19.2042 14.1357 20.0526 12 20.0526C10.9425 20.0526 9.89538 19.8443 8.91839 19.4397C7.9414 19.035 7.05368 18.4418 6.30593 17.6941C5.55817 16.9463 4.96502 16.0586 4.56034 15.0816C4.15566 14.1046 3.94737 13.0575 3.94737 12C3.94737 9.86431 4.79577 7.81609 6.30593 6.30593C7.81609 4.79577 9.86431 3.94737 12 3.94737ZM12.4737 7.73684V9.63158H11.5263V7.73684H12.4737ZM12.4737 11.5263V16.2632H11.5263V11.5263H12.4737Z" fill="black"/>
</svg>
