<svg width="25" height="25" viewBox="0 0 25 25" fill="none" xmlns="http://www.w3.org/2000/svg">
<path d="M10.4687 5C8.84374 5 7.5 6.31249 7.5 7.93747C7.5 9.56245 8.81249 11.4999 10.4687 11.4999C12.125 11.4999 13.4374 9.56245 13.4374 7.93747C13.4687 6.31249 12.125 5 10.4687 5ZM10.4687 10.8749C9.21873 10.8749 8.12499 9.24996 8.12499 7.93747C8.12499 6.65623 9.18748 5.62499 10.4687 5.62499C11.75 5.62499 12.8124 6.65623 12.8124 7.93747C12.8437 9.24996 11.75 10.8749 10.4687 10.8749Z" fill="black"/>
<path d="M5 19.6874C5 19.8749 5.125 19.9999 5.3125 19.9999H15.6561C15.8436 19.9999 15.9686 19.8749 15.9686 19.6874V18.9999C16.0936 18.9999 16.2186 19.0312 16.3436 19.0312C18.3749 19.0312 19.9998 17.3749 19.9998 15.375C19.9998 13.375 18.3436 11.7188 16.3436 11.7188C15.6249 11.7188 14.9374 11.9375 14.3749 12.3125C13.9999 12.1562 13.6249 12.0625 13.2187 12.0625H7.74997C6.24999 12.0625 5 13.2812 5 14.7812V19.6874ZM16.3436 12.3125C18.0311 12.3125 19.3749 13.6875 19.3749 15.3437C19.3749 16.9999 17.9999 18.3749 16.3436 18.3749C14.6562 18.3749 13.3124 16.9999 13.3124 15.3437C13.3124 13.6875 14.6562 12.3125 16.3436 12.3125ZM12.0312 12.6562C11.9687 12.7187 11.5937 13.6562 10.4999 13.6562C9.40621 13.6562 9.03121 12.7187 8.96871 12.6562H12.0312ZM10.6249 14.2812L11.4999 16.9999L10.4999 18.2187L9.49995 16.9999L10.3749 14.2812C10.4062 14.2812 10.4687 14.2812 10.4999 14.2812C10.5312 14.2812 10.5624 14.2812 10.6249 14.2812ZM5.62499 14.7187C5.62499 13.5625 6.56248 12.625 7.74997 12.625H8.24997C8.24997 12.7812 8.31247 12.8125 8.56246 13.2187C8.84371 13.6562 9.24996 13.9687 9.7187 14.125L8.81246 16.9374C8.78121 17.0312 8.81246 17.1562 8.87496 17.2187L10.2187 18.8749C10.2812 18.9374 10.3749 18.9999 10.4687 18.9999C10.5624 18.9999 10.6562 18.9687 10.7187 18.8749L12.0624 17.2187C12.1249 17.1249 12.1562 17.0312 12.1249 16.9374L11.2187 14.125C12.1874 13.7812 12.4687 13 12.6562 12.7812C12.6874 12.7187 12.6874 12.6875 12.6874 12.625C13.0624 12.625 13.3437 12.5937 13.7812 12.7187C13.0937 13.375 12.6562 14.3125 12.6562 15.3437C12.6562 16.9999 13.7812 18.4062 15.3124 18.8749V19.3749H5.62499V14.7187Z" fill="black"/>
<path d="M14.0937 15.625L15.4062 16.9375C15.4687 17 15.5625 17.0312 15.625 17.0312C15.6875 17.0312 15.7812 17 15.8437 16.9375L18.5937 14.1875C18.7187 14.0625 18.7187 13.875 18.5937 13.75C18.4687 13.625 18.2812 13.625 18.1562 13.75L15.625 16.2812L14.5312 15.1875C14.4062 15.0625 14.2187 15.0625 14.0937 15.1875C13.9688 15.3125 13.9688 15.5 14.0937 15.625Z" fill="black"/>
</svg>
