<svg width="24" height="24" viewBox="0 0 24 24" fill="none" xmlns="http://www.w3.org/2000/svg">
<path d="M20.093 11.3466C20.093 9.68812 19.5192 8.09481 18.4659 6.78198L18.2376 8.19903C18.2083 8.37749 18.0441 8.50582 17.8572 8.50582C17.8385 8.50582 17.819 8.5043 17.7995 8.50202C17.589 8.47241 17.4436 8.28862 17.4753 8.0927L17.832 5.87608C17.8337 5.86545 17.8418 5.8571 17.8442 5.84723C17.8532 5.81381 17.8653 5.78268 17.884 5.75154C17.8946 5.73408 17.9068 5.71965 17.9214 5.7037C17.932 5.69155 17.9377 5.67712 17.9507 5.66649C17.9629 5.65586 17.9783 5.65206 17.9913 5.64371C18.0027 5.63611 18.0092 5.62396 18.0214 5.61789C18.0311 5.61257 18.0433 5.61333 18.0531 5.60877C18.0807 5.59738 18.1075 5.58979 18.136 5.58447C18.1612 5.57916 18.1839 5.57384 18.2099 5.57384C18.2376 5.57384 18.2636 5.57992 18.2904 5.58523C18.3115 5.58903 18.3343 5.58675 18.3546 5.59435L20.7553 6.47524C20.9536 6.54738 21.0511 6.75697 20.9731 6.9415C20.8959 7.12679 20.6716 7.21717 20.4741 7.14503L19.3713 6.74103C20.336 8.09884 20.8626 9.69212 20.8626 11.3467C20.8626 14.0007 19.5574 16.437 17.281 18.0302C17.2119 18.0788 17.1306 18.1016 17.0502 18.1016C16.9323 18.1016 16.8177 18.0515 16.7413 17.9573C16.6137 17.7978 16.6487 17.573 16.8185 17.453C18.8982 15.9973 20.0912 13.7714 20.0912 11.346L20.093 11.3466ZM11.9326 3.72067C13.2004 3.72067 14.4146 3.98419 15.5427 4.50514C15.7345 4.59399 15.9653 4.51957 16.0587 4.34187C16.153 4.16341 16.075 3.94699 15.884 3.85964C14.6487 3.28933 13.32 3 11.9319 3C8.48757 3 5.43108 4.80586 3.93976 7.60956L3.76666 6.53349C3.73496 6.33681 3.53828 6.20391 3.3286 6.23048C3.11812 6.2601 2.97265 6.44388 3.00433 6.63981L3.38875 9.02361C3.39038 9.03652 3.40013 9.04564 3.40338 9.05779C3.41313 9.09272 3.42451 9.12537 3.44483 9.15575C3.45539 9.1717 3.4684 9.18461 3.48221 9.19904C3.50416 9.22334 3.52691 9.2446 3.55617 9.26283C3.5643 9.26814 3.56999 9.27725 3.57893 9.28257C3.59924 9.2932 3.62119 9.30004 3.64313 9.30763C3.64882 9.30915 3.65207 9.3137 3.65776 9.31446C3.6602 9.31522 3.66263 9.31446 3.66507 9.31522C3.70002 9.32434 3.73578 9.33041 3.77235 9.33041C3.81786 9.33041 3.86175 9.3213 3.90319 9.30687C3.90644 9.30611 3.90969 9.30611 3.91295 9.30535L6.14617 8.48597C6.34447 8.41307 6.442 8.20424 6.36398 8.01971C6.28596 7.83365 6.06004 7.74404 5.86499 7.81618L4.43626 8.34092C5.70976 5.54945 8.62413 3.71989 11.9351 3.71989L11.9326 3.72067ZM14.1895 19.1046C14.1879 19.0894 14.1919 19.075 14.1887 19.0598C14.1846 19.0439 14.1741 19.0317 14.1684 19.0173C14.1611 18.9975 14.1529 18.9793 14.1416 18.9611C14.1237 18.933 14.1025 18.9087 14.0774 18.8859C14.0676 18.8775 14.0635 18.8654 14.053 18.857L12.1773 17.4597C12.0115 17.336 11.7685 17.3618 11.636 17.5167C11.5035 17.6724 11.5312 17.8987 11.6969 18.0225L12.8981 18.917C12.5787 18.952 12.2561 18.971 11.9326 18.971C7.6919 18.971 4.19892 15.9995 3.80716 12.0596C3.78684 11.8614 3.59586 11.7149 3.38781 11.7346C3.1757 11.7536 3.02048 11.929 3.03997 12.1265C3.46908 16.4392 7.29213 19.6908 11.9334 19.6908C12.1138 19.6908 12.2942 19.6847 12.4746 19.6748L11.5571 20.3583C11.3905 20.4828 11.3636 20.7091 11.4961 20.8641C11.5725 20.9537 11.6847 21 11.7976 21C11.8813 21 11.9667 20.9742 12.0374 20.9218L14.0537 19.4189C14.0651 19.4106 14.0699 19.3969 14.0805 19.387C14.1065 19.3627 14.1301 19.3384 14.1471 19.3088C14.1569 19.2921 14.1626 19.2739 14.1691 19.2557C14.1805 19.2268 14.1886 19.1972 14.191 19.1653C14.1918 19.1554 14.1983 19.1471 14.1983 19.1372C14.1983 19.125 14.191 19.1152 14.1902 19.103L14.1895 19.1046ZM17.0096 11.2813C17.0096 13.8617 14.7625 15.9615 12.001 15.9615C9.23954 15.9615 6.99237 13.8617 6.99237 11.2813C6.99237 8.70097 9.23954 6.60119 12.001 6.60119C14.7625 6.60119 17.0096 8.70097 17.0096 11.2813ZM16.2392 11.2813C16.2392 9.09814 14.3375 7.32107 12.001 7.32107C9.66448 7.32107 7.76276 9.09806 7.76276 11.2813C7.76276 13.4646 9.66448 15.2416 12.001 15.2416C14.3375 15.2416 16.2392 13.4646 16.2392 11.2813ZM12.3861 11.1325V9.12154C12.3861 8.92259 12.2138 8.76158 12.0009 8.76158C11.7879 8.76158 11.6156 8.92257 11.6156 9.12154V11.2812C11.6156 11.3769 11.6563 11.4688 11.7286 11.5356L13.6547 13.3354C13.7295 13.4052 13.8286 13.4409 13.927 13.4409C14.0253 13.4409 14.1244 13.406 14.1992 13.3354C14.3496 13.1949 14.3496 12.9671 14.1992 12.8266L12.3861 11.1325Z" fill="black"/>
</svg>
