<svg width="24" height="24" viewBox="0 0 24 24" fill="none" xmlns="http://www.w3.org/2000/svg">
<g clip-path="url(#clip0_594_15216)">
<path d="M3.01805 17.4751C3.05997 17.3264 3.15798 17.1998 3.29141 17.122C3.42484 17.0442 3.58328 17.0212 3.73334 17.0579L5.21756 17.4572C4.40538 16.26 3.91292 14.8749 3.78698 13.4337C3.66524 12.0853 3.8624 10.7272 4.36253 9.46913C4.86267 8.21102 5.65175 7.08822 6.66602 6.19143C6.78327 6.09446 6.93316 6.046 7.08499 6.05597C7.23682 6.06594 7.37908 6.1336 7.48264 6.24508C7.58683 6.36371 7.63971 6.51884 7.62965 6.67641C7.61959 6.83398 7.54743 6.98112 7.42899 7.08554C6.55501 7.85701 5.87506 8.82351 5.44425 9.90675C5.01344 10.99 4.84389 12.1595 4.94933 13.3205C5.05168 14.5433 5.46179 15.7203 6.14147 16.7419L6.29049 15.2458C6.27925 15.1577 6.28782 15.0683 6.31557 14.984C6.34332 14.8997 6.38955 14.8226 6.45089 14.7584C6.51222 14.6943 6.58712 14.6446 6.6701 14.6131C6.75307 14.5816 6.84205 14.569 6.93051 14.5762C7.01898 14.5835 7.10471 14.6104 7.18144 14.6551C7.25817 14.6997 7.32397 14.7609 7.37403 14.8342C7.42408 14.9075 7.45713 14.991 7.47077 15.0788C7.4844 15.1665 7.47828 15.2561 7.45284 15.3412L7.1548 19.1799L3.42934 18.1904C3.28177 18.1472 3.15658 18.0487 3.07993 17.9154C3.00329 17.7821 2.98112 17.6244 3.01805 17.4751Z" fill="#2E2E2E"/>
<path d="M20.4099 11.9982C20.3303 12.0485 20.2409 12.081 20.1476 12.0936C19.9921 12.114 19.8347 12.0722 19.7098 11.9774C19.5848 11.8825 19.5022 11.7422 19.48 11.5869C19.2337 9.7684 18.3096 8.11004 16.8925 6.94393C15.4755 5.77783 13.6703 5.19007 11.8384 5.29836L13.1736 6.21035C13.2681 6.28152 13.3392 6.37919 13.378 6.49093C13.4168 6.60266 13.4215 6.72342 13.3914 6.83782C13.3614 6.95222 13.298 7.0551 13.2093 7.13337C13.1206 7.21163 13.0107 7.26174 12.8934 7.27732C12.7591 7.2896 12.6247 7.25598 12.5119 7.18195L9.33487 5.00032L12.053 2.2703C12.1013 2.19619 12.1656 2.13378 12.2411 2.08759C12.3166 2.04141 12.4014 2.01262 12.4894 2.00331C12.5774 1.994 12.6664 2.0044 12.7499 2.03376C12.8334 2.06313 12.9093 2.11071 12.9721 2.17307C13.0349 2.23542 13.083 2.31098 13.113 2.39425C13.143 2.47752 13.154 2.56643 13.1453 2.6545C13.1367 2.74258 13.1085 2.82761 13.0629 2.90344C13.0172 2.97927 12.9553 3.04398 12.8815 3.09289L11.8682 4.10621C13.9837 4.00505 16.0604 4.70071 17.6881 6.05585C19.3158 7.41099 20.3763 9.32713 20.6603 11.426C20.6755 11.5352 20.6602 11.6465 20.616 11.7475C20.5718 11.8485 20.5005 11.9353 20.4099 11.9982Z" fill="#2E2E2E"/>
<path d="M10.0255 19.6511C10.9563 19.9484 11.9382 20.0518 12.9105 19.9551C14.0947 19.839 15.2328 19.4364 16.2267 18.7822C17.2205 18.1279 18.0402 17.2416 18.6149 16.1998L17.1307 16.7541C16.9939 16.7779 16.8531 16.7531 16.7326 16.6841C16.6121 16.6151 16.5195 16.5062 16.4707 16.3761C16.422 16.2461 16.4201 16.1032 16.4655 15.9719C16.5109 15.8407 16.6007 15.7294 16.7194 15.6574L19.4554 14.644L20.3316 14.3281L20.9933 18.1132C21.0162 18.2644 20.9801 18.4187 20.8924 18.5441C20.8048 18.6695 20.6723 18.7564 20.5224 18.7868H20.421C20.2807 18.7893 20.144 18.7423 20.035 18.654C19.926 18.5656 19.8516 18.4417 19.825 18.3039L19.5746 16.8734C18.9004 18.0543 17.9535 19.0569 16.8128 19.7973C15.6722 20.5377 14.371 20.9944 13.0178 21.1293C11.8865 21.2416 10.7442 21.1199 9.66191 20.7717C9.5241 20.7146 9.4127 20.608 9.34969 20.4728C9.28667 20.3376 9.27664 20.1837 9.32155 20.0415C9.36646 19.8992 9.46307 19.779 9.59229 19.7045C9.72151 19.63 9.87397 19.6067 10.0196 19.6391L10.0255 19.6511Z" fill="#2E2E2E"/>
<path d="M9.86581 9.55469H14.6344C14.7925 9.55469 14.9441 9.61749 15.0559 9.72927C15.1677 9.84106 15.2305 9.99267 15.2305 10.1508V14.9193C15.2305 15.0774 15.1677 15.229 15.0559 15.3408C14.9441 15.4526 14.7925 15.5154 14.6344 15.5154H9.86581C9.70772 15.5154 9.55611 15.4526 9.44432 15.3408C9.33254 15.229 9.26974 15.0774 9.26974 14.9193V10.1508C9.26974 9.99267 9.33254 9.84106 9.44432 9.72927C9.55611 9.61749 9.70772 9.55469 9.86581 9.55469ZM10.4619 14.3233H14.0383V10.7468H10.4619V14.3233Z" fill="#2E2E2E"/>
</g>
<defs>
<clipPath id="clip0_594_15216">
<rect width="24" height="24" fill="white" transform="matrix(-1 0 0 1 24 0)"/>
</clipPath>
</defs>
</svg>
