<svg width="24" height="24" viewBox="0 0 24 24" fill="none" xmlns="http://www.w3.org/2000/svg">
<path d="M20.8587 16.2885V17.3959H15.2699L17.0953 19.2214L16.3167 20L13.1589 16.8422L16.3167 13.6845L17.0953 14.4631L15.2699 16.2885H20.8587ZM14.3182 12.5425L13.5569 13.3471C13.0436 12.8626 12.464 12.4935 11.818 12.2397C11.172 11.9859 10.4943 11.859 9.7849 11.859C9.27735 11.859 8.78711 11.9254 8.31416 12.058C7.84122 12.1907 7.4 12.3752 6.9905 12.6117C6.581 12.8482 6.20899 13.1366 5.87447 13.4768C5.53995 13.8171 5.25157 14.192 5.00933 14.6015C4.76709 15.011 4.57964 15.4522 4.44699 15.9252C4.31433 16.3981 4.248 16.8884 4.248 17.3959H3.14062C3.14062 16.7211 3.24156 16.0607 3.44342 15.4148C3.64529 14.7688 3.93655 14.1718 4.31722 13.6239C4.69788 13.076 5.15063 12.5886 5.67549 12.1618C6.20034 11.735 6.78575 11.4092 7.43172 11.1842C7.10873 10.9766 6.82035 10.7372 6.56658 10.4662C6.3128 10.1951 6.09364 9.89805 5.90907 9.57506C5.72451 9.25208 5.58897 8.91179 5.50246 8.5542C5.41594 8.19661 5.36692 7.82171 5.35538 7.42952C5.35538 6.81815 5.47074 6.24427 5.70144 5.70789C5.93214 5.1715 6.24648 4.70144 6.64444 4.29771C7.04241 3.89398 7.51247 3.57676 8.05462 3.34606C8.59677 3.11535 9.17353 3 9.7849 3C10.3963 3 10.9701 3.11535 11.5065 3.34606C12.0429 3.57676 12.513 3.89109 12.9167 4.28906C13.3204 4.68702 13.6377 5.15708 13.8684 5.69924C14.0991 6.24139 14.2144 6.81815 14.2144 7.42952C14.2144 8.21968 14.0327 8.93486 13.6694 9.57506C13.306 10.2153 12.7956 10.7517 12.1381 11.1842C12.5418 11.3342 12.9254 11.5245 13.2887 11.7552C13.6521 11.9859 13.9952 12.2483 14.3182 12.5425ZM6.46276 7.42952C6.46276 7.89092 6.54928 8.32061 6.7223 8.71858C6.89533 9.11654 7.1318 9.46836 7.43172 9.77405C7.73163 10.0797 8.08346 10.3191 8.48719 10.4921C8.89092 10.6651 9.32349 10.7517 9.7849 10.7517C10.2405 10.7517 10.6702 10.6651 11.074 10.4921C11.4777 10.3191 11.8295 10.0826 12.1294 9.7827C12.4293 9.48278 12.6687 9.13096 12.8475 8.72723C13.0263 8.32349 13.1128 7.89092 13.107 7.42952C13.107 6.97388 13.0205 6.54419 12.8475 6.14046C12.6745 5.73673 12.438 5.3849 12.1381 5.08499C11.8382 4.78507 11.4835 4.54572 11.074 4.36692C10.6645 4.18813 10.2348 4.10161 9.7849 4.10738C9.32349 4.10738 8.89381 4.19389 8.49584 4.36692C8.09788 4.53995 7.74605 4.77642 7.44037 5.07634C7.13469 5.37625 6.89533 5.73096 6.7223 6.14046C6.54928 6.54996 6.46276 6.97964 6.46276 7.42952Z" fill="#2E2E2E"/>
</svg>
