<svg width="24" height="25" viewBox="0 0 24 25" fill="none" xmlns="http://www.w3.org/2000/svg">
<path d="M18.75 5.59239V10.7663M18.75 10.7663L21 8.54891M18.75 10.7663L16.5 8.54891M3 20.375V19.6359C3 18.0676 3.63214 16.5636 4.75736 15.4547C5.88258 14.3458 7.4087 13.7228 9 13.7228H10.5C12.0913 13.7228 13.6174 14.3458 14.7426 15.4547C15.8679 16.5636 16.5 18.0676 16.5 19.6359V20.375M13.5 7.07065C13.5 8.0508 13.1049 8.9908 12.4017 9.68387C11.6984 10.3769 10.7446 10.7663 9.75 10.7663C8.75544 10.7663 7.80161 10.3769 7.09835 9.68387C6.39509 8.9908 6 8.0508 6 7.07065C6 6.0905 6.39509 5.1505 7.09835 4.45743C7.80161 3.76436 8.75544 3.375 9.75 3.375C10.7446 3.375 11.6984 3.76436 12.4017 4.45743C13.1049 5.1505 13.5 6.0905 13.5 7.07065Z" stroke="black" stroke-linejoin="round"/>
</svg>
