<svg width="24" height="24" viewBox="0 0 24 24" fill="none" xmlns="http://www.w3.org/2000/svg">
<path d="M18.75 5.625V10.875M18.75 10.875L21 8.625M18.75 10.875L16.5 8.625M3 20.625V19.875C3 18.2837 3.63214 16.7576 4.75736 15.6324C5.88258 14.5071 7.4087 13.875 9 13.875H10.5C12.0913 13.875 13.6174 14.5071 14.7426 15.6324C15.8679 16.7576 16.5 18.2837 16.5 19.875V20.625M13.5 7.125C13.5 8.11956 13.1049 9.07339 12.4017 9.77665C11.6984 10.4799 10.7446 10.875 9.75 10.875C8.75544 10.875 7.80161 10.4799 7.09835 9.77665C6.39509 9.07339 6 8.11956 6 7.125C6 6.13044 6.39509 5.17661 7.09835 4.47335C7.80161 3.77009 8.75544 3.375 9.75 3.375C10.7446 3.375 11.6984 3.77009 12.4017 4.47335C13.1049 5.17661 13.5 6.13044 13.5 7.125Z" stroke="black" stroke-linejoin="round"/>
</svg>
