<svg width="24" height="24" viewBox="0 0 24 24" fill="none" xmlns="http://www.w3.org/2000/svg">
<path d="M8.04448 11.965H15.9583C16.2091 11.965 16.4124 11.7504 16.4124 11.4856C16.4124 9.39876 15.1046 7.62752 13.3088 7.03791C13.9362 6.59199 14.3499 5.83623 14.3499 4.97943C14.3499 3.61241 13.2961 2.5 12.0009 2.5C10.7058 2.5 9.65195 3.61233 9.65195 4.97943C9.65195 5.83623 10.0657 6.59199 10.6931 7.03791C8.89719 7.62748 7.58947 9.39784 7.58947 11.4856C7.58947 11.7504 7.79279 11.965 8.04359 11.965H8.04448ZM12.001 3.45969C12.7945 3.45969 13.4409 4.14111 13.4409 4.97954C13.4409 5.81714 12.7953 6.4994 12.001 6.4994C11.2074 6.4994 10.5611 5.81797 10.5611 4.97954C10.5611 4.14195 11.2067 3.45969 12.001 3.45969ZM12.001 7.7879C13.7779 7.7879 15.2502 9.19251 15.474 11.0047H8.52773C8.75163 9.19253 10.2234 7.7879 12.001 7.7879ZM4.31726 16.8035V14.1988C4.31726 13.934 4.52058 13.7194 4.77138 13.7194H11.5459V12.8059C11.5459 12.5411 11.7492 12.3265 12 12.3265C12.2508 12.3265 12.4542 12.5411 12.4542 12.8059V13.7194H19.2287C19.4795 13.7194 19.6828 13.934 19.6828 14.1988V16.8035C19.6828 17.0682 19.4795 17.2828 19.2287 17.2828C18.9779 17.2828 18.7746 17.0682 18.7746 16.8035V14.679H12.4549V16.8035C12.4549 17.0682 12.2516 17.2828 12.0008 17.2828C11.75 17.2828 11.5467 17.0682 11.5467 16.8035V14.679H5.22704V16.8035C5.22704 17.0682 5.02371 17.2828 4.77292 17.2828C4.52212 17.2828 4.3188 17.0682 4.3188 16.8035H4.31726ZM4.77138 17.7605C3.79432 17.7605 3 18.5989 3 19.6302C3 20.6616 3.79432 21.5 4.77138 21.5C5.74844 21.5 6.54276 20.6616 6.54276 19.6302C6.54276 18.5989 5.74844 17.7605 4.77138 17.7605ZM4.77138 20.5405C4.29589 20.5405 3.90903 20.1321 3.90903 19.6303C3.90903 19.1284 4.29591 18.72 4.77138 18.72C5.24687 18.72 5.63373 19.1284 5.63373 19.6303C5.63373 20.1321 5.24685 20.5405 4.77138 20.5405ZM12 17.7605C11.0229 17.7605 10.2286 18.5989 10.2286 19.6302C10.2286 20.6616 11.0229 21.5 12 21.5C12.9771 21.5 13.7714 20.6616 13.7714 19.6302C13.7714 18.5989 12.9771 17.7605 12 17.7605ZM12 20.5405C11.5245 20.5405 11.1377 20.1321 11.1377 19.6303C11.1377 19.1284 11.5245 18.72 12 18.72C12.4755 18.72 12.8623 19.1284 12.8623 19.6303C12.8623 20.1321 12.4755 20.5405 12 20.5405ZM19.2286 17.7605C18.2516 17.7605 17.4572 18.5989 17.4572 19.6302C17.4572 20.6616 18.2516 21.5 19.2286 21.5C20.2057 21.5 21 20.6616 21 19.6302C21 18.5989 20.2057 17.7605 19.2286 17.7605ZM19.2286 20.5405C18.7531 20.5405 18.3663 20.1321 18.3663 19.6303C18.3663 19.1284 18.7532 18.72 19.2286 18.72C19.7041 18.72 20.091 19.1284 20.091 19.6303C20.091 20.1321 19.7041 20.5405 19.2286 20.5405Z" fill="#2E2E2E"/>
</svg>
