<svg width="24" height="24" viewBox="0 0 24 24" fill="none" xmlns="http://www.w3.org/2000/svg">
<path fill-rule="evenodd" clip-rule="evenodd" d="M5.8066 13.3547V14.1954C5.80663 14.2296 5.81372 14.2634 5.82748 14.295C5.84124 14.3266 5.86139 14.3552 5.88678 14.3794C5.91218 14.4035 5.94231 14.4226 5.97547 14.4357C6.00862 14.4487 6.04414 14.4554 6.08 14.4553H7.1926C7.29187 14.7736 7.42594 15.0811 7.5926 15.3727L6.8048 16.1238C6.77945 16.1479 6.75934 16.1765 6.74562 16.2081C6.73189 16.2396 6.72483 16.2734 6.72483 16.3076C6.72483 16.3417 6.73189 16.3755 6.74562 16.4071C6.75934 16.4386 6.77945 16.4673 6.8048 16.4914L8.4376 18.0481C8.46292 18.0723 8.49299 18.0915 8.52609 18.1046C8.55919 18.1176 8.59467 18.1244 8.6305 18.1244C8.66633 18.1244 8.70181 18.1176 8.73491 18.1046C8.76801 18.0915 8.79808 18.0723 8.8234 18.0481L9.611 17.2972C9.91685 17.4561 10.2394 17.5839 10.5732 17.6786V18.7401C10.5733 18.809 10.602 18.8752 10.6532 18.9239C10.7043 18.9726 10.7737 19 10.846 19H13.1546C13.2269 19 13.2963 18.9726 13.3474 18.9239C13.3986 18.8752 13.4273 18.809 13.4274 18.7401V17.6778C13.7612 17.5831 14.0836 17.4553 14.3894 17.2964L15.1772 18.0474C15.2025 18.0715 15.2326 18.0907 15.2657 18.1038C15.2988 18.1169 15.3343 18.1236 15.3701 18.1236C15.4059 18.1236 15.4414 18.1169 15.4745 18.1038C15.5076 18.0907 15.5377 18.0715 15.563 18.0474L17.1958 16.4906C17.2211 16.4665 17.2413 16.4379 17.255 16.4063C17.2687 16.3748 17.2758 16.341 17.2758 16.3068C17.2758 16.2727 17.2687 16.2388 17.255 16.2073C17.2413 16.1758 17.2211 16.1471 17.1958 16.123L16.408 15.3719C16.5747 15.0803 16.7088 14.7729 16.808 14.4545H17.92C17.9923 14.4545 18.0617 14.427 18.1128 14.3783C18.1639 14.3295 18.1926 14.2634 18.1926 14.1944V13.3547H20.7272C20.7996 13.3547 20.8689 13.3273 20.9201 13.2785C20.9713 13.2297 21 13.1636 21 13.0946C20.9931 12.6451 20.8825 12.2026 20.6761 11.7984C20.4697 11.3943 20.1725 11.0384 19.8056 10.7561C18.5032 9.70406 16.5088 9.51166 14.953 10.2563C14.087 9.67967 13.0562 9.37047 12 9.37047C10.9437 9.37047 9.91297 9.67967 9.047 10.2563C7.4912 9.51262 5.4968 9.7033 4.1944 10.7561C3.82756 11.0384 3.5304 11.3943 3.32398 11.7985C3.11756 12.2026 3.00695 12.6451 3 13.0946C3 13.1636 3.02874 13.2297 3.0799 13.2785C3.13106 13.3273 3.20045 13.3547 3.2728 13.3547H5.8066ZM17.648 13.3547V13.9355H16.6C16.5393 13.9355 16.4803 13.9549 16.4324 13.9906C16.3846 14.0262 16.3506 14.0761 16.3358 14.1323C16.2312 14.5308 16.0664 14.9127 15.8466 15.2661C15.8093 15.3162 15.7918 15.3772 15.7972 15.4385C15.8027 15.4997 15.8306 15.5571 15.8762 15.6005L16.6178 16.3076L15.3704 17.4967L14.6288 16.7896C14.5858 16.7489 14.5298 16.7231 14.4697 16.7162C14.4095 16.7093 14.3487 16.7217 14.2968 16.7515C13.9253 16.9637 13.5233 17.1231 13.1036 17.2248C13.0416 17.2364 12.9857 17.2683 12.9456 17.3148C12.9055 17.3614 12.8836 17.4198 12.8836 17.4801V18.4787H11.1196V17.4799C11.1195 17.422 11.0992 17.3658 11.0618 17.3201C11.0244 17.2745 10.9721 17.2421 10.9132 17.228C10.4946 17.1287 10.0934 16.9719 9.7222 16.7625C9.66964 16.727 9.60559 16.7104 9.54139 16.7155C9.47719 16.7207 9.41698 16.7473 9.3714 16.7908L8.6298 17.4978L7.3826 16.3087L8.1242 15.6017C8.16687 15.5607 8.19398 15.5074 8.20122 15.45C8.20847 15.3927 8.19544 15.3348 8.1642 15.2853C7.94166 14.931 7.77444 14.5478 7.6678 14.1475C7.65606 14.088 7.62288 14.0342 7.57398 13.9955C7.52509 13.9568 7.46355 13.9356 7.4 13.9355H6.352V13.3547H9.1552C9.22292 14.0293 9.55189 14.6556 10.0779 15.1114C10.6039 15.5672 11.2892 15.8197 12 15.8197C12.7108 15.8197 13.3961 15.5672 13.9221 15.1114C14.4481 14.6556 14.7771 14.0293 14.8448 13.3547H17.648ZM16.5496 12.8345C16.4679 11.99 16.0635 11.2037 15.4134 10.6249C16.743 10.0889 18.3814 10.2862 19.4534 11.1527C19.9965 11.5718 20.3497 12.1739 20.44 12.8345H16.5496ZM16.98 5.11511C17.4059 5.115 17.8223 5.2353 18.1764 5.46082C18.5306 5.68633 18.8067 6.00692 18.9697 6.38203C19.1328 6.75715 19.1755 7.16994 19.0925 7.56821C19.0095 7.96647 18.8044 8.33231 18.5033 8.61946C18.2022 8.90661 17.8185 9.10217 17.4008 9.18141C16.9831 9.26065 16.5501 9.22 16.1566 9.06461C15.7631 8.90922 15.4268 8.64606 15.1902 8.30843C14.9536 7.9708 14.8274 7.57385 14.8274 7.1678C14.8274 6.62346 15.0542 6.10141 15.4579 5.71646C15.8615 5.33152 16.4091 5.11521 16.98 5.11511ZM15.8438 6.08435C15.619 6.2987 15.4659 6.5718 15.4039 6.86912C15.3419 7.16643 15.3737 7.47459 15.4954 7.75465C15.6171 8.03471 15.8231 8.27407 16.0875 8.44248C16.3518 8.61089 16.6627 8.70078 16.9806 8.70078C17.2985 8.70078 17.6094 8.61089 17.8737 8.44248C18.1381 8.27407 18.3441 8.03471 18.4658 7.75465C18.5875 7.47459 18.6193 7.16643 18.5573 6.86912C18.4953 6.5718 18.3422 6.2987 18.1174 6.08435C17.8159 5.79692 17.407 5.63545 16.9806 5.63545C16.5542 5.63545 16.1453 5.79692 15.8438 6.08435ZM7.4504 12.8345H3.56C3.64995 12.1741 4.00267 11.572 4.5452 11.1527C5.6178 10.2862 7.2562 10.0889 8.5852 10.6249C7.93561 11.2039 7.53177 11.9902 7.4504 12.8345ZM7.02 5.11511C7.44585 5.11518 7.86212 5.23565 8.21616 5.46128C8.57021 5.68691 8.84613 6.00756 9.00903 6.38269C9.17193 6.75783 9.21451 7.17059 9.13136 7.56879C9.04822 7.96699 8.8431 8.33275 8.54193 8.6198C8.24076 8.90686 7.85708 9.10232 7.4394 9.18148C7.02172 9.26064 6.58879 9.21993 6.19537 9.06452C5.80196 8.9091 5.46571 8.64594 5.22915 8.30833C4.9926 7.97072 4.86636 7.57381 4.8664 7.1678C4.86643 6.8982 4.92215 6.63124 5.0304 6.38217C5.13864 6.1331 5.29729 5.90679 5.49727 5.71618C5.69725 5.52557 5.93466 5.37438 6.19593 5.27125C6.4572 5.16811 6.73722 5.11506 7.02 5.11511ZM5.8826 6.08435C5.65779 6.2987 5.5047 6.5718 5.44268 6.86912C5.38066 7.16643 5.41251 7.47459 5.53419 7.75465C5.65587 8.03471 5.86192 8.27407 6.12628 8.44248C6.39065 8.61089 6.70145 8.70078 7.0194 8.70078C7.33735 8.70078 7.64815 8.61089 7.91252 8.44248C8.17688 8.27407 8.38293 8.03471 8.50461 7.75465C8.62629 7.47459 8.65814 7.16643 8.59612 6.86912C8.5341 6.5718 8.38101 6.2987 8.1562 6.08435C7.85469 5.79692 7.44577 5.63545 7.0194 5.63545C6.59303 5.63545 6.18411 5.79692 5.8826 6.08435ZM9.7036 13.3547H14.2964C14.2295 13.8905 13.9588 14.3844 13.5356 14.7428C13.1124 15.1011 12.566 15.299 12 15.299C11.434 15.299 10.8876 15.1011 10.4644 14.7428C10.0412 14.3844 9.77048 13.8905 9.7036 13.3547ZM14.8562 10.8436C15.4969 11.3385 15.9084 12.0534 16.002 12.8345H7.998C8.09158 12.0533 8.50301 11.3383 9.1438 10.8434C10.7164 9.57325 13.2838 9.57344 14.8562 10.8436ZM12 4C11.5204 4 11.0516 4.13559 10.6528 4.38963C10.2541 4.64366 9.94328 5.00473 9.75976 5.42717C9.57624 5.84962 9.52823 6.31446 9.62181 6.76291C9.71538 7.21137 9.94634 7.6233 10.2855 7.94661C10.6246 8.26991 11.0567 8.49008 11.5271 8.57926C11.9974 8.66844 12.485 8.62263 12.9281 8.44763C13.3711 8.27262 13.7498 7.97628 14.0162 7.59607C14.2827 7.21587 14.4248 6.76888 14.4248 6.31164C14.4247 5.69854 14.1693 5.11056 13.7145 4.67705C13.2598 4.24354 12.6431 4 12 4ZM10.6712 5.04475C10.9341 4.79395 11.2691 4.62312 11.6338 4.55385C11.9985 4.48459 12.3766 4.52002 12.7202 4.65564C13.0638 4.79127 13.3575 5.02101 13.5641 5.31579C13.7707 5.61058 13.881 5.95718 13.881 6.31173C13.881 6.66629 13.7707 7.01289 13.5641 7.30767C13.3575 7.60246 13.0638 7.8322 12.7202 7.96782C12.3766 8.10345 11.9985 8.13887 11.6338 8.06961C11.2691 8.00035 10.9341 7.82952 10.6712 7.57872C10.3189 7.24261 10.121 6.78689 10.121 6.31173C10.121 5.83657 10.3189 5.38085 10.6712 5.04475Z" fill="black"/>
</svg>
