<svg width="25" height="25" viewBox="0 0 25 25" fill="none" xmlns="http://www.w3.org/2000/svg">
<path d="M19.2441 12.4192C19.2441 10.945 18.766 9.52872 17.8883 8.36176L17.698 9.62136C17.6736 9.77999 17.5368 9.89406 17.381 9.89406C17.3654 9.89406 17.3492 9.89271 17.3329 9.89069C17.1575 9.86436 17.0363 9.701 17.0627 9.52685L17.36 7.55652C17.3614 7.54707 17.3681 7.53964 17.3702 7.53087C17.3776 7.50117 17.3878 7.47349 17.4034 7.44581C17.4122 7.43029 17.4223 7.41746 17.4345 7.40329C17.4433 7.39249 17.4481 7.37966 17.4589 7.37021C17.4691 7.36076 17.4819 7.35739 17.4928 7.34996C17.5022 7.34321 17.5077 7.33241 17.5178 7.32701C17.5259 7.32229 17.5361 7.32296 17.5442 7.31891C17.5673 7.30879 17.5896 7.30204 17.6133 7.29731C17.6343 7.29258 17.6533 7.28786 17.6749 7.28786C17.698 7.28786 17.7196 7.29326 17.742 7.29799C17.7596 7.30136 17.7786 7.29934 17.7955 7.30609L19.7961 8.0891C19.9613 8.15323 20.0426 8.33953 19.9776 8.50356C19.9133 8.66826 19.7263 8.7486 19.5618 8.68447L18.6427 8.32536C19.4466 9.5323 19.8855 10.9485 19.8855 12.4193C19.8855 14.7784 18.7978 16.944 16.9008 18.3602C16.8433 18.4034 16.7755 18.4236 16.7085 18.4236C16.6103 18.4236 16.5148 18.3791 16.4511 18.2954C16.3448 18.1536 16.3739 17.9538 16.5155 17.8471C18.2485 16.5531 19.2427 14.5746 19.2427 12.4186L19.2441 12.4192ZM12.4438 5.6406C13.5003 5.6406 14.5122 5.87483 15.4522 6.3379C15.6121 6.41688 15.8044 6.35073 15.8823 6.19277C15.9608 6.03414 15.8958 5.84177 15.7367 5.76413C14.7073 5.25719 13.6 5 12.4432 5C9.57297 5 7.0259 6.60521 5.78314 9.09739L5.63888 8.14088C5.61247 7.96605 5.44857 7.84792 5.27384 7.87154C5.09843 7.89787 4.97721 8.06123 5.00361 8.23538L5.32396 10.3543C5.32531 10.3658 5.33344 10.3739 5.33615 10.3847C5.34428 10.4158 5.35376 10.4448 5.37069 10.4718C5.37949 10.486 5.39033 10.4974 5.40184 10.5103C5.42013 10.5319 5.43909 10.5508 5.46347 10.567C5.47025 10.5717 5.47499 10.5798 5.48244 10.5845C5.49937 10.594 5.51765 10.6 5.53594 10.6068C5.54068 10.6081 5.54339 10.6122 5.54813 10.6129C5.55016 10.6135 5.55219 10.6129 5.55423 10.6135C5.58335 10.6216 5.61315 10.627 5.64362 10.627C5.68155 10.627 5.71812 10.6189 5.75266 10.6061C5.75537 10.6054 5.75808 10.6054 5.76079 10.6048L7.62181 9.87642C7.78706 9.81162 7.86833 9.62599 7.80332 9.46196C7.7383 9.29658 7.55003 9.21692 7.38749 9.28105L6.19688 9.74749C7.25814 7.26617 9.68678 5.6399 12.4459 5.6399L12.4438 5.6406ZM14.3246 19.3152C14.3232 19.3017 14.3266 19.2889 14.3239 19.2754C14.3205 19.2612 14.3117 19.2504 14.307 19.2376C14.3009 19.22 14.2941 19.2038 14.2846 19.1876C14.2697 19.1627 14.2521 19.1411 14.2311 19.1208C14.223 19.1134 14.2196 19.1026 14.2108 19.0951L12.6477 17.8531C12.5096 17.7431 12.3071 17.766 12.1967 17.9037C12.0863 18.0421 12.1093 18.2433 12.2475 18.3533L13.2484 19.1485C12.9823 19.1795 12.7134 19.1964 12.4439 19.1964C8.90992 19.1964 5.9991 16.5551 5.67264 13.053C5.6557 12.8768 5.49655 12.7466 5.32318 12.7641C5.14642 12.781 5.01706 12.9369 5.03331 13.1124C5.3909 16.9459 8.57678 19.8363 12.4445 19.8363C12.5948 19.8363 12.7452 19.8309 12.8955 19.8221L12.1309 20.4296C11.9921 20.5403 11.9697 20.7415 12.0801 20.8792C12.1438 20.9588 12.2372 21 12.3314 21C12.4011 21 12.4722 20.977 12.5311 20.9305L14.2114 19.5946C14.2209 19.5872 14.2249 19.575 14.2337 19.5663C14.2554 19.5447 14.2751 19.523 14.2893 19.4967C14.2974 19.4819 14.3021 19.4657 14.3076 19.4495C14.317 19.4238 14.3238 19.3975 14.3259 19.3691C14.3265 19.3604 14.3319 19.3529 14.3319 19.3442C14.3319 19.3334 14.3259 19.3246 14.3252 19.3138L14.3246 19.3152ZM16.6747 12.3612C16.6747 14.6548 14.8021 16.5213 12.5008 16.5213C10.1996 16.5213 8.32697 14.6548 8.32697 12.3612C8.32697 10.0675 10.1996 8.20105 12.5008 8.20105C14.8021 8.20105 16.6747 10.0675 16.6747 12.3612ZM16.0327 12.3612C16.0327 10.4206 14.4479 8.84095 12.5008 8.84095C10.5537 8.84095 8.96897 10.4205 8.96897 12.3612C8.96897 14.3018 10.5537 15.8814 12.5008 15.8814C14.4479 15.8814 16.0327 14.3018 16.0327 12.3612ZM12.8217 12.2289V10.4414C12.8217 10.2645 12.6782 10.1214 12.5007 10.1214C12.3233 10.1214 12.1797 10.2645 12.1797 10.4414V12.3611C12.1797 12.4461 12.2136 12.5278 12.2738 12.5872L13.8789 14.187C13.9412 14.2491 14.0238 14.2808 14.1058 14.2808C14.1877 14.2808 14.2704 14.2498 14.3327 14.187C14.458 14.0621 14.458 13.8596 14.3327 13.7347L12.8217 12.2289Z" fill="black"/>
</svg>
