<svg width="24" height="25" viewBox="0 0 24 25" fill="none" xmlns="http://www.w3.org/2000/svg">
<path d="M6.43041 2.91136C6.55649 2.76089 6.61854 2.56698 6.60325 2.37127C6.58796 2.17556 6.49654 1.99364 6.34863 1.86458C6.20071 1.73551 6.00809 1.66958 5.81211 1.68095C5.61613 1.69231 5.43242 1.78006 5.30041 1.92536L4.00841 3.40536C3.27579 4.24493 2.86165 5.31533 2.83841 6.42936L2.78141 9.14836C2.77937 9.24685 2.79676 9.34478 2.83257 9.43655C2.86838 9.52833 2.92192 9.61215 2.99012 9.68323C3.05832 9.75431 3.13986 9.81127 3.23008 9.85084C3.32029 9.89041 3.41742 9.91183 3.51591 9.91386C3.6144 9.9159 3.71233 9.89851 3.8041 9.8627C3.89588 9.82689 3.9797 9.77336 4.05078 9.70515C4.12186 9.63695 4.17882 9.55541 4.21839 9.46519C4.25796 9.37498 4.27937 9.27785 4.28141 9.17936L4.33741 6.46136C4.35345 5.69909 4.63699 4.96672 5.13841 4.39236L6.43041 2.91136Z" fill="black"/>
<path fill-rule="evenodd" clip-rule="evenodd" d="M6.23597 8.2C6.30313 7.13014 6.77549 6.12608 7.5569 5.39224C8.3383 4.65839 9.37 4.24993 10.442 4.25H10.999V3.5C10.999 3.23478 11.1043 2.98043 11.2919 2.79289C11.4794 2.60536 11.7338 2.5 11.999 2.5C12.2642 2.5 12.5185 2.60536 12.7061 2.79289C12.8936 2.98043 12.999 3.23478 12.999 3.5V4.25H13.556C14.6279 4.24993 15.6596 4.65839 16.4411 5.39224C17.2225 6.12608 17.6948 7.13014 17.762 8.2L17.983 11.734C18.0684 13.0812 18.5207 14.3794 19.291 15.488C19.4503 15.7171 19.5477 15.9835 19.5736 16.2613C19.5995 16.5392 19.5531 16.819 19.4389 17.0736C19.3246 17.3281 19.1464 17.5488 18.9216 17.7142C18.6968 17.8795 18.433 17.9838 18.156 18.017L14.749 18.425V19.5C14.749 20.2293 14.4592 20.9288 13.9435 21.4445C13.4278 21.9603 12.7283 22.25 11.999 22.25C11.2696 22.25 10.5702 21.9603 10.0544 21.4445C9.5387 20.9288 9.24897 20.2293 9.24897 19.5V18.425L5.84197 18.016C5.56507 17.9827 5.30148 17.8784 5.07682 17.7131C4.85216 17.5478 4.67406 17.3273 4.55983 17.0729C4.44559 16.8184 4.39911 16.5388 4.42489 16.2611C4.45068 15.9834 4.54785 15.7171 4.70697 15.488C5.47722 14.3794 5.92954 13.0812 6.01497 11.734L6.23597 8.2ZM10.442 5.75C9.75155 5.74992 9.08704 6.01297 8.58375 6.48561C8.08046 6.95825 7.77622 7.60493 7.73297 8.294L7.51297 11.828C7.41016 13.4487 6.86584 15.0105 5.93897 16.344C5.92744 16.3606 5.92039 16.3798 5.91851 16.3999C5.91663 16.42 5.91997 16.4403 5.92823 16.4587C5.93648 16.4771 5.94936 16.4931 5.96561 16.505C5.98186 16.517 6.00093 16.5246 6.02097 16.527L9.75797 16.976C11.247 17.154 12.751 17.154 14.24 16.976L17.977 16.527C17.997 16.5246 18.0161 16.517 18.0323 16.505C18.0486 16.4931 18.0615 16.4771 18.0697 16.4587C18.078 16.4403 18.0813 16.42 18.0794 16.3999C18.0776 16.3798 18.0705 16.3606 18.059 16.344C17.1325 15.0104 16.5885 13.4486 16.486 11.828L16.265 8.294C16.2217 7.60493 15.9175 6.95825 15.4142 6.48561C14.9109 6.01297 14.2464 5.74992 13.556 5.75H10.442ZM11.999 20.75C11.309 20.75 10.749 20.19 10.749 19.5V18.75H13.249V19.5C13.249 20.19 12.689 20.75 11.999 20.75Z" fill="black"/>
<path d="M17.6435 1.85666C17.4937 1.98744 17.402 2.17236 17.3885 2.37076C17.3749 2.56916 17.4408 2.7648 17.5715 2.91466L18.8635 4.39466C19.3648 4.96943 19.648 5.70217 19.6635 6.46466L19.7205 9.18166C19.7246 9.38058 19.8076 9.56971 19.9511 9.70745C20.0947 9.8452 20.2871 9.92028 20.486 9.91616C20.6849 9.91205 20.8741 9.82909 21.0118 9.68553C21.1495 9.54198 21.2246 9.34958 21.2205 9.15066L21.1635 6.43266C21.1403 5.31863 20.7261 4.24823 19.9935 3.40866L18.7015 1.92866C18.5707 1.77885 18.3858 1.68711 18.1874 1.67361C17.989 1.66011 17.7934 1.72595 17.6435 1.85666Z" fill="black"/>
</svg>
