<svg width="24" height="24" viewBox="0 0 24 24" fill="none" xmlns="http://www.w3.org/2000/svg">
<path d="M6.13789 13.3606V12.3873H8.0819C8.25161 12.3833 8.38674 12.2458 8.38674 12.0761C8.38674 11.9072 8.25161 11.7688 8.0819 11.7656H5.82665C5.74461 11.7656 5.66579 11.7986 5.60708 11.8565C5.54917 11.9152 5.51619 11.994 5.51619 12.0761V13.3614C4.0242 13.5263 2.92141 14.8284 3.00439 16.3276C3.08723 17.826 4.32748 18.9988 5.82834 18.9988C9.39292 18.8821 9.64793 13.8545 6.13789 13.3606ZM5.82824 18.3778C4.60971 18.3762 3.62282 17.3885 3.62117 16.1707C3.72493 13.2502 7.93153 13.251 8.03448 16.1707H8.03529C8.03368 17.3884 7.04601 18.3761 5.82824 18.3778Z" fill="black"/>
<path d="M18.2036 13.359V12.0737C18.2036 11.9917 18.1706 11.9129 18.1127 11.8541C18.054 11.7962 17.9752 11.7633 17.8931 11.7633H12.0216V10.4297C15.8767 9.92058 15.6185 4.3974 11.7112 4.26953C7.80231 4.39983 7.54575 9.9197 11.4007 10.4297V11.7633H9.02726C8.85836 11.7665 8.72323 11.9048 8.72323 12.0737C8.72323 12.2434 8.85835 12.381 9.02726 12.385H11.3999V13.3598L11.4007 13.359C9.96982 13.5191 8.8864 14.7279 8.88476 16.1677C8.8373 18.2034 11.1328 19.6368 12.9386 18.7141V18.7149C13.089 18.6369 13.1501 18.4535 13.0753 18.3015C13.0005 18.1495 12.8179 18.0851 12.6643 18.1567C11.6621 18.6369 10.4589 18.2959 9.85723 17.3605C9.2556 16.4259 9.44462 15.1896 10.2972 14.4762C11.1505 13.7628 12.4005 13.7965 13.2144 14.5534C14.0284 15.3111 14.1514 16.5561 13.5015 17.4576C13.4525 17.5236 13.4324 17.6072 13.4452 17.6885C13.4581 17.7697 13.5023 17.8429 13.5691 17.8912C14.1852 18.2612 14.5729 16.5962 14.5375 16.1675C14.5359 14.7278 13.4525 13.519 12.0216 13.3588V12.3848H17.5817V13.3588C14.0686 13.8527 14.3299 18.8811 17.8914 18.9962C21.4521 18.8812 21.7134 13.8559 18.2035 13.3588L18.2036 13.359ZM9.24437 7.35737C9.24598 5.99567 10.3495 4.8921 11.7111 4.89066C14.9726 5.00648 14.9765 9.70115 11.7167 9.82428C10.3534 9.82589 9.24588 8.72157 9.24423 7.35757L9.24437 7.35737ZM17.8914 18.3756C16.6737 18.374 15.686 17.3863 15.6844 16.1685C15.7881 13.248 19.9947 13.2488 20.0977 16.1685H20.0985C20.0969 17.3862 19.11 18.3739 17.8914 18.3756Z" fill="black"/>
</svg>
