<svg width="24" height="24" viewBox="0 0 24 24" fill="none" xmlns="http://www.w3.org/2000/svg">
<path d="M13.3902 8.00566C13.3902 6.96229 12.5413 6.11328 11.4978 6.11328C10.4544 6.11328 9.60547 6.96223 9.60547 8.00566C9.60547 9.04909 10.4544 9.89804 11.4978 9.89804C12.5413 9.89804 13.3902 9.04909 13.3902 8.00566ZM11.4978 9.56371C10.6389 9.56371 9.9398 8.86458 9.9398 8.00566C9.9398 7.14674 10.6389 6.44761 11.4978 6.44761C12.3568 6.44761 13.0559 7.14674 13.0559 8.00566C13.0559 8.86458 12.3568 9.56371 11.4978 9.56371Z" fill="black"/>
<path d="M18.4985 15.3379H17.3326V14.6714C17.3326 14.0288 16.8092 13.5055 16.1667 13.5055H11.6671V12.0054H12.1971C12.3369 12.0054 12.4508 11.8909 12.4508 11.7517V11.1684C12.6638 11.1052 12.8702 11.0199 13.0647 10.9147L13.4775 11.3256C13.5747 11.4228 13.7332 11.4241 13.8371 11.3256L14.8258 10.3368C14.921 10.2362 14.9197 10.0778 14.8225 9.98057L14.4117 9.56775C14.5189 9.36999 14.6041 9.16359 14.6654 8.95251H15.2486C15.3885 8.95251 15.5023 8.83799 15.5023 8.69883V7.3059C15.5023 7.16607 15.3878 7.05221 15.2486 7.05221H14.6654C14.6021 6.83914 14.5169 6.63274 14.4117 6.43697L14.8225 6.02415C14.9197 5.92694 14.9197 5.76847 14.8225 5.6646L13.8337 4.67782C13.7332 4.58261 13.5727 4.58394 13.4775 4.67982L13.0647 5.09065C12.8669 4.98478 12.6605 4.89822 12.4495 4.83696V4.25369C12.4495 4.11386 12.3349 4 12.1958 4H10.8028C10.663 4 10.5492 4.11452 10.5492 4.25369V4.83696C10.3361 4.90022 10.1297 4.98544 9.93525 5.09065L9.52242 4.67982C9.42521 4.58261 9.26475 4.58128 9.16287 4.67982L8.1741 5.66859C8.07889 5.76913 8.08022 5.92759 8.17743 6.0248L8.58826 6.43763C8.48106 6.63539 8.39583 6.84179 8.33457 7.05286H7.7513C7.61147 7.05286 7.49761 7.16739 7.49761 7.30655V8.69948C7.49761 8.8393 7.61213 8.95317 7.7513 8.95317H8.33457C8.39782 9.16623 8.48305 9.37264 8.58826 9.5684L8.17743 9.98122C8.08022 10.0784 8.08022 10.2369 8.17743 10.3408L9.1662 11.3276C9.26674 11.4228 9.4272 11.4214 9.52241 11.3256L9.93523 10.9147C10.133 11.0206 10.3394 11.1072 10.5505 11.1684V11.7517C10.5505 11.8915 10.665 12.0054 10.8042 12.0054H11.3342V13.5055H6.83112C6.18859 13.5055 5.66525 14.0288 5.66525 14.6714V15.3379H4.49938C4.22306 15.3379 4 15.5629 4 15.8373V18.5033C4 18.7797 4.22505 19.0027 4.49938 19.0027H7.16545C7.44177 19.0027 7.66482 18.7777 7.66482 18.5033V15.8373C7.66482 15.5609 7.43977 15.3379 7.16545 15.3379H5.99958V14.6714C5.99958 14.2113 6.37311 13.8378 6.8332 13.8378H11.3328V15.3379H10.167C9.89064 15.3379 9.66759 15.5629 9.66759 15.8373V18.5033C9.66759 18.7797 9.89264 19.0027 10.167 19.0027H12.833C13.1094 19.0027 13.3324 18.7777 13.3324 18.5033V15.8373C13.3324 15.5609 13.1074 15.3379 12.833 15.3379H11.6672V13.8378H16.1668C16.6269 13.8378 17.0004 14.2113 17.0004 14.6714V15.3379H15.8346C15.5582 15.3379 15.3352 15.5629 15.3352 15.8373V18.5033C15.3352 18.7797 15.5602 19.0027 15.8346 19.0027H18.5006C18.7769 19.0027 19 18.7777 19 18.5033V15.8373C19 15.5609 18.775 15.3379 18.5006 15.3379H18.4985ZM7.16533 15.6721C7.25721 15.6721 7.33245 15.7474 7.33245 15.8392V18.5053C7.33245 18.5972 7.25721 18.6724 7.16533 18.6724H4.49738C4.4055 18.6724 4.33026 18.5972 4.33026 18.5053V15.8392C4.33026 15.7474 4.4055 15.6721 4.49738 15.6721H7.16533ZM12.8309 15.6721C12.9228 15.6721 12.998 15.7474 12.998 15.8392V18.5053C12.998 18.5972 12.9228 18.6724 12.8309 18.6724H10.1648C10.0729 18.6724 9.99768 18.5972 9.99768 18.5053V15.8392C9.99768 15.7474 10.0729 15.6721 10.1648 15.6721H12.8309ZM10.8807 11.6717V11.1091C10.8807 10.9966 10.8075 10.8994 10.6929 10.8654C10.4666 10.8022 10.2482 10.7123 10.0404 10.5944C9.93988 10.5385 9.81404 10.5585 9.7388 10.637L9.33998 11.0339L8.46706 10.161L8.86057 9.76546C8.9438 9.68689 8.96311 9.56105 8.90652 9.45851C8.79066 9.2521 8.70011 9.03437 8.63553 8.804C8.60157 8.6948 8.50436 8.62156 8.39316 8.62156H7.83053V7.38777H8.39316C8.50569 7.38777 8.6029 7.31452 8.63686 7.19999C8.70011 6.97361 8.79 6.75521 8.90785 6.54748C8.96378 6.44694 8.9438 6.3211 8.86523 6.24586L8.4684 5.84703L9.34131 4.97412L9.73681 5.36763C9.81538 5.45086 9.94122 5.47017 10.0438 5.41357C10.2502 5.29772 10.4679 5.20717 10.6983 5.14259C10.8075 5.10863 10.8807 5.01142 10.8807 4.90022V4.33759H12.1145V4.90022C12.1145 5.01275 12.1878 5.10996 12.3023 5.14392C12.5287 5.20717 12.7471 5.29706 12.9548 5.4149C13.0553 5.47083 13.1812 5.45086 13.2564 5.37229L13.6552 4.97546L14.5281 5.84837L14.1346 6.24387C14.0514 6.32244 14.0321 6.44828 14.0887 6.55083C14.2046 6.75723 14.2951 6.97497 14.3597 7.20533C14.3936 7.31453 14.4909 7.38777 14.6021 7.38777H15.1647V8.62157H14.6021C14.4895 8.62157 14.3923 8.69481 14.3584 8.80934C14.2951 9.03572 14.2052 9.25412 14.0874 9.46185C14.0314 9.56239 14.0514 9.68823 14.13 9.76347L14.5268 10.1623L13.6539 11.0352L13.2584 10.6417C13.1798 10.5585 13.054 10.5392 12.9514 10.5958C12.745 10.7116 12.5273 10.8022 12.2969 10.8667C12.1877 10.9007 12.1145 10.9979 12.1145 11.1091V11.6717H10.8807ZM18.6636 18.5052C18.6636 18.5971 18.5884 18.6724 18.4965 18.6724H15.8304C15.7385 18.6724 15.6633 18.5971 15.6633 18.5052V15.8392C15.6633 15.7473 15.7385 15.672 15.8304 15.672H18.4965C18.5884 15.672 18.6636 15.7473 18.6636 15.8392V18.5052Z" fill="black"/>
</svg>
