<svg width="24" height="25" viewBox="0 0 24 25" fill="none" xmlns="http://www.w3.org/2000/svg">
<path d="M10 9.385L10.01 9.374M14 9.385L14.01 9.374M10 13.385L10.01 13.374M14 13.385L14.01 13.374M10 17.385L10.01 17.374M14 17.385L14.01 17.374M6 20.775V5.975C6 5.81587 6.06321 5.66326 6.17574 5.55074C6.28826 5.43821 6.44087 5.375 6.6 5.375H12V3.975C12 3.81587 12.0632 3.66326 12.1757 3.55074C12.2883 3.43821 12.4409 3.375 12.6 3.375H17.4C17.5591 3.375 17.7117 3.43821 17.8243 3.55074C17.9368 3.66326 18 3.81587 18 3.975V20.775C18 20.9341 17.9368 21.0867 17.8243 21.1993C17.7117 21.3118 17.5591 21.375 17.4 21.375H6.6C6.44087 21.375 6.28826 21.3118 6.17574 21.1993C6.06321 21.0867 6 20.9341 6 20.775Z" stroke="#2E2E2E" stroke-width="1.5" stroke-linecap="round" stroke-linejoin="round"/>
</svg>
