<svg width="25" height="25" viewBox="0 0 25 25" fill="none" xmlns="http://www.w3.org/2000/svg">
<path d="M13.3521 8.60289V8.79232C13.3521 8.97946 13.5048 9.13009 13.6944 9.13009C13.8841 9.13009 14.0367 8.97946 14.0367 8.79232V8.59148C14.5085 8.51388 14.8763 8.1259 14.8763 7.6375C14.8763 7.26322 14.6658 6.92545 14.3235 6.75656L13.3197 6.26132C13.2157 6.20882 13.1463 6.10156 13.1463 5.98517V5.79118C13.1463 5.62001 13.2874 5.48079 13.4608 5.48079H13.8794C14.0529 5.48079 14.194 5.62001 14.194 5.79118V5.99658C14.194 6.18372 14.3466 6.33435 14.5363 6.33435C14.7259 6.33435 14.8786 6.18372 14.8786 5.99658V5.79118C14.8786 5.30278 14.5108 4.9148 14.039 4.8372V4.63408C14.039 4.44694 13.8864 4.29631 13.6967 4.29631C13.5071 4.29631 13.3544 4.44694 13.3544 4.63408V4.82579C12.8572 4.88056 12.4663 5.28452 12.4663 5.78889V5.98288C12.4663 6.35717 12.6768 6.69494 13.0168 6.86383L14.0205 7.35907C14.1269 7.41156 14.194 7.51655 14.194 7.63522C14.194 7.80639 14.0529 7.94561 13.8794 7.94561H13.4608C13.2874 7.94561 13.1463 7.80639 13.1463 7.63522V7.46862C13.1463 7.28148 12.9936 7.13085 12.804 7.13085C12.6143 7.13085 12.4617 7.28148 12.4617 7.46862V7.63522C12.4617 8.1396 12.8549 8.54355 13.3498 8.59833L13.3521 8.60289ZM13.669 10.431C15.7459 10.431 17.4365 8.76265 17.4365 6.71548C17.4365 4.66831 15.7482 3 13.669 3C11.5898 3 9.90373 4.66831 9.90373 6.71548C9.90373 8.76265 11.5921 10.431 13.669 10.431ZM13.669 3.67326C15.3689 3.67326 16.752 5.03804 16.752 6.71548C16.752 8.39293 15.3689 9.7577 13.669 9.7577C11.9691 9.7577 10.586 8.39293 10.586 6.71548C10.586 5.03804 11.9691 3.67326 13.669 3.67326ZM20.5958 10.4857C20.0546 9.95169 19.1781 9.95397 18.6392 10.4857L16.5253 12.5649C16.2801 12.2043 15.8638 11.9669 15.392 11.9669H8.86759C8.32639 11.9669 7.79907 12.186 7.42209 12.5671L5.61116 14.3998L5.44695 14.2377C4.90575 13.7037 3.95981 13.7037 3.42093 14.2377C3.15033 14.5048 3 14.8585 3 15.2374C3 15.6162 3.14802 15.9722 3.42093 16.2393L7.82683 20.5846C8.09743 20.8517 8.45591 21 8.83984 21C9.22145 21 9.58225 20.8517 9.85285 20.5846C10.4102 20.0323 10.4102 19.1354 9.85285 18.5854L9.70714 18.4416L11.3261 16.8669C11.5805 16.6181 11.9182 16.4812 12.2767 16.4812H15.6326C16.1784 16.4812 16.6895 16.2712 17.0757 15.8924L20.5958 12.4188C21.1347 11.887 21.1347 11.0198 20.5958 10.488V10.4857ZM9.36947 20.1054C9.22839 20.2469 9.03874 20.3222 8.83984 20.3222C8.64094 20.3222 8.45129 20.2469 8.3102 20.1054L3.90431 15.76C3.76091 15.6208 3.68459 15.4336 3.68459 15.2374C3.68459 15.0411 3.76091 14.8539 3.90431 14.7147C4.05001 14.5709 4.24198 14.4979 4.43394 14.4979C4.6259 14.4979 4.81787 14.5709 4.96357 14.7147L9.36947 19.0601C9.66088 19.3499 9.66088 19.8178 9.36947 20.1054ZM20.1125 11.9395L16.5924 15.4131C16.3356 15.6664 15.9957 15.8056 15.6349 15.8056H12.279C11.7401 15.8056 11.2313 16.011 10.8474 16.383L9.22376 17.9601L6.09685 14.8768L7.91472 13.0396C8.1645 12.7862 8.51142 12.6424 8.8699 12.6424H15.3943C15.769 12.6424 16.0743 12.9437 16.0743 13.3134C16.0743 13.6831 15.769 13.9844 15.3943 13.9844H11.9367C11.747 13.9844 11.5944 14.135 11.5944 14.3222C11.5944 14.5093 11.747 14.6599 11.9367 14.6599H15.3943C16.146 14.6599 16.7589 14.0552 16.7589 13.3157C16.7589 13.3089 16.7589 13.302 16.7589 13.2952L19.1272 10.9673C19.4001 10.698 19.8442 10.698 20.1171 10.9673C20.39 11.2366 20.39 11.6748 20.1171 11.9441L20.1125 11.9395Z" fill="black"/>
</svg>
