<svg width="24" height="24" viewBox="0 0 24 24" fill="none" xmlns="http://www.w3.org/2000/svg">
<path fill-rule="evenodd" clip-rule="evenodd" d="M4.28585 21.1303C4.04907 21.1303 3.85728 20.9357 3.85728 20.6955V4.17377C3.85728 3.45313 4.43265 2.86943 5.14299 2.86943H16.9288C16.6598 3.23247 16.5002 3.68465 16.5002 4.17377V20.6955C16.5002 20.9357 16.3084 21.1303 16.0716 21.1303H4.28585ZM17.3572 6.99993V20.6957C17.3572 21.4163 16.7818 22 16.0715 22H4.28571C3.57537 22 3 21.4163 3 20.6957V4.17391C3 2.97283 3.95893 2 5.14286 2H18.8571C20.0411 2 21 2.97283 21 4.17391V6.34783C21 6.70762 20.7118 7.00001 20.3571 7.00001L17.3572 6.99993ZM20.1429 4.17391V6.13042H17.3572V4.17391C17.3572 3.45327 17.9326 2.86957 18.6429 2.86957H18.8572C19.5676 2.86957 20.1429 3.45327 20.1429 4.17391ZM6.42857 12.4349C6.19179 12.4349 6 12.2404 6 12.0001V9.78819C6 9.54797 6.19179 9.35341 6.42857 9.35341C6.66536 9.35341 6.85714 9.54797 6.85714 9.78819V12.0001C6.85714 12.2404 6.66536 12.4349 6.42857 12.4349ZM10.3758 12.4349C10.139 12.4349 9.94725 12.2404 9.94725 12.0001V7.57635C9.94725 7.33613 10.139 7.14156 10.3758 7.14156C10.6126 7.14156 10.8044 7.33613 10.8044 7.57635V12.0001C10.8044 12.2404 10.6126 12.4349 10.3758 12.4349ZM14.1429 12.4349C13.9061 12.4349 13.7143 12.2404 13.7143 12.0001V5.69586C13.7143 5.45564 13.9061 5.26108 14.1429 5.26108C14.3796 5.26108 14.5714 5.45564 14.5714 5.69586V12.0001C14.5714 12.2404 14.3796 12.4349 14.1429 12.4349ZM6.64279 14.6088C6.16921 14.6088 5.78565 14.998 5.78565 15.4784V17.8697C5.78565 18.3502 6.16921 18.7393 6.64279 18.7393H13.7141C14.1877 18.7393 14.5713 18.3502 14.5713 17.8697V15.4784C14.5713 14.998 14.1877 14.6088 13.7141 14.6088H6.64279ZM6.64279 15.4784H13.7141V17.8697H6.64279V15.4784Z" fill="black"/>
</svg>
