<svg width="25" height="25" viewBox="0 0 25 25" fill="none" xmlns="http://www.w3.org/2000/svg">
<path fill-rule="evenodd" clip-rule="evenodd" d="M6.00011 7.92954C6.00011 6.98466 6.76603 6.21875 7.71025 6.21875H17.2899C18.2341 6.21875 19 6.98466 19 7.92954V18.3841C19 19.3392 17.8101 19.7761 17.1917 19.0487L16.9152 18.7234C16.7709 18.5528 16.5047 18.565 16.3751 18.7472L15.6445 19.7786C15.2763 20.2989 14.5277 20.3611 14.0786 19.9082L12.7431 18.5611C12.609 18.4264 12.391 18.4264 12.2569 18.5611L10.9214 19.9082C10.4723 20.3611 9.72375 20.2989 9.35554 19.7786L8.62492 18.7472C8.49535 18.565 8.22913 18.5528 8.0848 18.7234L7.80833 19.0487C7.18996 19.7761 6 19.3392 6 18.3841L6.00011 7.92954ZM7.71025 6.9032C7.14384 6.9032 6.6839 7.36249 6.6839 7.92954V18.3841C6.6839 18.7023 7.08098 18.8479 7.28688 18.6054L7.56336 18.2802C7.99762 17.7696 8.79561 17.8049 9.18305 18.3514L9.91368 19.3828C10.0368 19.5567 10.2864 19.5772 10.4358 19.4265L11.7714 18.0794C12.1729 17.6746 12.8272 17.6746 13.2288 18.0794L14.5643 19.4265C14.7137 19.5772 14.9633 19.5567 15.0864 19.3828L15.8171 18.3514C16.2045 17.8049 17.0025 17.7696 17.4368 18.2802L17.7132 18.6054C17.9191 18.8479 18.3162 18.7023 18.3162 18.3841V7.92954C18.3162 7.36249 17.8563 6.9032 17.2899 6.9032H7.71025Z" fill="black"/>
<path fill-rule="evenodd" clip-rule="evenodd" d="M12.1561 9.98316C12.1561 9.79394 12.0028 9.64062 11.8136 9.64062H8.39268C8.20345 9.64062 8.05078 9.79393 8.05078 9.98316C8.05078 10.1717 8.20345 10.3251 8.39268 10.3251H11.8136C12.0028 10.3251 12.1561 10.1717 12.1561 9.98316Z" fill="black"/>
<path fill-rule="evenodd" clip-rule="evenodd" d="M12.1561 12.7208C12.1561 12.5322 12.0028 12.3789 11.8136 12.3789H8.39268C8.20345 12.3789 8.05078 12.5322 8.05078 12.7208C8.05078 12.91 8.20345 13.0633 8.39268 13.0633H11.8136C12.0028 13.0633 12.1561 12.91 12.1561 12.7208Z" fill="black"/>
<path fill-rule="evenodd" clip-rule="evenodd" d="M12.1561 15.4552C12.1561 15.266 12.0028 15.1133 11.8136 15.1133H8.39268C8.20345 15.1133 8.05078 15.266 8.05078 15.4552C8.05078 15.6444 8.20345 15.7971 8.39268 15.7971H11.8136C12.0028 15.7971 12.1561 15.6444 12.1561 15.4552Z" fill="black"/>
<path fill-rule="evenodd" clip-rule="evenodd" d="M15.2381 9.64062C15.4267 9.64062 15.58 9.79393 15.58 9.98316V10.3873H16.6063C16.7956 10.3873 16.9482 10.5406 16.9482 10.7292C16.9482 10.9184 16.7956 11.0717 16.6063 11.0717H14.8648C14.5043 11.0717 14.2118 11.3636 14.2118 11.7247C14.2118 12.0852 14.5043 12.3777 14.8648 12.3777H15.6115C16.3498 12.3777 16.9483 12.9762 16.9483 13.7152C16.9483 14.4535 16.3498 15.0526 15.6115 15.0526H15.5801V15.4567C15.5801 15.646 15.4268 15.7986 15.2382 15.7986C15.049 15.7986 14.8956 15.646 14.8956 15.4567V15.0526H13.8693C13.6807 15.0526 13.5274 14.8993 13.5274 14.7101C13.5274 14.5215 13.6807 14.3682 13.8693 14.3682H15.6115C15.972 14.3682 16.2645 14.0757 16.2645 13.7152C16.2645 13.3547 15.972 13.0622 15.6115 13.0622H14.8648C14.1258 13.0622 13.5273 12.463 13.5273 11.7247C13.5273 10.9858 14.1258 10.3873 14.8648 10.3873H14.8956V9.98316C14.8956 9.79394 15.0489 9.64062 15.2381 9.64062Z" fill="black"/>
</svg>
