<svg width="25" height="25" viewBox="0 0 25 25" fill="none" xmlns="http://www.w3.org/2000/svg">
<path d="M17.3662 13.2638C17.1105 13.2641 16.8555 13.2921 16.6055 13.3472C16.1192 12.8258 15.4627 12.5053 14.7606 12.4467C16.7647 9.76653 15.3822 4.72402 12.0479 4.69531C10.0347 4.69531 8.39662 6.78115 8.39662 9.34509C8.38514 10.4548 8.71396 11.5402 9.3368 12.4487C8.88487 12.4839 8.44756 12.6284 8.0608 12.8702C7.67403 13.1121 7.34884 13.4443 7.11194 13.8397L5.22289 17.0046C5.08006 17.2514 5.00323 17.5323 5.0001 17.8192C4.99697 18.106 5.06766 18.3886 5.20507 18.6386C5.34247 18.8886 5.54175 19.0972 5.78289 19.2434C6.02403 19.3897 6.29852 19.4684 6.5788 19.4717L14.6745 19.4717C16.856 21.9779 21.0033 20.3798 21 16.9824C20.9989 15.9965 20.6157 15.0513 19.9345 14.3542C19.2533 13.6571 18.3296 13.2649 17.3662 13.2638ZM12.048 5.28037C15.1444 5.35511 16.1029 10.3677 13.967 12.5189C11.8196 14.7471 8.91447 12.4851 8.96839 9.34506C8.96834 7.10383 10.3499 5.28037 12.048 5.28037ZM6.57875 18.8866C6.39951 18.8843 6.224 18.8338 6.06984 18.7402C5.91568 18.6466 5.78829 18.5131 5.70045 18.3532C5.61262 18.1933 5.56742 18.0126 5.5694 17.8291C5.57137 17.6457 5.62046 17.466 5.71172 17.3081L7.59935 14.1457C7.80611 13.7998 8.09655 13.5143 8.44263 13.3168C8.7887 13.1193 9.17871 13.0165 9.57495 13.0183H9.81747C10.1074 13.3234 10.4542 13.5659 10.8373 13.7315C11.2205 13.8971 11.6321 13.9824 12.048 13.9824C12.4639 13.9824 12.8756 13.8971 13.2587 13.7314C13.6418 13.5658 13.9886 13.3233 14.2785 13.0182C14.8899 12.9689 15.4969 13.1578 15.9779 13.5472C13.9937 14.3311 13.0843 17.0038 14.2508 18.8866L6.57875 18.8866ZM17.3662 20.116C16.5544 20.1151 15.7761 19.7846 15.202 19.1972C14.628 18.6097 14.3051 17.8132 14.3042 16.9825C14.4724 12.8254 20.2607 12.8266 20.4283 16.9825C20.4274 17.8133 20.1045 18.6097 19.5304 19.1972C18.9564 19.7846 18.1781 20.1151 17.3662 20.116Z" fill="black"/>
<path d="M18.5987 16.9362V15.9247C18.5566 14.2845 16.4459 14.2865 16.4013 15.9247V16.9362C16.2858 16.9745 16.1844 17.0541 16.112 17.163C16.0397 17.272 16.0004 17.4044 16 17.5407V17.9993C16.0005 18.4493 16.1588 18.8807 16.44 19.1987C16.7213 19.5167 17.1025 19.6953 17.5 19.6953C17.8975 19.6953 18.2787 19.5167 18.56 19.1987C18.8412 18.8807 18.9995 18.4493 19 17.9993V17.5407C18.9996 17.4044 18.9603 17.272 18.888 17.163C18.8156 17.0541 18.7142 16.9745 18.5987 16.9362ZM17.5 15.2416C17.6604 15.2414 17.8142 15.3133 17.9279 15.4413C18.0416 15.5693 18.1058 15.7432 18.1065 15.9247V16.9072H16.8935V15.9247C16.8941 15.7431 16.9582 15.5692 17.072 15.4411C17.1857 15.3131 17.3396 15.2413 17.5 15.2416ZM18.5079 17.9993C18.5055 18.3002 18.3982 18.5878 18.2095 18.7995C18.0207 19.0113 17.7657 19.1301 17.5 19.1301C17.2342 19.1301 16.9793 19.0113 16.7905 18.7995C16.6018 18.5878 16.4945 18.3002 16.4921 17.9993V17.5407C16.4922 17.5204 16.4993 17.501 16.512 17.4867C16.5246 17.4724 16.5418 17.4644 16.5597 17.4644H18.4403C18.4582 17.4644 18.4754 17.4724 18.488 17.4867C18.5007 17.501 18.5078 17.5204 18.5079 17.5407V17.9993Z" fill="black"/>
</svg>
