<svg width="24" height="24" viewBox="0 0 24 24" fill="none" xmlns="http://www.w3.org/2000/svg">
<path d="M19.1966 14.0912C18.1359 13.8539 17.1698 13.4325 16.5433 13.1191C16.2081 12.9536 15.937 12.696 15.7521 12.3819C16.4935 11.6817 16.9689 10.7012 17.0103 9.59911L17.1176 6.73875C17.2468 2.94244 12.5684 1.15293 9.97151 3.79212C9.20472 4.58852 8.80529 5.6349 8.84667 6.73961L8.95392 9.59997C8.9953 10.703 9.47074 11.6835 10.213 12.3836C10.0272 12.6977 9.75701 12.9536 9.43189 13.115C9.11859 13.2239 8.89226 13.4975 9.03328 13.8353C9.44538 14.6875 10.7493 13.4477 11.0203 12.9714C12.1638 13.6419 13.8012 13.6419 14.9446 12.9714C15.2249 13.4131 15.6218 13.7728 16.1007 14.0093C16.7746 14.3463 17.8209 14.8024 18.9762 15.0608C19.5817 15.2001 20.0039 15.7246 20.0039 16.336V17.4871L19.352 17.6544C17.4308 18.1518 15.4379 18.4204 13.4304 18.4541C12.7835 18.4727 12.7903 19.4397 13.438 19.449C15.5272 19.4161 17.6013 19.1357 19.6002 18.618L20.367 18.4212C20.7386 18.3249 20.9987 17.9896 20.9987 17.6071V16.336C20.9987 15.2584 20.2589 14.3353 19.1957 14.0903L19.1966 14.0912ZM9.94791 9.56285L9.84066 6.70249C9.80941 5.87061 10.11 5.08181 10.6877 4.48209C12.6418 2.49741 16.2275 3.81997 16.1228 6.70249L16.0156 9.5622C15.7546 13.4379 10.2082 13.4387 9.94722 9.5622L9.94791 9.56285Z" fill="black"/>
<path d="M7.57416 15.0498C8.67958 13.4485 7.44495 11.1413 5.4942 11.1802C4.15401 11.1523 2.9726 12.3338 3.00048 13.6741C2.96417 15.6275 5.26785 16.8587 6.87153 15.7533L9.2859 18.1679L8.75642 18.6974C8.56219 18.8917 8.56219 19.2067 8.75642 19.4009C8.95065 19.5952 9.26564 19.5952 9.45987 19.4009L9.98935 18.8714L10.6979 19.58L9.66507 20.6128C9.34754 20.9076 9.5916 21.4776 10.0164 21.4616C10.1439 21.4616 10.2706 21.4134 10.3677 21.3155L11.4005 20.2826L11.7551 20.6373C11.9494 20.8316 12.2644 20.8316 12.4586 20.6373C12.6528 20.4431 12.6528 20.1281 12.4586 19.9338L7.57407 15.0489L7.57416 15.0498ZM4.43447 14.7339C3.0757 13.2914 5.11174 11.2552 6.55412 12.6141C7.9129 14.0574 5.87685 16.0928 4.43447 14.7339Z" fill="black"/>
</svg>
