<svg width="24" height="24" viewBox="0 0 24 24" fill="none" xmlns="http://www.w3.org/2000/svg">
<path d="M10.8785 11.3164C10.9311 11.3251 10.975 11.3547 11.0024 11.396C11.0147 11.4141 11.024 11.4358 11.0291 11.4582C11.0348 11.4871 11.0348 11.5095 11.0298 11.5385C11.024 11.5631 11.0154 11.5833 11.0024 11.6021C10.975 11.6434 10.9311 11.673 10.8785 11.6817C10.0542 11.8133 9.32435 12.2423 8.80343 12.8549C8.29116 13.4575 7.98062 14.2387 7.98062 15.09V17.9356H9.13918L11.0687 15.6339C11.189 15.4914 11.3288 15.3814 11.4844 15.3091L11.4952 15.3047C11.6502 15.2339 11.8195 15.1984 11.9996 15.1984C12.1841 15.1984 12.3563 15.236 12.5141 15.3098C12.6704 15.3829 12.8109 15.4921 12.9305 15.6346L14.86 17.9363H16.0186V17.4372C16.0186 17.3352 16.1015 17.252 16.203 17.252C16.3046 17.252 16.3875 17.3352 16.3875 17.4372V17.9363H16.9711C17.2535 17.9363 17.5108 18.0528 17.6967 18.2394C17.8825 18.426 17.9985 18.6835 17.9985 18.9678C17.9985 19.2521 17.8825 19.5103 17.6967 19.6969C17.5108 19.8835 17.2543 20 16.9711 20H7.02744C6.74501 20 6.48778 19.8835 6.30189 19.6969C6.116 19.5103 6 19.2528 6 18.9685C6 18.6842 6.116 18.426 6.30189 18.2394C6.48778 18.0528 6.74499 17.9363 7.02744 17.9363H7.61106V15.0907C7.61106 14.1497 7.95546 13.2838 8.52321 12.6162C8.94687 12.1179 9.49661 11.7294 10.1206 11.5008C9.49663 11.2723 8.94687 10.8838 8.52321 10.3855C7.95474 9.71709 7.61106 8.85199 7.61106 7.91097V5.06538H7.02744C6.74573 5.06538 6.48922 4.94892 6.30261 4.76231C6.116 4.57641 6.00072 4.31818 6.00072 4.0339C6.00072 3.75036 6.11672 3.49139 6.30261 3.3055C6.4885 3.11888 6.74499 3.00242 7.02816 3.00242H9.13199C9.23358 3.00242 9.31644 3.0856 9.31644 3.18759C9.31644 3.28958 9.23358 3.37277 9.13199 3.37277H7.02816C6.84803 3.37277 6.68303 3.44727 6.56416 3.56735C6.44527 3.6867 6.37034 3.85235 6.37034 4.0339C6.37034 4.21545 6.44455 4.3811 6.56416 4.50045C6.68232 4.62052 6.84732 4.69503 7.02816 4.69503H16.9718C17.1484 4.69503 17.309 4.62414 17.4272 4.51058L17.4366 4.50045C17.5554 4.3811 17.6304 4.21545 17.6304 4.0339C17.6304 3.85236 17.5562 3.68742 17.4366 3.56736C17.3177 3.448 17.1527 3.37277 16.9726 3.37277H10.496C10.3944 3.37277 10.3115 3.28959 10.3115 3.1876C10.3115 3.08561 10.3944 3.00242 10.496 3.00242H16.9726C17.255 3.00242 17.5122 3.11888 17.6981 3.3055C17.884 3.49212 18 3.74962 18 4.0339C18 4.31744 17.884 4.57641 17.6981 4.76303L17.6859 4.77388C17.5007 4.95399 17.2485 5.06538 16.9726 5.06538H16.3889V7.91097C16.3889 8.85203 16.0445 9.71787 15.4761 10.3855C15.0524 10.8838 14.5034 11.2723 13.8794 11.5009C14.5034 11.7294 15.0524 12.1179 15.4761 12.6162C16.0453 13.2846 16.3889 14.1497 16.3889 15.0907V16.0687C16.3889 16.1707 16.3061 16.2539 16.2045 16.2539C16.1029 16.2539 16.02 16.1707 16.02 16.0687V15.0907C16.02 14.2394 15.7095 13.4589 15.1972 12.8557C14.6763 12.243 13.9464 11.8133 13.1222 11.6824C13.0696 11.6737 13.0256 11.6441 12.9983 11.6028C12.986 11.5848 12.9766 11.5631 12.9716 11.5406C12.9658 11.5117 12.9658 11.4893 12.9709 11.4603C12.9766 11.4358 12.9853 11.4155 12.9983 11.3967C13.0256 11.3555 13.0696 11.3258 13.1222 11.3171C13.9464 11.1855 14.6763 10.7565 15.1972 10.1439C15.7095 9.54134 16.02 8.76012 16.02 7.90881V7.00753H7.98211V7.90881C7.98211 8.75947 8.29265 9.54067 8.80492 10.1439C9.32584 10.7565 10.0557 11.1862 10.88 11.3171L10.8785 11.3164ZM7.9806 5.06304V6.63703H16.0185V5.06304H7.9806ZM16.0185 16.6987C16.0185 16.5967 16.1014 16.5135 16.203 16.5135C16.3046 16.5135 16.3874 16.5967 16.3874 16.6987V16.8036C16.3874 16.9056 16.3046 16.9888 16.203 16.9888C16.1014 16.9888 16.0185 16.9056 16.0185 16.8036V16.6987ZM9.76091 3.37035C9.65932 3.37035 9.57646 3.28717 9.57646 3.18518C9.57646 3.08318 9.65932 3 9.76091 3H9.86538C9.96697 3 10.0498 3.08318 10.0498 3.18518C10.0498 3.28717 9.96697 3.37035 9.86538 3.37035H9.76091ZM9.61897 17.934H14.3794L12.6488 15.8697C12.5659 15.7706 12.4679 15.6939 12.3591 15.6433C12.2511 15.5926 12.1307 15.5673 11.9996 15.5673C11.8721 15.5673 11.7532 15.5919 11.648 15.6396L11.6408 15.6433C11.532 15.6946 11.434 15.7706 11.3512 15.8697L9.62051 17.934L9.61897 17.934ZM16.9717 18.3044H7.02801C6.84788 18.3044 6.68288 18.3789 6.56401 18.4989C6.44512 18.6183 6.37019 18.7839 6.37019 18.9655C6.37019 19.1478 6.4444 19.3127 6.56401 19.4328C6.68289 19.5521 6.84789 19.6273 7.02801 19.6273H16.9717C17.1518 19.6273 17.3168 19.5528 17.4357 19.4328C17.5546 19.3134 17.6295 19.1478 17.6295 18.9669C17.6295 18.7847 17.5553 18.619 17.4357 18.4997C17.3168 18.3803 17.1518 18.3051 16.9717 18.3051V18.3044Z" fill="black"/>
</svg>
