<svg width="25" height="25" viewBox="0 0 25 25" fill="none" xmlns="http://www.w3.org/2000/svg">
<path fill-rule="evenodd" clip-rule="evenodd" d="M8.17357 5C7.52906 5 7 5.52406 7 6.16634V19.1816C7 19.8238 7.52906 20.3479 8.17357 20.3479H17.3477C17.9922 20.3479 18.5213 19.8238 18.5213 19.1816V6.16634C18.5213 5.52406 17.9922 5 17.3477 5H8.17357ZM8.17357 5.52917H17.3477C17.7111 5.52917 17.9942 5.81101 17.9942 6.16634V19.1816C17.9942 19.5369 17.7111 19.8187 17.3477 19.8187H8.17357C7.81015 19.8187 7.52917 19.5369 7.52917 19.1816V6.16634C7.52917 5.81101 7.81015 5.52917 8.17357 5.52917ZM12.7614 6.86552C11.1896 6.86552 9.90628 8.13582 9.90628 9.69739C9.90628 11.259 11.1896 12.5277 12.7614 12.5277C14.3333 12.5277 15.615 11.259 15.615 9.69739C15.615 8.13582 14.3333 6.86552 12.7614 6.86552ZM12.4958 7.40967V7.4629V9.7501L10.777 10.7345L10.7052 10.7754C10.5331 10.454 10.4354 10.0873 10.4354 9.6974C10.4354 8.5133 11.3335 7.53987 12.4958 7.40967ZM13.0255 7.40967C14.1886 7.53896 15.0858 8.51259 15.0858 9.69739C15.0858 10.9704 14.0498 11.998 12.7614 11.998C12.0603 11.998 11.4333 11.6941 11.0075 11.2115L11.039 11.1934L12.8927 10.133C12.9329 10.1099 12.9663 10.0767 12.9896 10.0366C13.0129 9.99649 13.0253 9.95098 13.0255 9.90461V7.4629L13.0255 7.40967ZM9.5585 13.8341C9.48869 13.8344 9.42181 13.8622 9.37244 13.9116C9.32308 13.9609 9.29522 14.0278 9.29495 14.0976C9.29481 14.1324 9.30152 14.1668 9.31469 14.199C9.32787 14.2311 9.34724 14.2604 9.37171 14.285C9.39619 14.3097 9.42528 14.3293 9.45733 14.3427C9.48938 14.3561 9.52375 14.3631 9.5585 14.3633H15.9628C15.9975 14.3631 16.0319 14.3561 16.0639 14.3427C16.096 14.3293 16.1251 14.3097 16.1495 14.285C16.174 14.2604 16.1934 14.2311 16.2066 14.199C16.2197 14.1668 16.2264 14.1324 16.2263 14.0976C16.226 14.0278 16.1982 13.9609 16.1488 13.9116C16.0995 13.8622 16.0326 13.8344 15.9628 13.8341H9.5585ZM9.5585 15.8929C9.52375 15.893 9.48938 15.9 9.45733 15.9134C9.42528 15.9268 9.39619 15.9464 9.37171 15.9711C9.34724 15.9958 9.32787 16.025 9.3147 16.0572C9.30152 16.0893 9.29481 16.1237 9.29495 16.1585C9.29522 16.2283 9.32308 16.2952 9.37244 16.3446C9.42181 16.3939 9.48869 16.4218 9.5585 16.422H15.9628C16.0326 16.4218 16.0995 16.3939 16.1488 16.3446C16.1982 16.2952 16.226 16.2283 16.2263 16.1585C16.2264 16.1237 16.2197 16.0893 16.2066 16.0572C16.1934 16.025 16.174 15.9958 16.1495 15.9711C16.1251 15.9464 16.096 15.9268 16.0639 15.9134C16.0319 15.9 15.9975 15.893 15.9628 15.8929H9.5585ZM13.8864 17.9532C13.8517 17.9531 13.8172 17.9598 13.7851 17.973C13.7529 17.9861 13.7237 18.0055 13.699 18.03C13.6743 18.0545 13.6547 18.0835 13.6413 18.1156C13.6279 18.1476 13.6209 18.182 13.6208 18.2168C13.6206 18.2517 13.6274 18.2863 13.6407 18.3186C13.654 18.3509 13.6736 18.3802 13.6983 18.4049C13.723 18.4296 13.7523 18.4491 13.7846 18.4624C13.8169 18.4757 13.8515 18.4825 13.8864 18.4824H15.9628C15.9975 18.4822 16.0319 18.4753 16.0639 18.4618C16.096 18.4484 16.1251 18.4288 16.1495 18.4042C16.174 18.3795 16.1934 18.3502 16.2066 18.3181C16.2197 18.2859 16.2264 18.2515 16.2263 18.2168C16.226 18.147 16.1982 18.0801 16.1488 18.0307C16.0995 17.9813 16.0326 17.9535 15.9628 17.9532H13.8864Z" fill="black"/>
</svg>
