<svg width="24" height="25" viewBox="0 0 24 25" fill="none" xmlns="http://www.w3.org/2000/svg">
<path d="M3 14.375V10.375C3 6.604 3 4.718 4.172 3.547C5.344 2.376 7.229 2.375 11 2.375H13C16.771 2.375 18.657 2.375 19.828 3.547C20.482 4.2 20.771 5.075 20.898 6.375M21 10.375V14.375C21 18.146 21 20.032 19.828 21.203C18.656 22.374 16.771 22.375 13 22.375H11C7.229 22.375 5.343 22.375 4.172 21.203C3.518 20.55 3.229 19.675 3.102 18.375M8 14.375H13M8 10.375H9M16 10.375H12" stroke="#2E2E2E" stroke-width="1.5" stroke-linecap="round"/>
</svg>
