<svg width="24" height="24" viewBox="0 0 24 24" fill="none" xmlns="http://www.w3.org/2000/svg">
<path fill-rule="evenodd" clip-rule="evenodd" d="M7.73692 4.73833C7.16121 4.73833 6.6949 5.23378 6.6949 5.84547V17.6545C6.6949 18.2662 7.16121 18.7617 7.73692 18.7617H16.073C16.6488 18.7617 17.1151 18.2662 17.1151 17.6545V8.95025L13.1502 4.73833H7.73692ZM6 5.84547C6 4.82621 6.77761 4 7.73692 4H13.2941C13.3866 4 13.4745 4.03875 13.5403 4.10795L17.7084 8.53652C17.7728 8.60571 17.81 8.69982 17.81 8.79739V17.6545C17.81 18.6738 17.0323 19.5 16.073 19.5H7.73692C6.77761 19.5 6 18.6738 6 17.6545L6 5.84547Z" fill="black"/>
<path fill-rule="evenodd" clip-rule="evenodd" d="M13.1596 4.02827C13.2898 3.97084 13.439 4.00267 13.5386 4.10784L17.7067 8.53641C17.8057 8.64228 17.8356 8.80075 17.7816 8.93844C17.7275 9.07683 17.6012 9.16679 17.4605 9.16679H15.3765C14.0336 9.16679 12.9453 8.00984 12.9453 6.58299V4.36871C12.9453 4.21993 13.03 4.08501 13.1596 4.02827ZM13.6402 5.25996V6.583C13.6402 7.60226 14.4178 8.42848 15.3765 8.42848H16.6223L13.6402 5.25996Z" fill="black"/>
<path fill-rule="evenodd" clip-rule="evenodd" d="M11.208 7.69077H8.42969V6.95312H11.208V7.69077Z" fill="black"/>
<path fill-rule="evenodd" clip-rule="evenodd" d="M11.9029 9.90561H8.42969V9.16797H11.9029V9.90561Z" fill="black"/>
<path fill-rule="evenodd" clip-rule="evenodd" d="M12.3016 12.8861C12.1668 12.7464 11.9518 12.7464 11.817 12.8861L10.9678 13.7656C10.9007 13.8355 10.8629 13.9303 10.8629 14.0299V15.4409C10.8629 15.645 11.0186 15.8097 11.21 15.8097H12.9086C13.1001 15.8097 13.2557 15.645 13.2557 15.4409V14.0299C13.2557 13.9303 13.218 13.8355 13.1509 13.7656L12.3016 12.8861ZM11.3318 12.3575C11.7363 11.9381 12.3823 11.9381 12.7868 12.3575L13.636 13.2369C13.8372 13.4459 13.9506 13.7317 13.9506 14.0299V15.4409C13.9506 16.0525 13.4836 16.548 12.9086 16.548H11.21C10.6349 16.548 10.168 16.0525 10.168 15.4409V14.0299C10.168 13.7317 10.2819 13.4459 10.4825 13.2369L11.3318 12.3575Z" fill="black"/>
</svg>
