<svg width="25" height="25" viewBox="0 0 25 25" fill="none" xmlns="http://www.w3.org/2000/svg">
<path d="M4 19.1828C4 19.6334 4.35982 20 4.8021 20H6.35146C6.41581 20 6.48434 19.9738 6.53447 19.9228L8.54724 17.872C8.59347 17.8249 8.62301 17.7575 8.62301 17.6855V14.4539C8.62301 14.0033 8.26319 13.6367 7.82095 13.6367H6.57029V12.5317C6.57029 12.4386 6.64461 12.3629 6.73602 12.3629H11.7412V13.6366H10.4906C10.0483 13.6366 9.68851 14.0032 9.68851 14.4539V19.1828C9.68851 19.6334 10.0483 20 10.4906 20H12.0399C12.1044 20 12.1731 19.9736 12.223 19.9228L14.2357 17.872C14.2813 17.8256 14.3115 17.7585 14.3115 17.6855V14.4539C14.3115 14.0033 13.9517 13.6367 13.5094 13.6367H12.2588V12.3629H17.264C17.3554 12.3629 17.4297 12.4386 17.4297 12.5318V13.6367H16.1791C15.7368 13.6367 15.377 14.0033 15.377 14.4539V19.1828C15.377 19.6334 15.7368 20 16.1791 20H17.7285C17.7948 20 17.8622 19.973 17.9115 19.9228L19.9242 17.872C19.971 17.8243 20 17.7562 20 17.6855V16.5012C20 16.3555 19.8842 16.2375 19.7412 16.2375C19.5983 16.2375 19.4824 16.3555 19.4824 16.5012V17.4219H18.2717C17.8295 17.4219 17.4697 17.7885 17.4697 18.2391V19.4727H16.1791C16.0222 19.4727 15.8946 19.3426 15.8946 19.1828V14.4539C15.8946 14.294 16.0222 14.164 16.1791 14.164H19.1979C19.3548 14.164 19.4824 14.294 19.4824 14.4539V15.2707C19.4824 15.4163 19.5983 15.5343 19.7412 15.5343C19.8842 15.5343 20 15.4163 20 15.2707V14.4539C20 14.0033 19.6402 13.6367 19.1979 13.6367H17.9473V12.5317C17.9473 12.1478 17.6407 11.8355 17.264 11.8355H12.2588V10.5171H15.1348C15.4704 10.5171 15.7433 10.2391 15.7433 9.89719V9.37729C15.7433 9.23164 15.6275 9.11362 15.4845 9.11362C15.3416 9.11362 15.2257 9.23164 15.2257 9.37729V9.89719C15.2257 9.94824 15.1849 9.98979 15.1348 9.98979H14.2499V8.18862C14.2499 8.04296 14.1341 7.92494 13.9911 7.92494C13.8482 7.92494 13.7324 8.04296 13.7324 8.18862V9.98979H10.2676V8.18862C10.2676 8.04296 10.1518 7.92494 10.0088 7.92494C9.86587 7.92494 9.75003 8.04296 9.75003 8.18862V9.98979H8.86513C8.81503 9.98979 8.77428 9.94824 8.77428 9.89719V8.00383C8.77428 7.22142 9.39902 6.58488 10.1669 6.58488H13.833C14.6009 6.58488 15.2257 7.22142 15.2257 8.00387V8.14681C15.2257 8.29247 15.3415 8.41049 15.4845 8.41049C15.6274 8.41049 15.7433 8.29247 15.7433 8.14681V8.00387C15.7433 6.93064 14.8863 6.05753 13.833 6.05753H13.434C13.9321 5.6367 14.2499 5.00171 14.2499 4.29246C14.2499 3.0284 13.2406 2 12 2C10.7594 2 9.75003 3.0284 9.75003 4.29246C9.75003 5.00171 10.0679 5.6367 10.566 6.05753H10.1669C9.11363 6.05753 8.25671 6.93064 8.25671 8.00383V9.89719C8.25671 10.2391 8.52964 10.5171 8.86513 10.5171H11.7412V11.8355H6.73598C6.35922 11.8355 6.05268 12.1478 6.05268 12.5317V13.6367H4.8021C4.35981 13.6367 4 14.0033 4 14.4539L4 19.1828ZM17.9872 18.2391C17.9872 18.0793 18.1148 17.9492 18.2717 17.9492H19.1164L17.9872 19.0998L17.9872 18.2391ZM10.2676 4.29246C10.2676 3.31915 11.0447 2.52735 12 2.52735C12.9552 2.52735 13.7323 3.31915 13.7323 4.29246C13.7323 5.26194 12.9595 6.05753 11.9986 6.05753C11.044 6.05679 10.2676 5.26531 10.2676 4.29246ZM12.2987 19.0998V18.2391C12.2987 18.0793 12.4263 17.9492 12.5832 17.9492H13.4279L12.2987 19.0998ZM13.5094 14.164C13.6662 14.164 13.7939 14.2941 13.7939 14.4539V17.4219H12.5832C12.1409 17.4219 11.7811 17.7885 11.7811 18.2391V19.4727H10.4905C10.3337 19.4727 10.206 19.3426 10.206 19.1828V14.4539C10.206 14.2941 10.3337 14.164 10.4905 14.164H13.5094ZM6.61025 19.0998V18.2391C6.61025 18.0793 6.73788 17.9492 6.89474 17.9492H7.73945L6.61025 19.0998ZM4.51757 14.4539C4.51757 14.294 4.6452 14.164 4.8021 14.164H7.82095C7.97781 14.164 8.10544 14.294 8.10544 14.4539V17.4219H6.89474C6.45249 17.4219 6.09268 17.7885 6.09268 18.2391V19.4727H4.8021C4.6452 19.4727 4.51757 19.3426 4.51757 19.1828L4.51757 14.4539Z" fill="black"/>
</svg>
