<svg width="24" height="24" viewBox="0 0 24 24" fill="none" xmlns="http://www.w3.org/2000/svg">
<path d="M4.80001 14.7C4.80001 17.6853 7.21465 20.1 10.1999 20.1L9.42859 18.5574M19.1996 9.3C19.1996 6.3147 16.785 3.9 13.7998 3.9L14.571 5.4426M4.61012 9.3333C3.97294 9.678 2.30438 10.3818 3.32045 11.262C3.81724 11.6922 4.37073 12 5.06641 12H9.0344C9.72918 12 10.2827 11.6922 10.7795 11.262C11.7964 10.3818 10.127 9.678 9.48979 9.3333C7.99673 8.5251 6.10318 8.5251 4.61012 9.3333ZM9.0749 5.0457C9.07632 5.31296 9.02506 5.57788 8.92404 5.82532C8.82302 6.07276 8.67424 6.29786 8.48618 6.48776C8.29812 6.67766 8.07448 6.82864 7.82805 6.93206C7.58161 7.03548 7.31721 7.08932 7.04995 7.0905C6.7827 7.08932 6.5183 7.03548 6.27186 6.93206C6.02542 6.82864 5.80179 6.67766 5.61373 6.48776C5.42567 6.29786 5.27688 6.07276 5.17586 5.82532C5.07485 5.57788 5.02359 5.31296 5.02501 5.0457C5.02347 4.77836 5.07464 4.51335 5.17561 4.26581C5.27657 4.01826 5.42534 3.79305 5.61341 3.60306C5.80148 3.41306 6.02516 3.262 6.27165 3.15853C6.51815 3.05505 6.78262 3.00118 7.04995 3C7.31728 3.00118 7.58176 3.05505 7.82825 3.15853C8.07475 3.262 8.29843 3.41306 8.4865 3.60306C8.67457 3.79305 8.82334 4.01826 8.9243 4.26581C9.02526 4.51335 9.07644 4.77836 9.0749 5.0457ZM14.5098 18.3333C13.8727 18.678 12.2041 19.3818 13.2202 20.262C13.717 20.6922 14.2705 21 14.9661 21H18.9341C19.6289 21 20.1824 20.6922 20.6792 20.262C21.6962 19.3818 20.0267 18.678 19.3895 18.3333C17.8965 17.5251 16.0029 17.5251 14.5098 18.3333ZM18.9746 14.0457C18.9762 14.313 18.925 14.5781 18.824 14.8256C18.7231 15.0731 18.5743 15.2983 18.3862 15.4883C18.1982 15.6783 17.9745 15.8294 17.728 15.9329C17.4815 16.0364 17.217 16.0902 16.9497 16.0914C16.6824 16.0902 16.4179 16.0364 16.1714 15.9329C15.9249 15.8294 15.7012 15.6783 15.5131 15.4883C15.3251 15.2983 15.1763 15.0731 15.0753 14.8256C14.9744 14.5781 14.9232 14.313 14.9247 14.0457C14.9232 13.7784 14.9744 13.5133 15.0753 13.2658C15.1763 13.0183 15.3251 12.7931 15.5131 12.6031C15.7012 12.4131 15.9249 12.262 16.1714 12.1585C16.4179 12.055 16.6824 12.0012 16.9497 12C17.217 12.0012 17.4815 12.055 17.728 12.1585C17.9745 12.262 18.1982 12.4131 18.3862 12.6031C18.5743 12.7931 18.7231 13.0183 18.824 13.2658C18.925 13.5133 18.9762 13.7784 18.9746 14.0457Z" stroke="#2E2E2E" stroke-linecap="round" stroke-linejoin="round"/>
</svg>
