<svg width="24" height="24" viewBox="0 0 24 24" fill="none" xmlns="http://www.w3.org/2000/svg">
<path d="M3 20.7652C3 19.2775 4.06512 18.038 5.47468 17.7679C5.01685 17.4095 4.72182 16.8523 4.72182 16.2263C4.72182 15.1463 5.59833 14.2698 6.67832 14.2698C7.75831 14.2698 8.63482 15.1463 8.63482 16.2263C8.63482 16.8523 8.34055 17.4095 7.88274 17.7679C9.29142 18.0379 10.3566 19.2767 10.3566 20.7652C10.3566 20.8951 10.2517 21 10.1218 21H3.23493C3.10501 21 3 20.8951 3 20.7652ZM7.30424 18.1826H6.05208C4.70443 18.1826 3.59863 19.2141 3.47963 20.5304H9.87669C9.75773 19.2141 8.65191 18.1826 7.30424 18.1826ZM6.67816 17.7131C7.49834 17.7131 8.16511 17.0463 8.16511 16.2262C8.16511 15.406 7.49912 14.7393 6.67816 14.7393C5.8572 14.7393 5.19121 15.406 5.19121 16.2262C5.19121 17.0463 5.8572 17.7131 6.67816 17.7131ZM13.6434 20.7651C13.6434 19.2774 14.7077 18.0378 16.1173 17.7678C15.6594 17.4093 15.3652 16.8522 15.3652 16.2261C15.3652 15.1461 16.2417 14.2697 17.3217 14.2697C18.4017 14.2697 19.2782 15.1461 19.2782 16.2261C19.2782 16.8522 18.9839 17.4093 18.5261 17.7678C19.9356 18.0378 21 19.2766 21 20.7651C21 20.895 20.8943 20.9998 20.7652 20.9998H13.8783C13.7492 20.9998 13.6434 20.895 13.6434 20.7651ZM17.9476 18.1825H16.6955C15.3486 18.1825 14.242 19.2139 14.1238 20.5303H20.5201C20.4011 19.214 19.2953 18.1825 17.9484 18.1825H17.9476ZM17.3216 17.7129C18.1417 17.7129 18.8085 17.0462 18.8085 16.226C18.8085 15.4059 18.1417 14.7391 17.3216 14.7391C16.5014 14.7391 15.8346 15.4059 15.8346 16.226C15.8346 17.0462 16.5014 17.7129 17.3216 17.7129ZM6.91297 11.5627L7.4514 11.0243C7.54296 10.9327 7.69243 10.9327 7.78321 11.0243C7.87477 11.1158 7.87477 11.2645 7.78321 11.3561L7.06557 12.0737C6.85192 12.2873 6.50522 12.2873 6.29079 12.0737L5.57315 11.3561C5.48158 11.2645 5.48158 11.1158 5.57315 11.0243C5.66471 10.9327 5.8134 10.9327 5.90496 11.0243L6.44339 11.5627V8.24384C6.44339 7.93237 6.56705 7.6342 6.78695 7.41353C7.00765 7.19362 7.3058 7.06999 7.61728 7.06999H8.51728C8.52589 6.9393 8.54232 6.8086 8.5658 6.67948L7.99215 6.16064C7.9225 6.09804 7.89745 5.99943 7.92798 5.91022C8.10876 5.38276 8.38971 4.89521 8.75597 4.47496C8.81779 4.40375 8.91562 4.37636 9.00484 4.40531L9.74049 4.64321C10.0614 4.37087 10.4284 4.15879 10.8244 4.01715L10.9864 3.26197C11.006 3.16962 11.0787 3.09841 11.1711 3.08041C11.7189 2.9732 12.2808 2.9732 12.8286 3.08041C12.921 3.09841 12.993 3.16962 13.0133 3.26197L13.1753 4.01715C13.5713 4.1588 13.9392 4.37087 14.2593 4.64321L14.9949 4.40531C15.0841 4.37636 15.1819 4.40375 15.2438 4.47496C15.6108 4.89521 15.8918 5.38274 16.0725 5.91022C16.1031 5.99943 16.0772 6.09804 16.0076 6.16064L15.4339 6.6787C15.4574 6.80861 15.4739 6.93931 15.4825 7.06999H16.3825C16.6939 7.06999 16.9929 7.19363 17.212 7.41353C17.4327 7.63423 17.5564 7.93237 17.5564 8.24384V11.5627L18.0948 11.0243C18.1864 10.9327 18.3351 10.9327 18.4266 11.0243C18.5182 11.1158 18.5182 11.2645 18.4266 11.3561L17.7082 12.0737C17.4938 12.2873 17.1471 12.2873 16.9334 12.0737L16.2158 11.3561C16.1242 11.2645 16.1242 11.1158 16.2158 11.0243C16.3081 10.9327 16.4568 10.9327 16.5476 11.0243L17.086 11.5627V8.24384C17.086 8.0568 17.0117 7.8776 16.8794 7.74533C16.7472 7.61386 16.5679 7.53952 16.3817 7.53952H15.4817C15.4723 7.67021 15.4566 7.80091 15.4332 7.93081L16.0068 8.44887C16.0765 8.51147 16.1023 8.61008 16.0718 8.69929C15.891 9.22675 15.61 9.7143 15.243 10.1346C15.1812 10.2058 15.0833 10.2324 14.9941 10.2034L14.2585 9.96551C13.9376 10.2379 13.5713 10.4499 13.1754 10.5916L13.0126 11.3475C12.993 11.4391 12.9202 11.5103 12.8279 11.5283C12.2808 11.6355 11.7181 11.6355 11.1703 11.5283C11.078 11.5103 11.0052 11.4391 10.9856 11.3475L10.8236 10.5916C10.4276 10.4499 10.0606 10.2379 9.73973 9.96551L9.00407 10.2034C8.91486 10.2324 8.81703 10.2058 8.7552 10.1346C8.38895 9.7143 8.1072 9.22677 7.92721 8.69929C7.89669 8.61008 7.92173 8.51226 7.99139 8.44887L8.56504 7.93081C8.54156 7.80168 8.52512 7.67021 8.51652 7.53952H7.61652C7.42948 7.53952 7.25027 7.61387 7.118 7.74533C6.98652 7.87759 6.9114 8.0568 6.9114 8.24384V11.5627H6.91297ZM15.0208 7.30465C15.0208 7.08317 14.9957 6.86249 14.948 6.64571C14.9292 6.56275 14.9566 6.47667 15.02 6.42032L15.5756 5.91791C15.4332 5.55089 15.2352 5.20811 14.9887 4.90134L14.2757 5.13142C14.1951 5.15724 14.1067 5.13846 14.0441 5.08055C13.717 4.77926 13.3272 4.55465 12.9031 4.42161C12.8225 4.39578 12.7614 4.32926 12.7434 4.24631L12.5869 3.51461C12.1979 3.45435 11.8019 3.45435 11.413 3.51461L11.2565 4.24631C11.2385 4.32926 11.1782 4.39578 11.0968 4.42161C10.6726 4.55465 10.2829 4.77926 9.95578 5.08055C9.89395 5.13846 9.80552 5.15724 9.72414 5.13142L9.01197 4.90134C8.76466 5.20811 8.56744 5.55089 8.42501 5.91791L8.98065 6.42032C9.04404 6.47667 9.07065 6.56275 9.05265 6.64571C9.00413 6.86247 8.97987 7.08317 8.97987 7.30465C8.97987 7.52534 9.00413 7.74601 9.05265 7.96358C9.07065 8.04654 9.04404 8.13262 8.98065 8.18897L8.42501 8.69138C8.56745 9.0584 8.76466 9.40119 9.01197 9.70795L9.72414 9.47788C9.80474 9.45205 9.89318 9.47162 9.95578 9.52874C10.2837 9.83004 10.6726 10.0546 11.0968 10.1877C11.1782 10.2127 11.2385 10.28 11.2565 10.3622L11.4138 11.0939C11.8019 11.1542 12.1979 11.1542 12.5877 11.0939L12.7442 10.3622C12.7622 10.2792 12.8232 10.2127 12.9038 10.1877C13.328 10.0546 13.7178 9.82925 14.0449 9.52874C14.1075 9.47162 14.1951 9.45205 14.2765 9.47788L14.9895 9.70795C15.236 9.40119 15.434 9.0584 15.5764 8.69138L15.0208 8.18897C14.9582 8.13262 14.93 8.04654 14.9488 7.96358C14.9973 7.74682 15.0216 7.52612 15.0216 7.30465H15.0208ZM12 5.19166C13.166 5.19166 14.113 6.13859 14.113 7.30465C14.113 8.47071 13.1661 9.41763 12 9.41763C10.8339 9.41763 9.88691 8.47071 9.88691 7.30465C9.88691 6.13859 10.8339 5.19166 12 5.19166ZM12 5.66121C11.0929 5.66121 10.3565 6.39763 10.3565 7.30463C10.3565 8.21163 11.0929 8.94804 12 8.94804C12.907 8.94804 13.6434 8.21163 13.6434 7.30463C13.6434 6.39763 12.907 5.66121 12 5.66121ZM11.0514 7.55193C10.9599 7.46036 10.9599 7.31168 11.0514 7.22012C11.1438 7.12856 11.2925 7.12856 11.3833 7.22012L11.7542 7.59107C11.7706 7.60751 11.7926 7.61533 11.8153 7.61377C11.838 7.6122 11.8583 7.60124 11.8724 7.58246L12.5947 6.61911C12.673 6.51502 12.8193 6.49389 12.9234 6.57215C13.0275 6.64963 13.0486 6.79753 12.9704 6.90083L12.248 7.86419C12.1526 7.99096 12.007 8.07078 11.8489 8.08173C11.6908 8.09269 11.5351 8.03478 11.4224 7.92209L11.0514 7.55114L11.0514 7.55193Z" fill="black"/>
</svg>
