<svg width="24" height="24" viewBox="0 0 24 24" fill="none" xmlns="http://www.w3.org/2000/svg">
<path d="M14.1521 14.3053C14.8247 14.6598 15.4033 15.1738 15.8397 15.7982C16.3881 16.5835 16.7111 17.5406 16.7111 18.5701C16.7111 18.807 16.5223 19 16.289 19C16.0565 19 15.867 18.8077 15.867 18.5701C15.867 17.7234 15.6021 16.9374 15.1534 16.2956C14.7299 15.6902 14.1442 15.2098 13.463 14.9239C13.0388 15.193 12.537 15.3487 12.0001 15.3487C11.4632 15.3487 10.9621 15.193 10.5372 14.9239C9.85524 15.2098 9.2695 15.6902 8.8467 16.2956C8.39735 16.9382 8.13319 17.7235 8.13319 18.5701C8.13319 18.807 7.94441 19 7.71111 19C7.47782 19 7.28902 18.8077 7.28902 18.5701C7.28902 17.5406 7.61276 16.5836 8.16046 15.7982C8.59618 15.1746 9.17545 14.6599 9.84806 14.3053C9.45899 13.819 9.22499 13.1976 9.22499 12.5213C9.22499 11.7404 9.53509 11.0341 10.0376 10.523C10.54 10.0112 11.2335 9.69536 11.9994 9.69536C12.766 9.69536 13.4595 10.0112 13.9613 10.523C14.4637 11.0348 14.7738 11.7411 14.7738 12.5213C14.7738 13.1976 14.5398 13.8191 14.1508 14.3053H14.1521ZM7.71105 5.8591C7.17772 5.8591 6.69534 6.07917 6.34575 6.43523C5.99618 6.79056 5.78012 7.28262 5.78012 7.82587C5.78012 8.3691 5.99618 8.86042 6.34575 9.2165C6.69533 9.57183 7.1777 9.79264 7.71105 9.79264C8.2444 9.79264 8.72676 9.57256 9.07635 9.2165C9.4252 8.86044 9.64199 8.36912 9.64199 7.82587C9.64199 7.28264 9.42592 6.79131 9.07635 6.43523C8.72678 6.07917 8.2444 5.8591 7.71105 5.8591ZM5.74921 5.82766C6.25169 5.31585 6.94509 5 7.71105 5C8.47769 5 9.17109 5.31585 9.67289 5.82766C10.1754 6.33946 10.4855 7.04574 10.4855 7.82591C10.4855 8.60677 10.1754 9.31305 9.67289 9.82416C9.17041 10.336 8.47701 10.6518 7.71105 10.6518C7.17412 10.6518 6.67309 10.4961 6.24814 10.227C5.56622 10.5129 4.98048 10.9933 4.55768 11.5986C4.10832 12.2413 3.84417 13.0266 3.84417 13.8732C3.84417 14.1101 3.65539 14.3031 3.42208 14.3031C3.1888 14.3031 3 14.1108 3 13.8732C3 12.8437 3.32373 11.8867 3.87144 11.1013C4.30715 10.4777 4.88643 9.96295 5.55903 9.60906C5.16997 9.12212 4.93597 8.50138 4.93597 7.82509C4.93597 7.04422 5.24607 6.33795 5.74855 5.82683L5.74921 5.82766ZM16.2896 5C17.0562 5 17.7497 5.31585 18.2515 5.82766C18.7539 6.33946 19.064 7.04574 19.064 7.82591C19.064 8.50222 18.83 9.12369 18.441 9.60989C19.1136 9.96448 19.6921 10.4785 20.1286 11.1022C20.677 11.8874 21 12.8445 21 13.874C21 14.1109 20.8112 14.3039 20.5779 14.3039C20.3453 14.3039 20.1558 14.1116 20.1558 13.874C20.1558 13.0273 19.891 12.2413 19.4423 11.5995C19.0188 10.9941 18.4338 10.5137 17.7519 10.2279C17.3276 10.4969 16.8259 10.6526 16.289 10.6526C15.5223 10.6526 14.8289 10.3368 14.3271 9.82498C13.8246 9.31318 13.5145 8.6069 13.5145 7.82673C13.5145 7.04587 13.8246 6.33959 14.3271 5.82848C14.8296 5.31668 15.523 5.00082 16.289 5.00082L16.2896 5ZM17.6549 6.43524C17.3053 6.07918 16.823 5.8591 16.2896 5.8591C15.7563 5.8591 15.2739 6.07918 14.9243 6.43524C14.5755 6.79057 14.3587 7.28262 14.3587 7.82587C14.3587 8.3691 14.5747 8.86043 14.9243 9.21651C15.2739 9.57183 15.7563 9.79264 16.2896 9.79264C16.823 9.79264 17.3053 9.57256 17.6549 9.21651C18.0045 8.86045 18.2205 8.36912 18.2205 7.82587C18.2205 7.28264 18.0045 6.79131 17.6549 6.43524ZM13.3652 11.1299C13.0156 10.7738 12.5332 10.5538 11.9999 10.5538C11.4665 10.5538 10.9842 10.7738 10.6346 11.1299C10.285 11.486 10.0689 11.9773 10.0689 12.5205C10.0689 13.0638 10.285 13.5551 10.6346 13.9112C10.9841 14.2665 11.4665 14.4873 11.9999 14.4873C12.5332 14.4873 13.0156 14.2672 13.3652 13.9112C13.714 13.5551 13.9308 13.0638 13.9308 12.5205C13.9308 11.9773 13.7147 11.486 13.3652 11.1299Z" fill="black"/>
</svg>
