<svg width="24" height="24" viewBox="0 0 24 24" fill="none" xmlns="http://www.w3.org/2000/svg">
<mask id="path-1-inside-1_594_14736" fill="white">
<path d="M5.57143 8.5C5.57143 8.0165 5.64625 7.53773 5.79163 7.09103C5.93701 6.64433 6.1501 6.23845 6.41873 5.89656C6.68735 5.55467 7.00626 5.28347 7.35724 5.09844C7.70821 4.91341 8.08439 4.81818 8.46429 4.81818C8.84418 4.81818 9.22036 4.91341 9.57133 5.09844C9.92231 5.28347 10.2412 5.55467 10.5098 5.89656C10.7785 6.23845 10.9916 6.64433 11.1369 7.09103C11.2823 7.53773 11.3571 8.0165 11.3571 8.5C11.3571 9.47648 11.0524 10.413 10.5098 11.1034C9.96733 11.7939 9.23152 12.1818 8.46429 12.1818C7.69705 12.1818 6.96124 11.7939 6.41873 11.1034C5.87621 10.413 5.57143 9.47648 5.57143 8.5ZM8.46429 4C7.52656 4 6.62723 4.47411 5.96416 5.31802C5.30108 6.16193 4.92857 7.30653 4.92857 8.5C4.92857 9.69347 5.30108 10.8381 5.96416 11.682C6.62723 12.5259 7.52656 13 8.46429 13C9.40202 13 10.3013 12.5259 10.9644 11.682C11.6275 10.8381 12 9.69347 12 8.5C12 7.30653 11.6275 6.16193 10.9644 5.31802C10.3013 4.47411 9.40202 4 8.46429 4ZM14.5714 9.72727C14.5714 9.07629 14.7746 8.45196 15.1363 7.99165C15.498 7.53133 15.9885 7.27273 16.5 7.27273C17.0115 7.27273 17.502 7.53133 17.8637 7.99165C18.2254 8.45196 18.4286 9.07629 18.4286 9.72727C18.4286 10.3783 18.2254 11.0026 17.8637 11.4629C17.502 11.9232 17.0115 12.1818 16.5 12.1818C15.9885 12.1818 15.498 11.9232 15.1363 11.4629C14.7746 11.0026 14.5714 10.3783 14.5714 9.72727ZM16.5 6.45455C15.818 6.45455 15.164 6.79935 14.6817 7.4131C14.1995 8.02686 13.9286 8.85929 13.9286 9.72727C13.9286 10.5953 14.1995 11.4277 14.6817 12.0414C15.164 12.6552 15.818 13 16.5 13C17.182 13 17.836 12.6552 18.3183 12.0414C18.8005 11.4277 19.0714 10.5953 19.0714 9.72727C19.0714 8.85929 18.8005 8.02686 18.3183 7.4131C17.836 6.79935 17.182 6.45455 16.5 6.45455ZM4.92857 14.6364C4.41708 14.6364 3.92654 14.895 3.56487 15.3553C3.20319 15.8156 3 16.4399 3 17.0909C3 18.004 3.26807 19.2427 4.10507 20.2515C4.944 21.2628 6.31714 22 8.46364 22C10.6101 22 11.9846 21.2636 12.8235 20.2515C13.6605 19.2427 13.9286 18.004 13.9286 17.0909C13.9286 16.4399 13.7254 15.8156 13.3637 15.3553C13.002 14.895 12.5115 14.6364 12 14.6364H4.92857ZM3.64286 17.0909C3.64286 16.6569 3.77832 16.2407 4.01943 15.9338C4.26055 15.6269 4.58758 15.4545 4.92857 15.4545H12C12.341 15.4545 12.668 15.6269 12.9091 15.9338C13.1503 16.2407 13.2857 16.6569 13.2857 17.0909C13.2857 17.8142 13.0716 18.8255 12.3819 19.6575C11.694 20.4872 10.4957 21.1818 8.46429 21.1818C6.43286 21.1818 5.23457 20.4864 4.54671 19.6575C3.85693 18.8255 3.64286 17.8142 3.64286 17.0909ZM14.5476 19.2084C14.4662 19.4549 14.3672 19.7004 14.2506 19.9447C14.8459 20.2041 15.5859 20.3636 16.5 20.3636C18.327 20.3636 19.4578 19.7279 20.1347 18.9236C20.8046 18.1284 21 17.2005 21 16.6818C21 16.1393 20.8307 15.6191 20.5293 15.2355C20.2279 14.8519 19.8191 14.6364 19.3929 14.6364H14.1561C14.3284 14.8818 14.4756 15.1567 14.592 15.4545H19.3929C19.6486 15.4545 19.8939 15.5838 20.0747 15.814C20.2555 16.0442 20.3571 16.3563 20.3571 16.6818C20.3571 16.9821 20.2311 17.6906 19.6956 18.3264C19.1679 18.9539 18.2087 19.5455 16.5 19.5455C15.6932 19.5455 15.0536 19.4137 14.5476 19.2084Z"/>
</mask>
<path d="M5.57143 8.5C5.57143 8.0165 5.64625 7.53773 5.79163 7.09103C5.93701 6.64433 6.1501 6.23845 6.41873 5.89656C6.68735 5.55467 7.00626 5.28347 7.35724 5.09844C7.70821 4.91341 8.08439 4.81818 8.46429 4.81818C8.84418 4.81818 9.22036 4.91341 9.57133 5.09844C9.92231 5.28347 10.2412 5.55467 10.5098 5.89656C10.7785 6.23845 10.9916 6.64433 11.1369 7.09103C11.2823 7.53773 11.3571 8.0165 11.3571 8.5C11.3571 9.47648 11.0524 10.413 10.5098 11.1034C9.96733 11.7939 9.23152 12.1818 8.46429 12.1818C7.69705 12.1818 6.96124 11.7939 6.41873 11.1034C5.87621 10.413 5.57143 9.47648 5.57143 8.5ZM8.46429 4C7.52656 4 6.62723 4.47411 5.96416 5.31802C5.30108 6.16193 4.92857 7.30653 4.92857 8.5C4.92857 9.69347 5.30108 10.8381 5.96416 11.682C6.62723 12.5259 7.52656 13 8.46429 13C9.40202 13 10.3013 12.5259 10.9644 11.682C11.6275 10.8381 12 9.69347 12 8.5C12 7.30653 11.6275 6.16193 10.9644 5.31802C10.3013 4.47411 9.40202 4 8.46429 4ZM14.5714 9.72727C14.5714 9.07629 14.7746 8.45196 15.1363 7.99165C15.498 7.53133 15.9885 7.27273 16.5 7.27273C17.0115 7.27273 17.502 7.53133 17.8637 7.99165C18.2254 8.45196 18.4286 9.07629 18.4286 9.72727C18.4286 10.3783 18.2254 11.0026 17.8637 11.4629C17.502 11.9232 17.0115 12.1818 16.5 12.1818C15.9885 12.1818 15.498 11.9232 15.1363 11.4629C14.7746 11.0026 14.5714 10.3783 14.5714 9.72727ZM16.5 6.45455C15.818 6.45455 15.164 6.79935 14.6817 7.4131C14.1995 8.02686 13.9286 8.85929 13.9286 9.72727C13.9286 10.5953 14.1995 11.4277 14.6817 12.0414C15.164 12.6552 15.818 13 16.5 13C17.182 13 17.836 12.6552 18.3183 12.0414C18.8005 11.4277 19.0714 10.5953 19.0714 9.72727C19.0714 8.85929 18.8005 8.02686 18.3183 7.4131C17.836 6.79935 17.182 6.45455 16.5 6.45455ZM4.92857 14.6364C4.41708 14.6364 3.92654 14.895 3.56487 15.3553C3.20319 15.8156 3 16.4399 3 17.0909C3 18.004 3.26807 19.2427 4.10507 20.2515C4.944 21.2628 6.31714 22 8.46364 22C10.6101 22 11.9846 21.2636 12.8235 20.2515C13.6605 19.2427 13.9286 18.004 13.9286 17.0909C13.9286 16.4399 13.7254 15.8156 13.3637 15.3553C13.002 14.895 12.5115 14.6364 12 14.6364H4.92857ZM3.64286 17.0909C3.64286 16.6569 3.77832 16.2407 4.01943 15.9338C4.26055 15.6269 4.58758 15.4545 4.92857 15.4545H12C12.341 15.4545 12.668 15.6269 12.9091 15.9338C13.1503 16.2407 13.2857 16.6569 13.2857 17.0909C13.2857 17.8142 13.0716 18.8255 12.3819 19.6575C11.694 20.4872 10.4957 21.1818 8.46429 21.1818C6.43286 21.1818 5.23457 20.4864 4.54671 19.6575C3.85693 18.8255 3.64286 17.8142 3.64286 17.0909ZM14.5476 19.2084C14.4662 19.4549 14.3672 19.7004 14.2506 19.9447C14.8459 20.2041 15.5859 20.3636 16.5 20.3636C18.327 20.3636 19.4578 19.7279 20.1347 18.9236C20.8046 18.1284 21 17.2005 21 16.6818C21 16.1393 20.8307 15.6191 20.5293 15.2355C20.2279 14.8519 19.8191 14.6364 19.3929 14.6364H14.1561C14.3284 14.8818 14.4756 15.1567 14.592 15.4545H19.3929C19.6486 15.4545 19.8939 15.5838 20.0747 15.814C20.2555 16.0442 20.3571 16.3563 20.3571 16.6818C20.3571 16.9821 20.2311 17.6906 19.6956 18.3264C19.1679 18.9539 18.2087 19.5455 16.5 19.5455C15.6932 19.5455 15.0536 19.4137 14.5476 19.2084Z" fill="black"/>
<path d="M5.57143 8.5L7.07143 8.5L5.57143 8.5ZM8.46429 4.81818L8.46429 3.31818L8.46429 4.81818ZM11.3571 8.5L9.85714 8.5L11.3571 8.5ZM8.46429 12.1818L8.46429 10.6818L8.46429 12.1818ZM8.46429 4V2.5V4ZM4.92857 8.5H3.42857H4.92857ZM14.5714 9.72727L13.0714 9.72727L14.5714 9.72727ZM16.5 7.27273L16.5 5.77273L16.5 7.27273ZM18.4286 9.72727H19.9286H18.4286ZM16.5 6.45455L16.5 4.95455L16.5 6.45455ZM16.5 13L16.5 14.5L16.5 13ZM4.92857 14.6364L4.92857 13.1364L4.92857 14.6364ZM3 17.0909H1.5H3ZM4.10507 20.2515L5.25953 19.2938L5.25947 19.2938L4.10507 20.2515ZM12.8235 20.2515L11.6691 19.2938L11.6687 19.2943L12.8235 20.2515ZM13.9286 17.0909L15.4286 17.0909L13.9286 17.0909ZM12 14.6364V13.1364V14.6364ZM12.3819 19.6575L13.5366 20.6149L13.5367 20.6149L12.3819 19.6575ZM4.54671 19.6575L3.39191 20.6149L3.39245 20.6155L4.54671 19.6575ZM14.5476 19.2084L15.1118 17.8185L13.6262 17.2155L13.1233 18.7379L14.5476 19.2084ZM14.2506 19.9447L12.8968 19.2989L12.2285 20.6999L13.6515 21.3199L14.2506 19.9447ZM20.1347 18.9236L18.9875 17.9573L18.9871 17.9577L20.1347 18.9236ZM14.1561 14.6364V13.1364H11.2707L12.9284 15.4981L14.1561 14.6364ZM14.592 15.4545L13.1948 16.0004L13.5676 16.9545H14.592V15.4545ZM19.6956 18.3264L18.5484 17.36L18.5477 17.3609L19.6956 18.3264ZM5.57143 8.5L7.07143 8.5C7.07143 8.16948 7.12283 7.84766 7.218 7.55524L5.79163 7.09103L4.36527 6.62682C4.16968 7.22779 4.07143 7.86351 4.07143 8.5L5.57143 8.5ZM5.79163 7.09103L7.218 7.55524C7.31327 7.26251 7.44683 7.01595 7.5982 6.82329L6.41873 5.89656L5.23925 4.96983C4.85337 5.46095 4.56076 6.02615 4.36527 6.62682L5.79163 7.09103ZM6.41873 5.89656L7.5982 6.82329C7.7493 6.63099 7.9093 6.50308 8.05676 6.42535L7.35724 5.09844L6.65772 3.77154C6.10322 4.06386 5.62541 4.47835 5.23925 4.96983L6.41873 5.89656ZM7.35724 5.09844L8.05676 6.42535C8.20199 6.34878 8.33912 6.31818 8.46429 6.31818L8.46429 4.81818L8.46429 3.31818C7.82966 3.31818 7.21444 3.47805 6.65772 3.77154L7.35724 5.09844ZM8.46429 4.81818V6.31818C8.58945 6.31818 8.72658 6.34878 8.87182 6.42535L9.57133 5.09844L10.2709 3.77154C9.71413 3.47805 9.09891 3.31818 8.46429 3.31818V4.81818ZM9.57133 5.09844L8.87182 6.42535C9.01927 6.50308 9.17927 6.63099 9.33037 6.82329L10.5098 5.89656L11.6893 4.96983C11.3032 4.47835 10.8254 4.06386 10.2709 3.77154L9.57133 5.09844ZM10.5098 5.89656L9.33037 6.82329C9.48174 7.01595 9.61531 7.26251 9.71058 7.55524L11.1369 7.09103L12.5633 6.62682C12.3678 6.02615 12.0752 5.46095 11.6893 4.96983L10.5098 5.89656ZM11.1369 7.09103L9.71058 7.55524C9.80575 7.84766 9.85714 8.16948 9.85714 8.5L11.3571 8.5L12.8571 8.5C12.8571 7.86352 12.7589 7.22779 12.5633 6.62682L11.1369 7.09103ZM11.3571 8.5L9.85714 8.5C9.85714 9.18023 9.64189 9.78022 9.33037 10.1767L10.5098 11.1034L11.6893 12.0302C12.4628 11.0457 12.8571 9.77273 12.8571 8.5L11.3571 8.5ZM10.5098 11.1034L9.33037 10.1767C9.02574 10.5644 8.70088 10.6818 8.46429 10.6818L8.46429 12.1818L8.46429 13.6818C9.76215 13.6818 10.9089 13.0234 11.6893 12.0302L10.5098 11.1034ZM8.46429 12.1818L8.46429 10.6818C8.22769 10.6818 7.90283 10.5644 7.5982 10.1767L6.41873 11.1034L5.23925 12.0302C6.01965 13.0234 7.16642 13.6818 8.46429 13.6818L8.46429 12.1818ZM6.41873 11.1034L7.5982 10.1767C7.28668 9.78022 7.07143 9.18023 7.07143 8.5L5.57143 8.5L4.07143 8.5C4.07143 9.77273 4.46574 11.0457 5.23925 12.0302L6.41873 11.1034ZM8.46429 4V2.5C6.99592 2.5 5.68564 3.24461 4.78468 4.39129L5.96416 5.31802L7.14364 6.24475C7.56882 5.70361 8.05719 5.5 8.46429 5.5V4ZM5.96416 5.31802L4.78468 4.39129C3.89061 5.52919 3.42857 7.01027 3.42857 8.5H4.92857H6.42857C6.42857 7.60278 6.71155 6.79468 7.14364 6.24475L5.96416 5.31802ZM4.92857 8.5H3.42857C3.42857 9.98973 3.89061 11.4708 4.78468 12.6087L5.96416 11.682L7.14364 10.7552C6.71155 10.2053 6.42857 9.39722 6.42857 8.5H4.92857ZM5.96416 11.682L4.78468 12.6087C5.68564 13.7554 6.99592 14.5 8.46429 14.5V13V11.5C8.05719 11.5 7.56882 11.2964 7.14364 10.7552L5.96416 11.682ZM8.46429 13V14.5C9.93265 14.5 11.2429 13.7554 12.1439 12.6087L10.9644 11.682L9.78494 10.7552C9.35975 11.2964 8.87138 11.5 8.46429 11.5V13ZM10.9644 11.682L12.1439 12.6087C13.038 11.4708 13.5 9.98973 13.5 8.5H12H10.5C10.5 9.39722 10.217 10.2053 9.78494 10.7552L10.9644 11.682ZM12 8.5H13.5C13.5 7.01027 13.038 5.52919 12.1439 4.39129L10.9644 5.31802L9.78494 6.24475C10.217 6.79468 10.5 7.60278 10.5 8.5H12ZM10.9644 5.31802L12.1439 4.39129C11.2429 3.24461 9.93265 2.5 8.46429 2.5V4V5.5C8.87138 5.5 9.35975 5.70361 9.78494 6.24475L10.9644 5.31802ZM14.5714 9.72727H16.0714C16.0714 9.37254 16.1851 9.08471 16.3158 8.91838L15.1363 7.99165L13.9568 7.06491C13.3641 7.81922 13.0714 8.78004 13.0714 9.72727H14.5714ZM15.1363 7.99165L16.3158 8.91838C16.3778 8.8395 16.4315 8.80229 16.4615 8.78647C16.4765 8.77855 16.4867 8.77532 16.4918 8.77402C16.4968 8.77276 16.4991 8.77273 16.5 8.77273L16.5 7.27273L16.5 5.77273C15.4579 5.77273 14.5564 6.30183 13.9568 7.06491L15.1363 7.99165ZM16.5 7.27273V8.77273C16.5009 8.77273 16.5032 8.77276 16.5082 8.77402C16.5133 8.77532 16.5235 8.77855 16.5385 8.78647C16.5685 8.80229 16.6222 8.8395 16.6842 8.91838L17.8637 7.99165L19.0432 7.06491C18.4436 6.30183 17.5421 5.77273 16.5 5.77273V7.27273ZM17.8637 7.99165L16.6842 8.91838C16.8149 9.08471 16.9286 9.37254 16.9286 9.72727H18.4286H19.9286C19.9286 8.78004 19.6359 7.81922 19.0432 7.06491L17.8637 7.99165ZM18.4286 9.72727L16.9286 9.72727C16.9286 10.082 16.8149 10.3698 16.6842 10.5362L17.8637 11.4629L19.0432 12.3896C19.6359 11.6353 19.9286 10.6745 19.9286 9.72727L18.4286 9.72727ZM17.8637 11.4629L16.6842 10.5362C16.6222 10.615 16.5685 10.6523 16.5385 10.6681C16.5235 10.676 16.5133 10.6792 16.5082 10.6805C16.5032 10.6818 16.5009 10.6818 16.5 10.6818V12.1818V13.6818C17.5421 13.6818 18.4436 13.1527 19.0432 12.3896L17.8637 11.4629ZM16.5 12.1818V10.6818C16.4991 10.6818 16.4968 10.6818 16.4918 10.6805C16.4867 10.6792 16.4765 10.676 16.4615 10.6681C16.4315 10.6523 16.3778 10.615 16.3158 10.5362L15.1363 11.4629L13.9568 12.3896C14.5564 13.1527 15.4579 13.6818 16.5 13.6818V12.1818ZM15.1363 11.4629L16.3158 10.5362C16.1851 10.3698 16.0714 10.082 16.0714 9.72727L14.5714 9.72727L13.0714 9.72727C13.0714 10.6745 13.3641 11.6353 13.9568 12.3896L15.1363 11.4629ZM16.5 6.45455L16.5 4.95455C15.2874 4.95455 14.2224 5.56985 13.5022 6.48637L14.6817 7.4131L15.8612 8.33984C16.1056 8.02885 16.3486 7.95455 16.5 7.95455L16.5 6.45455ZM14.6817 7.4131L13.5022 6.48637C12.789 7.39412 12.4286 8.56304 12.4286 9.72727H13.9286H15.4286C15.4286 9.15554 15.61 8.6596 15.8612 8.33984L14.6817 7.4131ZM13.9286 9.72727H12.4286C12.4286 10.8915 12.789 12.0604 13.5022 12.9682L14.6817 12.0414L15.8612 11.1147C15.61 10.7949 15.4286 10.299 15.4286 9.72727H13.9286ZM14.6817 12.0414L13.5022 12.9682C14.2224 13.8847 15.2874 14.5 16.5 14.5L16.5 13L16.5 11.5C16.3486 11.5 16.1056 11.4257 15.8612 11.1147L14.6817 12.0414ZM16.5 13L16.5 14.5C17.7126 14.5 18.7776 13.8847 19.4978 12.9682L18.3183 12.0414L17.1388 11.1147C16.8944 11.4257 16.6514 11.5 16.5 11.5L16.5 13ZM18.3183 12.0414L19.4978 12.9682C20.211 12.0604 20.5714 10.8915 20.5714 9.72727H19.0714H17.5714C17.5714 10.299 17.39 10.7949 17.1388 11.1147L18.3183 12.0414ZM19.0714 9.72727H20.5714C20.5714 8.56304 20.211 7.39412 19.4978 6.48637L18.3183 7.4131L17.1388 8.33984C17.39 8.6596 17.5714 9.15554 17.5714 9.72727H19.0714ZM18.3183 7.4131L19.4978 6.48637C18.7776 5.56985 17.7126 4.95455 16.5 4.95455L16.5 6.45455L16.5 7.95455C16.6514 7.95455 16.8944 8.02885 17.1388 8.33984L18.3183 7.4131ZM4.92857 14.6364L4.92857 13.1364C3.88645 13.1364 2.98495 13.6655 2.38539 14.4286L3.56487 15.3553L4.74434 16.282C4.80632 16.2031 4.86006 16.1659 4.89006 16.1501C4.90509 16.1422 4.91528 16.139 4.9204 16.1377C4.92534 16.1364 4.92771 16.1364 4.92857 16.1364V14.6364ZM3.56487 15.3553L2.38539 14.4286C1.79272 15.1829 1.5 16.1437 1.5 17.0909H3H4.5C4.5 16.7362 4.61366 16.4483 4.74434 16.282L3.56487 15.3553ZM3 17.0909H1.5C1.5 18.2552 1.83454 19.8641 2.95067 21.2093L4.10507 20.2515L5.25947 19.2938C4.7016 18.6214 4.5 17.7528 4.5 17.0909H3ZM4.10507 20.2515L2.95061 21.2093C4.11542 22.6134 5.93909 23.5 8.46364 23.5V22V20.5C6.69519 20.5 5.77258 19.9123 5.25953 19.2938L4.10507 20.2515ZM8.46364 22V23.5C10.9873 23.5 12.8129 22.6148 13.9783 21.2088L12.8235 20.2515L11.6687 19.2943C11.1562 19.9125 10.233 20.5 8.46364 20.5V22ZM12.8235 20.2515L13.9779 21.2093C15.094 19.8641 15.4286 18.2552 15.4286 17.0909H13.9286H12.4286C12.4286 17.7528 12.227 18.6214 11.6691 19.2938L12.8235 20.2515ZM13.9286 17.0909L15.4286 17.0909C15.4286 16.1437 15.1359 15.1829 14.5432 14.4286L13.3637 15.3553L12.1842 16.282C12.3149 16.4483 12.4286 16.7362 12.4286 17.0909L13.9286 17.0909ZM13.3637 15.3553L14.5432 14.4286C13.9436 13.6655 13.0421 13.1364 12 13.1364L12 14.6364V16.1364C12.0009 16.1364 12.0032 16.1364 12.0082 16.1377C12.0133 16.139 12.0235 16.1422 12.0385 16.1501C12.0685 16.1659 12.1222 16.2031 12.1842 16.282L13.3637 15.3553ZM12 14.6364V13.1364H4.92857V14.6364V16.1364H12V14.6364ZM3.64286 17.0909H5.14286C5.14286 16.9532 5.18879 16.8734 5.19891 16.8606L4.01943 15.9338L2.83996 15.0071C2.36785 15.608 2.14286 16.3607 2.14286 17.0909H3.64286ZM4.01943 15.9338L5.19891 16.8606C5.20061 16.8584 5.18333 16.8811 5.13607 16.906C5.08703 16.9319 5.01516 16.9545 4.92857 16.9545V15.4545V13.9545C4.05694 13.9545 3.31896 14.3974 2.83996 15.0071L4.01943 15.9338ZM4.92857 15.4545V16.9545H12V15.4545V13.9545H4.92857V15.4545ZM12 15.4545V16.9545C11.9134 16.9545 11.8415 16.9319 11.7925 16.906C11.7452 16.8811 11.728 16.8584 11.7297 16.8606L12.9091 15.9338L14.0886 15.0071C13.6096 14.3974 12.8716 13.9545 12 13.9545V15.4545ZM12.9091 15.9338L11.7297 16.8606C11.7398 16.8734 11.7857 16.9532 11.7857 17.0909H13.2857H14.7857C14.7857 16.3607 14.5607 15.608 14.0886 15.0071L12.9091 15.9338ZM13.2857 17.0909H11.7857C11.7857 17.562 11.6386 18.2038 11.2271 18.7002L12.3819 19.6575L13.5367 20.6149C14.5047 19.4471 14.7857 18.0663 14.7857 17.0909H13.2857ZM12.3819 19.6575L11.2271 18.7002C10.8652 19.1366 10.1177 19.6818 8.46429 19.6818V21.1818V22.6818C10.8737 22.6818 12.5228 21.8377 13.5366 20.6149L12.3819 19.6575ZM8.46429 21.1818V19.6818C6.81149 19.6818 6.06334 19.1362 5.70098 18.6996L4.54671 19.6575L3.39245 20.6155C4.40581 21.8365 6.05422 22.6818 8.46429 22.6818V21.1818ZM4.54671 19.6575L5.70152 18.7002C5.28997 18.2038 5.14286 17.562 5.14286 17.0909H3.64286H2.14286C2.14286 18.0663 2.42389 19.4471 3.39191 20.6149L4.54671 19.6575ZM14.5476 19.2084L13.1233 18.7379C13.0625 18.9221 12.9874 19.109 12.8968 19.2989L14.2506 19.9447L15.6045 20.5906C15.7471 20.2917 15.8699 19.9877 15.972 19.6788L14.5476 19.2084ZM14.2506 19.9447L13.6515 21.3199C14.4617 21.6729 15.4099 21.8636 16.5 21.8636V20.3636V18.8636C15.7618 18.8636 15.2302 18.7353 14.8498 18.5696L14.2506 19.9447ZM16.5 20.3636V21.8636C18.7135 21.8636 20.2861 21.0732 21.2823 19.8895L20.1347 18.9236L18.9871 17.9577C18.6294 18.3827 17.9405 18.8636 16.5 18.8636V20.3636ZM20.1347 18.9236L21.282 19.89C22.2154 18.7818 22.5 17.4944 22.5 16.6818H21H19.5C19.5 16.9067 19.3938 17.4749 18.9875 17.9573L20.1347 18.9236ZM21 16.6818H22.5C22.5 15.8431 22.2411 14.9863 21.7088 14.3087L20.5293 15.2355L19.3498 16.1622C19.4202 16.2518 19.5 16.4356 19.5 16.6818H21ZM20.5293 15.2355L21.7088 14.3087C21.1695 13.6224 20.3497 13.1364 19.3929 13.1364V14.6364V16.1364C19.3724 16.1364 19.3537 16.1337 19.338 16.1297C19.3226 16.1258 19.3126 16.1212 19.3084 16.119C19.2997 16.1144 19.318 16.1217 19.3498 16.1622L20.5293 15.2355ZM19.3929 14.6364V13.1364H14.1561V14.6364V16.1364H19.3929V14.6364ZM14.1561 14.6364L12.9284 15.4981C13.0293 15.6418 13.1205 15.8101 13.1948 16.0004L14.592 15.4545L15.9892 14.9087C15.8308 14.5034 15.6276 14.1218 15.3839 13.7746L14.1561 14.6364ZM14.592 15.4545V16.9545H19.3929V15.4545V13.9545H14.592V15.4545ZM19.3929 15.4545V16.9545C19.118 16.9545 18.9523 16.8133 18.8952 16.7407L20.0747 15.814L21.2542 14.8873C20.8355 14.3544 20.1792 13.9545 19.3929 13.9545V15.4545ZM20.0747 15.814L18.8952 16.7407C18.8674 16.7053 18.8589 16.6812 18.8574 16.6764C18.8556 16.671 18.8571 16.6736 18.8571 16.6818H20.3571H21.8571C21.8571 16.0601 21.666 15.4114 21.2542 14.8873L20.0747 15.814ZM20.3571 16.6818H18.8571C18.8571 16.6561 18.8565 16.7477 18.8048 16.9022C18.7568 17.0456 18.6763 17.2081 18.5484 17.36L19.6956 18.3264L20.8429 19.2927C21.6419 18.3441 21.8571 17.276 21.8571 16.6818H20.3571ZM19.6956 18.3264L18.5477 17.3609C18.3391 17.6088 17.8221 18.0455 16.5 18.0455V19.5455V21.0455C18.5954 21.0455 19.9966 20.299 20.8436 19.2918L19.6956 18.3264ZM16.5 19.5455V18.0455C15.8574 18.0455 15.4133 17.9409 15.1118 17.8185L14.5476 19.2084L13.9835 20.5982C14.6938 20.8866 15.5291 21.0455 16.5 21.0455V19.5455Z" fill="black" mask="url(#path-1-inside-1_594_14736)"/>
</svg>
