<svg width="25" height="25" viewBox="0 0 25 25" fill="none" xmlns="http://www.w3.org/2000/svg">
<path d="M16.9961 16.9397C16.983 16.6041 16.9305 16.3088 16.8519 16.0269C16.6292 15.2618 16.1838 14.6175 15.5288 14.1208C14.8213 13.5839 13.9959 13.302 13.0789 13.2886C12.3584 13.2886 11.6378 13.2886 10.9172 13.302H10.7862C10.3539 13.302 9.90844 13.396 9.46302 13.5705C8.44113 13.9732 7.70745 14.6577 7.28822 15.6242C7.14411 15.9597 7.05241 16.3087 7.0131 16.6846C7 16.8591 6.9869 17.047 7.0262 17.2349C7.11791 17.6913 7.52405 18 8.03497 18H15.9611C16.3541 18 16.6555 17.8389 16.852 17.5302C16.9961 17.3154 17.0092 17.0873 16.9961 16.9397ZM16.4196 17.235C16.3541 17.3289 16.2493 17.4632 15.9611 17.4632H8.04802C7.7729 17.4632 7.58948 17.3424 7.55017 17.1276C7.52397 17.0068 7.53707 16.8726 7.55017 16.7383C7.57638 16.4296 7.65498 16.1209 7.77289 15.8524C8.13971 15.0202 8.78165 14.4162 9.65942 14.0807C10.0393 13.9331 10.4193 13.8525 10.7992 13.8525H10.9302C11.4674 13.8525 12.0045 13.8391 12.5547 13.8391H13.0919C13.891 13.8391 14.6247 14.0807 15.2403 14.5639C15.7906 14.9935 16.1836 15.5304 16.3801 16.1881C16.4456 16.4163 16.4849 16.6713 16.498 16.9666C16.4849 17.0874 16.4718 17.168 16.4194 17.2351L16.4196 17.235ZM9.84289 11.3557C9.26645 10.7517 8.93893 9.94634 8.93893 9.0739C8.99134 7.35577 10.3276 6 12.0045 6C12.1486 6 12.2665 6.1208 12.2665 6.26846C12.2665 6.41611 12.1486 6.53691 12.0045 6.53691C10.6158 6.53691 9.50221 7.65101 9.47605 9.0873C9.47605 9.81214 9.73807 10.4833 10.2228 10.98C10.6944 11.4632 11.3233 11.7317 12.0045 11.7317C12.6989 11.7317 13.3277 11.4632 13.8124 10.98C14.2841 10.4968 14.5461 9.83904 14.5461 9.15448C14.5461 9.00682 14.664 8.88602 14.8081 8.88602C14.9522 8.88602 15.0701 9.00682 15.0701 9.15448C15.0701 9.9867 14.7557 10.7786 14.1923 11.3693C13.6028 11.9465 12.8298 12.2686 12.0045 12.2686C11.1791 12.2686 10.4193 11.9465 9.84274 11.3559L9.84289 11.3557ZM12.0439 9.27526L14.3758 6.88604C14.4806 6.77865 14.6509 6.77865 14.7426 6.88604C14.8343 6.99342 14.8474 7.15449 14.7426 7.26188L12.2403 9.83906C12.1879 9.89275 12.1224 9.9196 12.0569 9.9196C11.9914 9.9196 11.9259 9.89275 11.8735 9.83906L10.773 8.71154C10.6682 8.60416 10.6682 8.44309 10.773 8.3357C10.8778 8.22832 11.0481 8.22832 11.1398 8.3357L12.0439 9.27526Z" fill="black"/>
</svg>
