<svg width="24" height="24" viewBox="0 0 24 24" fill="none" xmlns="http://www.w3.org/2000/svg">
<path fill-rule="evenodd" clip-rule="evenodd" d="M3 15.8571V19.9286C3 20.2127 3.11271 20.4853 3.31371 20.6863C3.51471 20.8873 3.78729 21 4.07143 21H8.14286C8.37943 21 8.57143 20.808 8.57143 20.5714C8.57143 20.3349 8.37943 20.1429 8.14286 20.1429H4.07143C4.01443 20.1429 3.96 20.1201 3.91971 20.0803C3.87986 20.04 3.85714 19.9856 3.85714 19.9286V15.8571C3.85714 15.6206 3.66514 15.4286 3.42857 15.4286C3.192 15.4286 3 15.6206 3 15.8571ZM15.8571 21H19.9286C20.2127 21 20.4853 20.8873 20.6863 20.6863C20.8873 20.4853 21 20.2127 21 19.9286V15.8571C21 15.6206 20.808 15.4286 20.5714 15.4286C20.3349 15.4286 20.1429 15.6206 20.1429 15.8571V19.9286C20.1429 19.9856 20.1201 20.04 20.0803 20.0803C20.04 20.1201 19.9856 20.1429 19.9286 20.1429H15.8571C15.6206 20.1429 15.4286 20.3349 15.4286 20.5714C15.4286 20.808 15.6206 21 15.8571 21ZM21 8.14286V4.07143C21 3.78729 20.8873 3.51471 20.6863 3.31371C20.4853 3.11271 20.2127 3 19.9286 3H15.8571C15.6206 3 15.4286 3.192 15.4286 3.42857C15.4286 3.66514 15.6206 3.85714 15.8571 3.85714H19.9286C19.9856 3.85714 20.04 3.87986 20.0803 3.91971C20.1201 3.96 20.1429 4.01443 20.1429 4.07143V8.14286C20.1429 8.37943 20.3349 8.57143 20.5714 8.57143C20.808 8.57143 21 8.37943 21 8.14286ZM8.14286 3H4.07143C3.78729 3 3.51471 3.11271 3.31371 3.31371C3.11271 3.51471 3 3.78729 3 4.07143V8.14286C3 8.37943 3.192 8.57143 3.42857 8.57143C3.66514 8.57143 3.85714 8.37943 3.85714 8.14286V4.07143C3.85714 4.01443 3.87986 3.96 3.91971 3.91971C3.96 3.87986 4.01443 3.85714 4.07143 3.85714H8.14286C8.37943 3.85714 8.57143 3.66514 8.57143 3.42857C8.57143 3.192 8.37943 3 8.14286 3Z" fill="#2E2E2E"/>
<path fill-rule="evenodd" clip-rule="evenodd" d="M16.5011 9.42913H15.2021C15.1305 9.42913 15.0637 9.39312 15.0238 9.33355L14.2627 8.19183C14.0643 7.89398 13.7295 7.71484 13.3713 7.71484H10.631C10.2727 7.71484 9.93797 7.89398 9.73954 8.19183L8.9784 9.33355C8.93854 9.39312 8.87169 9.42913 8.80012 9.42913H7.50112C7.21697 9.42913 6.9444 9.54184 6.7434 9.74284C6.5424 9.94384 6.42969 10.2164 6.42969 10.5006V15.2148C6.42969 15.8067 6.90926 16.2863 7.50112 16.2863H16.5011C17.093 16.2863 17.5725 15.8067 17.5725 15.2148V10.5006C17.5725 10.2164 17.4598 9.94384 17.2588 9.74284C17.0578 9.54184 16.7853 9.42913 16.5011 9.42913ZM15.2021 10.2863H16.5011C16.5581 10.2863 16.6125 10.309 16.6528 10.3488C16.6927 10.3891 16.7154 10.4436 16.7154 10.5006V15.2148C16.7154 15.3331 16.6194 15.4291 16.5011 15.4291H7.50112C7.38283 15.4291 7.28683 15.3331 7.28683 15.2148V10.5006C7.28683 10.4436 7.30954 10.3891 7.3494 10.3488C7.38969 10.309 7.44412 10.2863 7.50112 10.2863H8.80012C9.15798 10.2863 9.49268 10.1071 9.69154 9.80928L10.4527 8.66757C10.4925 8.608 10.5594 8.57199 10.631 8.57199H13.3713C13.4428 8.57199 13.5097 8.608 13.5495 8.66757L14.3107 9.80928C14.5095 10.1071 14.8443 10.2863 15.2021 10.2863Z" fill="#2E2E2E"/>
<path fill-rule="evenodd" clip-rule="evenodd" d="M12.0019 10.2891C10.8194 10.2891 9.85938 11.2497 9.85938 12.4322C9.85938 13.6148 10.8194 14.5748 12.0019 14.5748C13.1845 14.5748 14.1451 13.6148 14.1451 12.4322C14.1451 11.2497 13.1845 10.2891 12.0019 10.2891ZM12.0019 11.1462C12.7113 11.1462 13.2873 11.7228 13.2873 12.4322C13.2873 13.1416 12.7113 13.7176 12.0019 13.7176C11.2925 13.7176 10.7165 13.1416 10.7165 12.4322C10.7165 11.7228 11.2925 11.1462 12.0019 11.1462Z" fill="#2E2E2E"/>
</svg>
