<svg width="24" height="24" viewBox="0 0 24 24" fill="none" xmlns="http://www.w3.org/2000/svg">
<path d="M19.2 4H4.8C4.35867 4 4 4.35867 4 4.8V19.2C4 19.6413 4.35867 20 4.8 20H19.2C19.6413 20 20 19.6413 20 19.2V4.8C20 4.35867 19.6413 4 19.2 4ZM19.4667 19.1999C19.4667 19.3472 19.3473 19.4666 19.2 19.4666H4.8C4.65267 19.4666 4.53333 19.3472 4.53333 19.1999V4.79991C4.53333 4.65258 4.65267 4.53325 4.8 4.53325H19.2C19.3473 4.53325 19.4667 4.65258 19.4667 4.79991V19.1999ZM5.86658 8.79983V6.13316C5.86658 5.98583 5.98591 5.8665 6.13325 5.8665H8.79991C8.94725 5.8665 9.06658 5.98583 9.06658 6.13316C9.06658 6.2805 8.94725 6.39983 8.79991 6.39983H6.4V8.79974C6.4 8.94708 6.28067 9.06641 6.13333 9.06641C5.986 9.06641 5.86658 8.94716 5.86658 8.79983ZM18.1332 15.1998V17.8665C18.1332 18.0138 18.0139 18.1332 17.8666 18.1332H15.1999C15.0526 18.1332 14.9332 18.0138 14.9332 17.8665C14.9332 17.7192 15.0526 17.5998 15.1999 17.5998H17.5998V15.1999C17.5998 15.0526 17.7192 14.9332 17.8665 14.9332C18.0138 14.9332 18.1332 15.0525 18.1332 15.1998ZM8.30199 17.4158C8.33066 17.5604 8.23733 17.7004 8.09265 17.7298L6.20662 18.1071C6.18928 18.1104 6.17195 18.1124 6.15528 18.1124H6.15462H6.15395H6.15328C6.13662 18.1124 6.11928 18.1111 6.10195 18.1071C6.09595 18.1058 6.09195 18.1018 6.08595 18.1004C6.07662 18.0978 6.06795 18.0971 6.05928 18.0938C6.05062 18.0904 6.04328 18.0844 6.03529 18.0804C6.03262 18.0791 6.02995 18.0778 6.02729 18.0764C6.01662 18.0704 6.00595 18.0664 5.99662 18.0591C5.98929 18.0538 5.98262 18.0478 5.97595 18.0411C5.97262 18.0384 5.96862 18.0371 5.96595 18.0344C5.95995 18.0284 5.95795 18.0211 5.95262 18.0144C5.95129 18.0131 5.95062 18.0118 5.94929 18.0111C5.94329 18.0038 5.93595 17.9978 5.93062 17.9898C5.92529 17.9811 5.92262 17.9718 5.91795 17.9624C5.91195 17.9497 5.90729 17.9371 5.90262 17.9238C5.90129 17.9191 5.89862 17.9158 5.89795 17.9111C5.89662 17.9071 5.89395 17.9031 5.89329 17.8991V17.8984C5.89129 17.8898 5.89395 17.8818 5.89329 17.8731C5.89129 17.8551 5.89129 17.8371 5.89329 17.8191C5.89395 17.8104 5.89129 17.8024 5.89329 17.7937V17.7931V17.7924L6.26995 15.9084C6.29861 15.7638 6.43861 15.6698 6.58394 15.6991C6.72861 15.7278 6.82193 15.8684 6.79328 16.0131L6.58862 17.0351L17.0339 6.58977L16.0119 6.79443C15.9939 6.79777 15.9766 6.79977 15.9593 6.79977C15.8346 6.79977 15.7233 6.71243 15.6979 6.58577C15.6693 6.4411 15.7626 6.3011 15.9073 6.27178L17.7892 5.89378C17.7992 5.89178 17.8092 5.89378 17.8192 5.89312C17.8372 5.89112 17.8539 5.89112 17.8719 5.89312C17.8899 5.89512 17.9065 5.89778 17.9232 5.90312C17.9379 5.90778 17.9519 5.91378 17.9659 5.92112C17.9752 5.92578 17.9859 5.92778 17.9945 5.93378C18.0005 5.93778 18.0039 5.94378 18.0092 5.94845C18.0112 5.94978 18.0125 5.95178 18.0139 5.95312C18.0199 5.95845 18.0279 5.96045 18.0339 5.96645C18.0392 5.97178 18.0412 5.97978 18.0465 5.98578C18.0532 5.99312 18.0612 5.99845 18.0665 6.00712C18.0719 6.01512 18.0732 6.02512 18.0779 6.03312C18.0859 6.04845 18.0925 6.06312 18.0972 6.07912C18.0999 6.08712 18.1052 6.09445 18.1065 6.10245V6.10312C18.1085 6.11178 18.1059 6.11978 18.1065 6.12845C18.1085 6.14645 18.1085 6.16445 18.1065 6.18245C18.1059 6.19112 18.1085 6.19912 18.1065 6.20778V6.20845V6.20912L17.7299 8.09311C17.7046 8.21977 17.5932 8.30711 17.4686 8.30711C17.4512 8.30711 17.4339 8.30577 17.4159 8.30177C17.2712 8.27311 17.1779 8.13244 17.2066 7.98778L17.4112 6.96578L6.96591 17.4111L7.98791 17.2064C8.13258 17.1764 8.27267 17.2711 8.30199 17.4158Z" fill="black"/>
</svg>
