<svg width="29" height="29" viewBox="0 0 29 29" fill="none" xmlns="http://www.w3.org/2000/svg">
<path d="M7.4375 3.6875C6.44294 3.6875 5.48911 4.08259 4.78585 4.78585C4.08259 5.48911 3.6875 6.44294 3.6875 7.4375V21.9375C3.6875 22.9321 4.08259 23.8859 4.78585 24.5892C5.48911 25.2924 6.44294 25.6875 7.4375 25.6875H21.9375C22.9321 25.6875 23.8859 25.2924 24.5892 24.5892C25.2924 23.8859 25.6875 22.9321 25.6875 21.9375V7.4375C25.6875 6.44294 25.2924 5.48911 24.5892 4.78585C23.8859 4.08259 22.9321 3.6875 21.9375 3.6875H7.4375ZM5.1875 7.4375C5.1875 6.84076 5.42455 6.26847 5.84651 5.84651C6.26847 5.42455 6.84076 5.1875 7.4375 5.1875H21.9375C22.5342 5.1875 23.1065 5.42455 23.5285 5.84651C23.9504 6.26847 24.1875 6.84076 24.1875 7.4375V21.9375C24.1875 22.5342 23.9504 23.1065 23.5285 23.5285C23.1065 23.9504 22.5342 24.1875 21.9375 24.1875H7.4375C6.84076 24.1875 6.26847 23.9504 5.84651 23.5285C5.42455 23.1065 5.1875 22.5342 5.1875 21.9375V7.4375ZM9.4375 7.1875C8.84076 7.1875 8.26847 7.42455 7.84651 7.84651C7.42455 8.26847 7.1875 8.84076 7.1875 9.4375V12.4375C7.1875 12.6364 7.26652 12.8272 7.40717 12.9678C7.54782 13.1085 7.73859 13.1875 7.9375 13.1875C8.13641 13.1875 8.32718 13.1085 8.46783 12.9678C8.60848 12.8272 8.6875 12.6364 8.6875 12.4375V9.4375C8.6875 9.23859 8.76652 9.04782 8.90717 8.90717C9.04782 8.76652 9.23859 8.6875 9.4375 8.6875H12.4375C12.6364 8.6875 12.8272 8.60848 12.9678 8.46783C13.1085 8.32718 13.1875 8.13641 13.1875 7.9375C13.1875 7.73859 13.1085 7.54782 12.9678 7.40717C12.8272 7.26652 12.6364 7.1875 12.4375 7.1875H9.4375ZM16.9375 7.1875C16.7386 7.1875 16.5478 7.26652 16.4072 7.40717C16.2665 7.54782 16.1875 7.73859 16.1875 7.9375C16.1875 8.13641 16.2665 8.32718 16.4072 8.46783C16.5478 8.60848 16.7386 8.6875 16.9375 8.6875H19.9375C20.1364 8.6875 20.3272 8.76652 20.4678 8.90717C20.6085 9.04782 20.6875 9.23859 20.6875 9.4375V12.4375C20.6875 12.6364 20.7665 12.8272 20.9072 12.9678C21.0478 13.1085 21.2386 13.1875 21.4375 13.1875C21.6364 13.1875 21.8272 13.1085 21.9678 12.9678C22.1085 12.8272 22.1875 12.6364 22.1875 12.4375V9.4375C22.1875 8.84076 21.9504 8.26847 21.5285 7.84651C21.1065 7.42455 20.5342 7.1875 19.9375 7.1875H16.9375ZM8.6875 16.9375C8.6875 16.7386 8.60848 16.5478 8.46783 16.4072C8.32718 16.2665 8.13641 16.1875 7.9375 16.1875C7.73859 16.1875 7.54782 16.2665 7.40717 16.4072C7.26652 16.5478 7.1875 16.7386 7.1875 16.9375V19.9375C7.1875 20.5342 7.42455 21.1065 7.84651 21.5285C8.26847 21.9504 8.84076 22.1875 9.4375 22.1875H12.4375C12.6364 22.1875 12.8272 22.1085 12.9678 21.9678C13.1085 21.8272 13.1875 21.6364 13.1875 21.4375C13.1875 21.2386 13.1085 21.0478 12.9678 20.9072C12.8272 20.7665 12.6364 20.6875 12.4375 20.6875H9.4375C9.23859 20.6875 9.04782 20.6085 8.90717 20.4678C8.76652 20.3272 8.6875 20.1364 8.6875 19.9375V16.9375ZM22.1875 16.9375C22.1875 16.7386 22.1085 16.5478 21.9678 16.4072C21.8272 16.2665 21.6364 16.1875 21.4375 16.1875C21.2386 16.1875 21.0478 16.2665 20.9072 16.4072C20.7665 16.5478 20.6875 16.7386 20.6875 16.9375V19.9375C20.6875 20.1364 20.6085 20.3272 20.4678 20.4678C20.3272 20.6085 20.1364 20.6875 19.9375 20.6875H16.9375C16.7386 20.6875 16.5478 20.7665 16.4072 20.9072C16.2665 21.0478 16.1875 21.2386 16.1875 21.4375C16.1875 21.6364 16.2665 21.8272 16.4072 21.9678C16.5478 22.1085 16.7386 22.1875 16.9375 22.1875H19.9375C20.5342 22.1875 21.1065 21.9504 21.5285 21.5285C21.9504 21.1065 22.1875 20.5342 22.1875 19.9375V16.9375Z" fill="#2E2E2E"/>
</svg>
