<svg width="24" height="24" viewBox="0 0 24 24" fill="none" xmlns="http://www.w3.org/2000/svg">
<path d="M11.777 9.99999L16.607 11.294M11 12.898L13.898 13.674M20.312 12.647C19.707 14.902 19.405 16.03 18.72 16.761C18.1795 17.3382 17.48 17.7422 16.71 17.922C16.6133 17.9447 16.515 17.962 16.415 17.974C15.5 18.087 14.383 17.788 12.351 17.244C10.096 16.639 8.96799 16.337 8.23699 15.652C7.65966 15.1112 7.25563 14.4114 7.07599 13.641C6.84799 12.665 7.14999 11.538 7.75499 9.28299L8.27199 7.35099L8.51599 6.44599C8.97099 4.77999 9.27699 3.86299 9.86399 3.23599C10.4046 2.65919 11.1041 2.25553 11.874 2.07599C12.85 1.84799 13.978 2.14999 16.234 2.75499C18.488 3.35899 19.616 3.66099 20.347 4.34499C20.9245 4.88605 21.3285 5.58625 21.508 6.35699C21.669 7.04699 21.565 7.81299 21.277 8.99999" stroke="black" stroke-linecap="round"/>
<path d="M3.27181 16.6473C3.87581 18.9023 4.17881 20.0303 4.86381 20.7613C5.40432 21.3385 6.10378 21.7425 6.87381 21.9223C7.84981 22.1493 8.97781 21.8473 11.2338 21.2433C13.4878 20.6393 14.6158 20.3373 15.3468 19.6523C15.8384 19.1918 16.2058 18.6146 16.4148 17.9743M8.51581 6.44531C8.16447 6.53665 7.77614 6.63998 7.35081 6.75531C5.09581 7.35931 3.96781 7.66131 3.23681 8.34531C2.6593 8.88637 2.25526 9.58657 2.07581 10.3573C1.91481 11.0473 2.01881 11.8133 2.30681 13.0003" stroke="black" stroke-linecap="round" stroke-linejoin="round"/>
</svg>
