<svg width="25" height="25" viewBox="0 0 25 25" fill="none" xmlns="http://www.w3.org/2000/svg">
<path d="M19.4633 13.4023H13.0889C12.9536 13.4023 12.8438 13.5119 12.8438 13.6475V20.0219C12.8438 20.1575 12.9536 20.2671 13.0889 20.2671C16.739 20.2671 19.7085 17.2976 19.7085 13.6475C19.7085 13.5119 19.5987 13.4023 19.4633 13.4023ZM13.3341 19.7718V13.8927H19.2133C19.0875 17.0799 16.5193 19.6461 13.3341 19.7718Z" fill="black"/>
<path d="M18.7502 7.49377C18.6543 7.39791 18.4994 7.39791 18.4035 7.49377L13.8961 12.0012C13.826 12.0713 13.8049 12.1768 13.8429 12.2684C13.8809 12.3601 13.9704 12.4197 14.0694 12.4197H20.4438C20.5792 12.4197 20.689 12.3101 20.689 12.1745C20.689 10.4064 20.0003 8.74413 18.7502 7.49377ZM14.6613 11.9294L18.5734 8.01721C19.5681 9.09277 20.1366 10.4584 20.1938 11.9294H14.6613Z" fill="black"/>
<path d="M13.996 5.99599C13.2357 5.70326 12.4362 5.55469 11.6196 5.55469C7.96949 5.55469 5 8.52418 5 12.1743C5 15.8243 7.96949 18.7938 11.6196 18.7938C11.7549 18.7938 11.8647 18.6842 11.8647 18.5487V12.2196L14.1367 6.313C14.1853 6.18649 14.1223 6.04478 13.996 5.99599ZM11.3908 12.0862C11.3798 12.1144 11.3744 12.1441 11.3744 12.1743V18.2986C8.10801 18.1694 5.49034 15.4718 5.49034 12.1743C5.49034 8.7946 8.23991 6.04503 11.6196 6.04503C12.2935 6.04503 12.955 6.15413 13.5893 6.37012L11.3908 12.0862Z" fill="black"/>
<path d="M13.2013 11.4003C13.2423 11.4268 13.2886 11.4398 13.3347 11.4398C13.3979 11.4398 13.4609 11.4153 13.5083 11.368L18.0157 6.86054C18.1116 6.76468 18.1116 6.60974 18.0157 6.51387C17.3569 5.85486 16.5817 5.35128 15.7114 5.01638C15.6505 4.99309 15.5834 4.99456 15.5238 5.02128C15.4645 5.04776 15.4179 5.0968 15.3946 5.15735L13.1064 11.1069C13.0645 11.2148 13.1042 11.3371 13.2013 11.4003ZM15.7623 5.56654C16.4015 5.84162 16.9818 6.21869 17.4923 6.69064L13.9785 10.2044L15.7623 5.56654Z" fill="black"/>
</svg>
