<svg width="24" height="24" viewBox="0 0 24 24" fill="none" xmlns="http://www.w3.org/2000/svg">
<path d="M19.5891 15.5L17.7691 14.2C18.0691 13.12 18.0891 11.95 17.7691 10.78L19.5891 9.5L18.1391 7L16.1091 7.92C15.3191 7.12 14.3191 6.5 13.1491 6.21L12.9491 4H10.0491L9.8491 6.21C8.6791 6.5 7.6791 7.12 6.8891 7.92L4.8591 7L3.4091 9.5L5.2291 10.78C4.9091 11.95 4.9291 13.12 5.2291 14.2L3.4091 15.5L4.8591 18L6.8891 17.07C7.6791 17.86 8.6791 18.46 9.8491 18.77L10.0491 21H12.9491L13.1491 18.77C14.3191 18.46 15.3191 17.86 16.1091 17.07L18.1391 18L19.5891 15.5ZM13.4991 3C13.7691 3 13.9991 3.2 13.9991 3.46L14.1791 5.5C14.9391 5.78 15.6191 6.19 16.2291 6.68L18.0791 5.81C18.3091 5.69 18.5991 5.77 18.7391 6L20.7391 9.5C20.8791 9.71 20.7991 10 20.5791 10.15L18.9091 11.32C19.0391 12.12 19.0291 12.91 18.9091 13.68L20.5791 14.85C20.7991 15 20.8791 15.29 20.7391 15.5L18.7391 19C18.5991 19.21 18.3091 19.29 18.0791 19.17L16.2291 18.31C15.6191 18.8 14.9391 19.2 14.1791 19.5L13.9991 21.5C13.9991 21.79 13.7691 22 13.4991 22H9.4991C9.36649 22 9.23932 21.9473 9.14555 21.8536C9.05178 21.7598 8.9991 21.6326 8.9991 21.5L8.8191 19.5C8.0591 19.2 7.3791 18.8 6.7691 18.31L4.9191 19.17C4.6891 19.29 4.3991 19.21 4.2591 19L2.2591 15.5C2.1191 15.29 2.1991 15 2.4191 14.85L4.0891 13.68C3.9691 12.91 3.9591 12.12 4.0891 11.32L2.4191 10.15C2.1991 10 2.1191 9.71 2.2591 9.5L4.2591 6C4.3991 5.77 4.6891 5.69 4.9191 5.81L6.7691 6.68C7.3791 6.19 8.0591 5.78 8.8191 5.5L8.9991 3.46C8.9991 3.2 9.2291 3 9.4991 3H13.4991ZM11.4991 9C12.4274 9 13.3176 9.36875 13.974 10.0251C14.6304 10.6815 14.9991 11.5717 14.9991 12.5C14.9991 13.4283 14.6304 14.3185 13.974 14.9749C13.3176 15.6313 12.4274 16 11.4991 16C10.5708 16 9.68061 15.6313 9.02423 14.9749C8.36785 14.3185 7.9991 13.4283 7.9991 12.5C7.9991 11.5717 8.36785 10.6815 9.02423 10.0251C9.68061 9.36875 10.5708 9 11.4991 9ZM11.4991 10C10.8361 10 10.2002 10.2634 9.73134 10.7322C9.26249 11.2011 8.9991 11.837 8.9991 12.5C8.9991 13.163 9.26249 13.7989 9.73134 14.2678C10.2002 14.7366 10.8361 15 11.4991 15C12.1621 15 12.798 14.7366 13.2669 14.2678C13.7357 13.7989 13.9991 13.163 13.9991 12.5C13.9991 11.837 13.7357 11.2011 13.2669 10.7322C12.798 10.2634 12.1621 10 11.4991 10Z" fill="#2E2E2E"/>
</svg>
