<svg width="24" height="24" viewBox="0 0 24 24" fill="none" xmlns="http://www.w3.org/2000/svg">
<path d="M10.9656 7.78785H13.0316C14.0809 7.78785 14.9344 8.64136 14.9344 9.69068C14.9344 9.91604 15.117 10.0986 15.3423 10.0986C15.5677 10.0986 15.7502 9.91604 15.7502 9.69068C15.7502 8.19167 14.5306 6.9721 13.0316 6.9721H12.4065V5.75555C12.4065 5.53019 12.224 5.34766 11.9986 5.34766C11.7733 5.34766 11.5908 5.53019 11.5908 5.75555V6.9721H10.9657C9.46666 6.9721 8.24709 8.1917 8.24709 9.69068C8.24709 10.7022 8.71003 11.9667 10.9148 12.2461L11.2859 12.291C11.8682 12.3614 12.7493 12.4664 13.1327 12.5561C14.4287 12.8569 14.9335 13.3495 14.9335 14.3121C14.9335 15.3614 14.08 16.2149 13.0307 16.2149H10.9647C9.91541 16.2149 9.06188 15.3614 9.06188 14.3121C9.06188 14.0867 8.87935 13.9042 8.65399 13.9042C8.42863 13.9042 8.24609 14.0867 8.24609 14.3121C8.24609 15.8111 9.4657 17.0307 10.9647 17.0307L11.5908 17.0286V18.2452C11.5908 18.4706 11.7733 18.6531 11.9987 18.6531C12.224 18.6531 12.4066 18.4706 12.4066 18.2452V17.0286H13.0316C14.5307 17.0286 15.7502 15.809 15.7502 14.3101C15.7502 12.5296 14.3624 12.0024 13.3182 11.7597C12.8909 11.6608 12.02 11.5558 11.3837 11.4793L11.0166 11.4344C9.26578 11.2132 9.06284 10.3321 9.06284 9.68866C9.06284 8.64039 9.9163 7.78785 10.9656 7.78785Z" fill="black"/>
<path d="M12.0002 2.28516C6.6434 2.28516 2.28516 6.6434 2.28516 12.0002C2.28516 17.3569 6.6434 21.7151 12.0002 21.7151C17.3569 21.7151 21.7151 17.3569 21.7151 12.0002C21.7151 6.6434 17.3569 2.28516 12.0002 2.28516ZM12.0002 20.8994C7.09319 20.8994 3.10094 16.9071 3.10094 12.0002C3.10094 7.09319 7.09319 3.10094 12.0002 3.10094C16.9071 3.10094 20.8994 7.09319 20.8994 12.0002C20.8994 16.9071 16.9071 20.8994 12.0002 20.8994Z" fill="black"/>
</svg>
