<svg width="24" height="24" viewBox="0 0 24 24" fill="none" xmlns="http://www.w3.org/2000/svg">
<path fill-rule="evenodd" clip-rule="evenodd" d="M15.8682 18.9974C18.6203 18.9974 20.8419 17.8307 20.8419 16.0807V4.9974C20.8419 3.83073 18.6314 2.66406 15.8682 2.66406C13.1051 2.66406 10.8945 3.83073 10.8945 4.9974V9.08073C12.1877 9.6524 13.293 10.6091 14.0777 11.8224C14.6193 11.9344 15.2161 11.9962 15.8682 11.9962C17.3161 11.9962 18.5208 11.6917 19.383 11.1959C19.5053 11.1249 19.6245 11.0478 19.74 10.9649V12.5749C19.74 12.8491 19.5333 13.2749 18.8535 13.6669C18.1948 14.0461 17.1846 14.3249 15.8693 14.3249C15.6063 14.3249 15.3557 14.3144 15.1177 14.2934C15.2062 14.6768 15.2651 15.0696 15.2946 15.4717C15.481 15.4826 15.6726 15.4881 15.8693 15.4881C17.3172 15.4881 18.522 15.1836 19.3841 14.6877C19.5064 14.6167 19.6256 14.5396 19.7411 14.4567V16.0667C19.7411 16.3421 19.5764 16.7504 18.8668 17.1541C18.1683 17.5507 17.1205 17.8167 15.8715 17.8167C15.6173 17.8167 15.3712 17.8058 15.1332 17.7841C15.0482 18.1718 14.934 18.5518 14.7917 18.9204C15.1395 18.9616 15.4991 18.9822 15.8704 18.9822L15.8682 18.9974ZM18.8524 10.1774C19.5322 9.7854 19.7388 9.35956 19.7388 9.0854V7.4754C19.6246 7.55784 19.5056 7.63484 19.3818 7.7064C18.522 8.20223 17.315 8.50673 15.8671 8.50673C14.4192 8.50673 13.2145 8.20223 12.3524 7.7064C12.23 7.63539 12.1108 7.5583 11.9954 7.4754V9.0854C11.9954 9.35956 12.2021 9.7854 12.8818 10.1762C13.5405 10.5554 14.5507 10.8342 15.866 10.8342C17.1813 10.8342 18.1871 10.5554 18.8502 10.1762L18.8524 10.1774ZM11.9998 5.58073C11.9998 5.24473 12.138 4.92156 12.3955 4.7244C12.5358 4.61706 12.6884 4.50973 12.8088 4.4514C13.1106 4.3044 14.6215 3.82956 15.8704 3.82956C17.1194 3.82956 18.2025 4.0944 18.932 4.4514C19.0691 4.5179 19.2205 4.62173 19.3542 4.7244C19.6095 4.91923 19.7411 5.24006 19.7411 5.57256V5.57956C19.7411 5.85373 19.5344 6.27956 18.8546 6.67156C18.1959 7.05073 17.1857 7.32956 15.8704 7.32956C14.5552 7.32956 13.5494 7.04956 12.8862 6.67156C12.2065 6.28073 11.9998 5.85373 11.9998 5.58073Z" fill="#2E2E2E"/>
<path fill-rule="evenodd" clip-rule="evenodd" d="M13.1036 16.082C13.1036 18.987 10.882 21.332 8.12993 21.332C5.37783 21.332 3.15625 18.987 3.15625 16.082C3.15625 13.177 5.37783 10.832 8.12993 10.832C10.882 10.832 13.1036 13.177 13.1036 16.082ZM11.9984 16.082C11.9984 18.3337 10.2631 20.1654 8.12993 20.1654C5.99678 20.1654 4.26151 18.3337 4.26151 16.082C4.26151 13.8304 5.99678 11.9987 8.12993 11.9987C10.2631 11.9987 11.9984 13.8304 11.9984 16.082Z" fill="#2E2E2E"/>
</svg>
