<svg width="24" height="24" viewBox="0 0 24 24" fill="none" xmlns="http://www.w3.org/2000/svg">
<path fill-rule="evenodd" clip-rule="evenodd" d="M15.2393 18.8607C17.9914 18.8607 20.213 17.694 20.213 15.944V4.86068C20.213 3.69401 18.0025 2.52734 15.2393 2.52734C12.4762 2.52734 10.2656 3.69401 10.2656 4.86068V8.94401C11.5588 9.51568 12.664 10.4723 13.4488 11.6857C13.9904 11.7977 14.5872 11.8595 15.2393 11.8595C16.6872 11.8595 17.8919 11.555 18.754 11.0592C18.8764 10.9882 18.9956 10.9111 19.111 10.8282V12.4382C19.111 12.7123 18.9044 13.1382 18.2246 13.5302C17.5659 13.9093 16.5557 14.1882 15.2404 14.1882C14.9774 14.1882 14.7268 14.1777 14.4888 14.1567C14.5773 14.5401 14.6362 14.9329 14.6657 15.335C14.8521 15.3459 15.0437 15.3513 15.2404 15.3513C16.6883 15.3513 17.893 15.0468 18.7552 14.551C18.8775 14.48 18.9967 14.4029 19.1122 14.32V15.93C19.1122 16.2053 18.9475 16.6137 18.2379 17.0173C17.5394 17.414 16.4916 17.68 15.2426 17.68C14.9884 17.68 14.7423 17.6691 14.5043 17.6473C14.4193 18.0351 14.3051 18.4151 14.1628 18.7837C14.5106 18.8249 14.8702 18.8455 15.2415 18.8455L15.2393 18.8607ZM18.2235 10.0407C18.9033 9.64868 19.1099 9.22284 19.1099 8.94868V7.33868C18.9957 7.42112 18.8767 7.49812 18.7529 7.56968C17.893 8.06551 16.6861 8.37001 15.2382 8.37001C13.7903 8.37001 12.5856 8.06551 11.7235 7.56968C11.6011 7.49867 11.4819 7.42159 11.3665 7.33868V8.94868C11.3665 9.22284 11.5732 9.64868 12.2529 10.0395C12.9116 10.4187 13.9218 10.6975 15.2371 10.6975C16.5524 10.6975 17.5582 10.4187 18.2213 10.0395L18.2235 10.0407ZM11.3709 5.44401C11.3709 5.10801 11.509 4.78484 11.7666 4.58768C11.9069 4.48034 12.0595 4.37301 12.1799 4.31468C12.4817 4.16768 13.9926 3.69284 15.2415 3.69284C16.4905 3.69284 17.5736 3.95768 18.3031 4.31468C18.4402 4.38118 18.5916 4.48501 18.7253 4.58768C18.9806 4.78251 19.1122 5.10334 19.1122 5.43584V5.44284C19.1122 5.71701 18.9055 6.14284 18.2257 6.53484C17.567 6.91401 16.5568 7.19284 15.2415 7.19284C13.9263 7.19284 12.9205 6.91284 12.2573 6.53484C11.5776 6.14401 11.3709 5.71701 11.3709 5.44401Z" fill="#2E2E2E"/>
<path fill-rule="evenodd" clip-rule="evenodd" d="M12.4747 15.9453C12.4747 18.8503 10.2531 21.1953 7.50103 21.1953C4.74892 21.1953 2.52734 18.8503 2.52734 15.9453C2.52734 13.0403 4.74892 10.6953 7.50103 10.6953C10.2531 10.6953 12.4747 13.0403 12.4747 15.9453ZM11.3694 15.9453C11.3694 18.197 9.63419 20.0286 7.50103 20.0286C5.36787 20.0286 3.63261 18.197 3.63261 15.9453C3.63261 13.6936 5.36787 11.862 7.50103 11.862C9.63419 11.862 11.3694 13.6936 11.3694 15.9453Z" fill="#2E2E2E"/>
</svg>
