<svg width="25" height="25" viewBox="0 0 25 25" fill="none" xmlns="http://www.w3.org/2000/svg">
<path d="M4.78158 11.9153C5.49484 4.35252 16.0286 2.40732 19.5987 9.02666C19.807 9.38329 20.3353 10.1591 20.0914 10.5893C19.6465 11.3785 19.1183 10.2032 18.9872 9.92745C16.0618 3.4358 5.95209 5.34272 5.71804 12.3675C5.93129 12.0991 7.1066 10.8552 7.34558 10.7584V10.7596C7.52696 10.6922 7.73042 10.7449 7.85664 10.8907C7.98409 11.0366 8.00615 11.2449 7.91424 11.4153C7.7255 11.7633 5.96191 13.5931 5.44596 13.7426C5.04522 13.609 3.42379 11.9937 3.07695 11.506H3.07818C2.98749 11.3687 2.97523 11.1947 3.04386 11.0451C3.11372 10.8969 3.25466 10.7939 3.41766 10.7743C3.83189 10.7633 4.49724 11.6408 4.78158 11.9153Z" fill="black"/>
<path d="M12.1689 9.22501C11.9177 8.09996 13.2842 8.11464 13.0746 9.22501C13.9227 9.3684 15.1066 10.6969 14.7156 11.4323C14.2646 11.9923 13.7867 11.5156 13.7524 10.9433C13.3565 9.56329 11.0574 10.0572 11.5488 11.5891C11.8552 12.5426 12.8442 12.2607 13.571 12.6419C15.2647 13.5316 15.0085 15.886 13.0759 16.4692C13.2389 17.5342 12.0489 17.5379 12.1702 16.4692C11.4508 16.2217 10.8637 15.7915 10.6468 15.0157C10.2877 13.7963 11.3993 13.4188 11.528 14.648C11.805 16.115 14.0784 15.6457 13.6886 14.1529C13.4889 13.3882 12.8283 13.4372 12.2229 13.2975C10.1075 12.8097 9.95189 9.76778 12.1689 9.22501Z" fill="black"/>
<path d="M19.4801 13.3505C19.1995 13.6827 18.0107 15.2624 17.5621 14.4045C17.2864 13.8763 18.4237 13.0454 18.7448 12.7353C19.0659 12.4252 19.3772 12.0135 19.7841 11.826C20.349 11.7818 20.8773 12.5858 21.2584 12.9804C21.468 13.1961 22.1849 13.782 22.2192 14.0785L22.2205 14.0773C22.2327 14.2636 22.1408 14.4388 21.9802 14.5344C21.8209 14.6288 21.6224 14.6264 21.4655 14.5271C21.1358 14.304 20.7412 13.7427 20.4017 13.429C19.963 21.8633 7.4379 23.2541 5.16797 15.1399C5.29788 14.7722 5.71702 14.5626 6.00259 14.9352C8.25272 21.9404 18.9985 20.8128 19.4801 13.3505Z" fill="black"/>
</svg>
