<svg width="24" height="24" viewBox="0 0 24 24" fill="none" xmlns="http://www.w3.org/2000/svg">
<path d="M12 5.1205C13.9876 5.1205 15.7879 5.89117 17.0911 7.13556C18.3942 8.38073 19.1999 10.1004 19.1999 12.0003C19.1999 13.8996 18.3933 15.6199 17.0911 16.8651C15.788 18.1103 13.9883 18.8802 12 18.8802C10.0124 18.8802 8.21202 18.1095 6.9089 16.8651C5.6058 15.6199 4.80008 13.9003 4.80008 12.0003C4.80008 10.1011 5.60661 8.38076 6.9089 7.13556C8.21199 5.8904 10.0117 5.1205 12 5.1205ZM11.5781 9.41129C11.5781 9.18846 11.7668 9.00812 12 9.00812C12.2332 9.00812 12.4219 9.18844 12.4219 9.41129V11.303L13.3992 10.764C13.6001 10.653 13.8577 10.7181 13.9747 10.9108C14.0909 11.1028 14.0228 11.3489 13.8211 11.4607L12.2353 12.3356C12.1679 12.3794 12.0868 12.4048 11.9993 12.4048C11.7661 12.4048 11.5773 12.2245 11.5773 12.0016V9.4126L11.5781 9.41129ZM7.39828 12.4035C7.16508 12.4035 6.97635 12.2232 6.97635 12.0004C6.97635 11.7775 7.16506 11.5972 7.39828 11.5972H7.72764C7.96084 11.5972 8.14957 11.7775 8.14957 12.0004C8.14957 12.2232 7.96086 12.4035 7.72764 12.4035H7.39828ZM12.4219 16.3975C12.4219 16.6203 12.2332 16.8007 12 16.8007C11.7668 16.8007 11.5781 16.6203 11.5781 16.3975V16.0828C11.5781 15.8599 11.7668 15.6796 12 15.6796C12.2332 15.6796 12.4219 15.8599 12.4219 16.0828V16.3975ZM16.6017 11.5971C16.8349 11.5971 17.0237 11.7775 17.0237 12.0003C17.0237 12.2232 16.8349 12.4035 16.6017 12.4035H16.2724C16.0392 12.4035 15.8504 12.2232 15.8504 12.0003C15.8504 11.7775 16.0391 11.5971 16.2724 11.5971H16.6017ZM11.5781 7.60317C11.5781 7.38034 11.7668 7.2 12 7.2C12.2332 7.2 12.4219 7.38032 12.4219 7.60317V7.91789C12.4219 8.14073 12.2332 8.32106 12 8.32106C11.7668 8.32106 11.5781 8.14074 11.5781 7.91789V7.60317ZM19.0636 8.10371C18.9474 7.91171 19.0155 7.66557 19.2172 7.55381C19.4181 7.44274 19.6757 7.50787 19.7926 7.70054C21.0354 9.75756 21.288 12.1003 20.6917 14.2253C20.0961 16.3508 18.6511 18.2589 16.4998 19.4459C16.2989 19.5569 16.0413 19.4918 15.9243 19.2991C15.8081 19.1071 15.8763 18.861 16.0779 18.7492C18.0282 17.6734 19.3377 15.9436 19.8782 14.0168C20.4185 12.09 20.1903 9.96596 19.0645 8.10308L19.0636 8.10371ZM4.9364 15.8963C5.05265 16.0883 4.98448 16.3344 4.78285 16.4462C4.58192 16.5573 4.32433 16.4921 4.20737 16.2995C2.96457 14.2424 2.71199 11.8997 3.30828 9.77471C3.90385 7.64924 5.34894 5.74107 7.50018 4.55415C7.70111 4.44307 7.9587 4.50821 8.07566 4.70088C8.1919 4.89287 8.12374 5.13901 7.9221 5.25077C5.97182 6.32657 4.66226 8.05642 4.12183 9.9832C3.58152 11.91 3.8097 14.034 4.93554 15.8969L4.9364 15.8963ZM16.4941 7.70543C15.3438 6.60633 13.7552 5.9268 11.9993 5.9268C10.2441 5.9268 8.65474 6.60629 7.50445 7.70543C6.35421 8.80454 5.64308 10.3226 5.64308 12.0004C5.64308 13.6776 6.35418 15.1963 7.50445 16.2954C8.65469 17.3945 10.2433 18.0741 11.9993 18.0741C13.7544 18.0741 15.3438 17.3946 16.4941 16.2954C17.6443 15.1963 18.3555 13.6783 18.3555 12.0004C18.3555 10.3233 17.6444 8.80459 16.4941 7.70543Z" fill="black"/>
</svg>
