<svg width="24" height="25" viewBox="0 0 24 25" fill="none" xmlns="http://www.w3.org/2000/svg">
<path d="M19.9336 11.3087C20.3055 11.7986 20.5858 12.3328 20.7747 12.9113C20.9636 13.4897 21.061 14.0888 21.0669 14.7086C21.0669 15.4936 20.9193 16.2285 20.6242 16.9132C20.3291 17.5979 19.9247 18.1999 19.4112 18.7193C18.8977 19.2388 18.2986 19.6431 17.6139 19.9323C16.9292 20.2215 16.1914 20.3691 15.4005 20.375C14.6154 20.375 13.8806 20.2274 13.1959 19.9323C12.5112 19.6372 11.9091 19.2329 11.3897 18.7193C10.8703 18.2058 10.466 17.6067 10.1767 16.922C9.8875 16.2373 9.73994 15.4995 9.73404 14.7086H4.06762C3.90825 14.7086 3.76068 14.6791 3.62493 14.62C3.48917 14.561 3.37112 14.4813 3.27078 14.381C3.17043 14.2806 3.0878 14.1596 3.02287 14.018C2.95794 13.8763 2.92843 13.7288 2.93433 13.5753V4.50902C2.93433 4.34965 2.96384 4.20209 3.02287 4.06633C3.08189 3.93057 3.16158 3.81252 3.26192 3.71218C3.36226 3.61184 3.48327 3.5292 3.62493 3.46428C3.76659 3.39935 3.91415 3.36984 4.06762 3.37574H18.8003C18.9597 3.37574 19.1072 3.40525 19.243 3.46428C19.3788 3.5233 19.4968 3.60298 19.5972 3.70333C19.6975 3.80367 19.7801 3.92467 19.8451 4.06633C19.91 4.20799 19.9395 4.35556 19.9336 4.50902V11.3087ZM9.84914 13.5753C9.97899 12.9142 10.2151 12.3063 10.5574 11.7514C10.8998 11.1966 11.3189 10.7185 11.8147 10.3171C12.3105 9.91573 12.8624 9.6029 13.4703 9.3786C14.0783 9.15431 14.7217 9.04216 15.4005 9.04216C16.0143 9.04216 16.6105 9.1366 17.1889 9.32548C17.7674 9.51436 18.3045 9.79768 18.8003 10.1754V4.50902H4.06762V13.5753H9.84914ZM15.4005 19.2417C16.0261 19.2417 16.6134 19.1237 17.1624 18.8876C17.7113 18.6515 18.1894 18.3268 18.5967 17.9136C19.0039 17.5005 19.3286 17.0194 19.5706 16.4705C19.8126 15.9215 19.9336 15.3342 19.9336 14.7086C19.9336 14.0829 19.8155 13.4956 19.5794 12.9467C19.3433 12.3977 19.0187 11.9196 18.6055 11.5124C18.1924 11.1051 17.7113 10.7805 17.1624 10.5384C16.6134 10.2964 16.0261 10.1754 15.4005 10.1754C14.7748 10.1754 14.1875 10.2935 13.6386 10.5296C13.0896 10.7657 12.6115 11.0903 12.2042 11.5035C11.797 11.9167 11.4723 12.3977 11.2303 12.9467C10.9883 13.4956 10.8673 14.0829 10.8673 14.7086C10.8673 15.3342 10.9854 15.9215 11.2215 16.4705C11.4576 17.0194 11.7822 17.4975 12.1954 17.9048C12.6086 18.3121 13.0896 18.6367 13.6386 18.8787C14.1875 19.1207 14.7748 19.2417 15.4005 19.2417ZM15.4005 14.7086H17.667V15.8419H14.2672V11.3087H15.4005V14.7086Z" fill="black"/>
</svg>
