<svg width="24" height="24" viewBox="0 0 24 24" fill="none" xmlns="http://www.w3.org/2000/svg">
<path d="M19.9336 10.9337C20.3055 11.4236 20.5858 11.9578 20.7747 12.5363C20.9636 13.1147 21.061 13.7138 21.0669 14.3336C21.0669 15.1186 20.9193 15.8535 20.6242 16.5382C20.3291 17.2229 19.9247 17.8249 19.4112 18.3443C18.8977 18.8638 18.2986 19.2681 17.6139 19.5573C16.9292 19.8465 16.1914 19.9941 15.4005 20C14.6154 20 13.8806 19.8524 13.1959 19.5573C12.5112 19.2622 11.9091 18.8579 11.3897 18.3443C10.8703 17.8308 10.466 17.2317 10.1767 16.547C9.8875 15.8623 9.73994 15.1245 9.73404 14.3336H4.06762C3.90825 14.3336 3.76068 14.3041 3.62493 14.245C3.48917 14.186 3.37112 14.1063 3.27078 14.006C3.17043 13.9056 3.0878 13.7846 3.02287 13.643C2.95794 13.5013 2.92843 13.3538 2.93433 13.2003V4.13402C2.93433 3.97465 2.96384 3.82709 3.02287 3.69133C3.08189 3.55557 3.16158 3.43752 3.26192 3.33718C3.36226 3.23684 3.48327 3.1542 3.62493 3.08928C3.76659 3.02435 3.91415 2.99484 4.06762 3.00074H18.8003C18.9597 3.00074 19.1072 3.03025 19.243 3.08928C19.3788 3.1483 19.4968 3.22798 19.5972 3.32833C19.6975 3.42867 19.7801 3.54967 19.8451 3.69133C19.91 3.83299 19.9395 3.98056 19.9336 4.13402V10.9337ZM9.84914 13.2003C9.97899 12.5392 10.2151 11.9313 10.5574 11.3764C10.8998 10.8216 11.3189 10.3435 11.8147 9.9421C12.3105 9.54073 12.8624 9.2279 13.4703 9.0036C14.0783 8.77931 14.7217 8.66716 15.4005 8.66716C16.0143 8.66716 16.6105 8.7616 17.1889 8.95048C17.7674 9.13936 18.3045 9.42268 18.8003 9.80044V4.13402H4.06762V13.2003H9.84914ZM15.4005 18.8667C16.0261 18.8667 16.6134 18.7487 17.1624 18.5126C17.7113 18.2765 18.1894 17.9518 18.5967 17.5386C19.004 17.1255 19.3286 16.6444 19.5706 16.0955C19.8126 15.5465 19.9336 14.9592 19.9336 14.3336C19.9336 13.7079 19.8155 13.1206 19.5794 12.5717C19.3433 12.0227 19.0187 11.5446 18.6055 11.1374C18.1924 10.7301 17.7113 10.4055 17.1624 10.1634C16.6134 9.92144 16.0261 9.80044 15.4005 9.80044C14.7748 9.80044 14.1875 9.91849 13.6386 10.1546C13.0896 10.3907 12.6115 10.7153 12.2042 11.1285C11.797 11.5417 11.4723 12.0227 11.2303 12.5717C10.9883 13.1206 10.8673 13.7079 10.8673 14.3336C10.8673 14.9592 10.9854 15.5465 11.2215 16.0955C11.4576 16.6444 11.7822 17.1225 12.1954 17.5298C12.6086 17.9371 13.0896 18.2617 13.6386 18.5037C14.1875 18.7457 14.7748 18.8667 15.4005 18.8667ZM15.4005 14.3336H17.667V15.4669H14.2672V10.9337H15.4005V14.3336Z" fill="#2E2E2E"/>
</svg>
