<svg width="24" height="24" viewBox="0 0 24 24" fill="none" xmlns="http://www.w3.org/2000/svg">
<path d="M12.4773 18.4248C12.3144 18.44 12.1515 18.4445 11.9838 18.4445C10.7904 18.4456 9.62002 18.1161 8.60248 17.4926C7.58493 16.869 6.75996 15.9759 6.21906 14.9121C5.67815 13.8484 5.44244 12.6556 5.53808 11.466C5.63371 10.2765 6.05695 9.13665 6.76085 8.17296C6.78089 8.14553 6.79532 8.11442 6.80333 8.08141C6.81135 8.0484 6.81278 8.01413 6.80755 7.98057C6.80232 7.947 6.79053 7.91479 6.77285 7.88579C6.75517 7.85678 6.73195 7.83154 6.70452 7.8115C6.67709 7.79146 6.64598 7.77703 6.61297 7.76902C6.57995 7.761 6.54569 7.75957 6.51212 7.7648C6.47856 7.77003 6.44635 7.78183 6.41734 7.7995C6.38833 7.81718 6.36309 7.8404 6.34306 7.86783C5.58284 8.90866 5.12574 10.1397 5.02245 11.4244C4.91915 12.7092 5.1737 13.9975 5.75786 15.1464C6.34203 16.2953 7.23298 17.26 8.33193 17.9334C9.43087 18.6069 10.6949 18.9629 11.9838 18.9618C12.1677 18.9618 12.3462 18.9563 12.5248 18.9401C12.5932 18.9338 12.6562 18.9006 12.7001 18.8478C12.7439 18.7951 12.765 18.727 12.7587 18.6587C12.7524 18.5904 12.7193 18.5273 12.6665 18.4835C12.6137 18.4396 12.5457 18.4185 12.4773 18.4248Z" fill="black"/>
<path d="M18.5898 13.274C18.6234 13.2792 18.6576 13.2777 18.6906 13.2696C18.7236 13.2615 18.7547 13.247 18.7821 13.2269C18.8094 13.2067 18.8326 13.1814 18.8501 13.1523C18.8676 13.1232 18.8793 13.0909 18.8843 13.0573C18.9384 12.702 18.9654 12.3431 18.9649 11.9838C18.9653 10.6923 18.6076 9.426 17.9313 8.32572C17.2551 7.22544 16.2869 6.33432 15.1344 5.75145C13.9819 5.16858 12.6904 4.91682 11.4034 5.02416C10.1164 5.1315 8.88435 5.59374 7.84436 6.35947C7.81687 6.37955 7.79361 6.40485 7.77592 6.43394C7.75823 6.46302 7.74646 6.49532 7.74129 6.52896C7.73611 6.56261 7.73763 6.59694 7.74576 6.63C7.75389 6.66306 7.76847 6.69418 7.78866 6.72159C7.80885 6.749 7.83425 6.77215 7.86341 6.78971C7.89257 6.80728 7.92491 6.81891 7.95858 6.82394C7.99225 6.82898 8.02658 6.82731 8.0596 6.81904C8.09262 6.81077 8.12369 6.79606 8.15101 6.77575C9.114 6.06686 10.2547 5.63896 11.4464 5.53965C12.638 5.44034 13.8339 5.67351 14.9009 6.21322C15.968 6.75294 16.8644 7.57805 17.4905 8.59679C18.1167 9.61554 18.448 10.788 18.4476 11.9838C18.4479 12.3171 18.423 12.6499 18.3731 12.9795C18.3679 13.0131 18.3694 13.0473 18.3775 13.0803C18.3857 13.1133 18.4002 13.1444 18.4203 13.1717C18.4405 13.1991 18.4658 13.2222 18.4949 13.2397C18.5239 13.2573 18.5562 13.269 18.5898 13.274Z" fill="black"/>
<path d="M12.4818 17.3892C12.3188 17.4044 12.1559 17.414 11.9882 17.414C10.8743 17.412 9.78805 17.067 8.87715 16.4259C7.96624 15.7848 7.27489 14.8787 6.89711 13.8308C6.51932 12.7829 6.47344 11.6441 6.76569 10.5693C7.05794 9.4944 7.67414 8.53562 8.53051 7.8233C9.38688 7.11098 10.4418 6.6797 11.552 6.58809C12.6621 6.49649 13.7735 6.74901 14.735 7.31132C15.6966 7.87362 16.4616 8.71843 16.9261 9.73086C17.3906 10.7433 17.532 11.8742 17.3311 12.9698C17.3249 13.0032 17.3254 13.0375 17.3325 13.0708C17.3396 13.104 17.3531 13.1355 17.3724 13.1635C17.4113 13.22 17.471 13.2587 17.5385 13.2712C17.6059 13.2836 17.6756 13.2688 17.7321 13.2299C17.7886 13.191 17.8274 13.1313 17.8398 13.0638C18.0624 11.8611 17.9088 10.6189 17.4001 9.50659C16.8914 8.39425 16.0522 7.46571 14.9968 6.84741C13.9414 6.22911 12.7211 5.9511 11.5021 6.05122C10.283 6.15134 9.12441 6.62474 8.18406 7.40695C7.2437 8.18916 6.56726 9.24217 6.24684 10.4226C5.92643 11.6031 5.9776 12.8536 6.39339 14.0039C6.80919 15.1542 7.5694 16.1485 8.57053 16.8512C9.57165 17.554 10.765 17.9311 11.9882 17.9313C12.1721 17.9313 12.3507 17.9207 12.5293 17.9045C12.5976 17.8982 12.6606 17.865 12.7044 17.8123C12.7483 17.7595 12.7694 17.6915 12.7632 17.6232C12.7559 17.5552 12.7225 17.4928 12.6699 17.4491C12.6174 17.4054 12.5499 17.3839 12.4818 17.3892Z" fill="black"/>
<path d="M11.9869 8.625C11.9529 8.62498 11.9193 8.63166 11.8879 8.64465C11.8565 8.65764 11.828 8.67669 11.804 8.70072C11.7799 8.72474 11.7609 8.75326 11.7479 8.78465C11.7349 8.81604 11.7282 8.84968 11.7282 8.88366V11.2592C11.6048 11.3026 11.4943 11.3766 11.4072 11.4743C11.3202 11.572 11.2592 11.6902 11.2302 11.8178C11.2012 11.9454 11.205 12.0783 11.2413 12.204C11.2775 12.3298 11.3451 12.4443 11.4377 12.5368C11.5302 12.6293 11.6447 12.6969 11.7704 12.7332C11.8962 12.7695 12.0291 12.7733 12.1567 12.7442C12.2843 12.7152 12.4025 12.6543 12.5001 12.5672C12.5978 12.4801 12.6718 12.3697 12.7152 12.2462H13.5389C13.6075 12.2462 13.6732 12.219 13.7218 12.1705C13.7703 12.1219 13.7975 12.0562 13.7975 11.9876C13.7975 11.919 13.7703 11.8532 13.7218 11.8047C13.6732 11.7561 13.6075 11.7289 13.5389 11.7289H12.7152C12.6767 11.6207 12.6145 11.5224 12.5333 11.4412C12.452 11.36 12.3538 11.2978 12.2456 11.2592V8.88366C12.2456 8.84968 12.2389 8.81604 12.2259 8.78465C12.2129 8.75326 12.1939 8.72474 12.1698 8.70072C12.1458 8.67669 12.1173 8.65764 12.0859 8.64465C12.0545 8.63166 12.0209 8.62498 11.9869 8.625ZM11.9869 12.2462C11.9357 12.2462 11.8857 12.231 11.8432 12.2026C11.8007 12.1742 11.7675 12.1338 11.7479 12.0865C11.7284 12.0393 11.7232 11.9873 11.7332 11.9371C11.7432 11.8869 11.7678 11.8408 11.804 11.8047C11.8402 11.7685 11.8863 11.7438 11.9364 11.7339C11.9866 11.7239 12.0386 11.729 12.0859 11.7486C12.1332 11.7682 12.1736 11.8013 12.202 11.8438C12.2304 11.8864 12.2456 11.9364 12.2456 11.9876C12.2455 12.0561 12.2182 12.1219 12.1697 12.1704C12.1212 12.2188 12.0555 12.2461 11.9869 12.2462Z" fill="black"/>
<path d="M19.7477 14.3064H18.9717V14.0477C18.9717 13.9791 18.9445 13.9133 18.896 13.8648C18.8475 13.8163 18.7817 13.7891 18.7131 13.7891C18.6445 13.7891 18.5787 13.8163 18.5302 13.8648C18.4817 13.9133 18.4544 13.9791 18.4544 14.0477V14.3064H16.9025V14.0477C16.9025 13.9791 16.8752 13.9133 16.8267 13.8648C16.7782 13.8163 16.7124 13.7891 16.6438 13.7891C16.5752 13.7891 16.5094 13.8163 16.4609 13.8648C16.4124 13.9133 16.3851 13.9791 16.3851 14.0477V14.3064H14.8332V14.0477C14.8332 13.9791 14.8059 13.9133 14.7574 13.8648C14.7089 13.8163 14.6431 13.7891 14.5745 13.7891C14.5059 13.7891 14.4401 13.8163 14.3916 13.8648C14.3431 13.9133 14.3159 13.9791 14.3159 14.0477V14.3064H13.5399C13.5059 14.3064 13.4723 14.313 13.4409 14.326C13.4095 14.339 13.381 14.3581 13.357 14.3821C13.3329 14.4061 13.3139 14.4346 13.3009 14.466C13.2879 14.4974 13.2812 14.5311 13.2813 14.565V19.7382C13.2812 19.7722 13.2879 19.8058 13.3009 19.8372C13.3139 19.8686 13.3329 19.8971 13.357 19.9211C13.381 19.9452 13.4095 19.9642 13.4409 19.9772C13.4723 19.9902 13.5059 19.9969 13.5399 19.9969H19.7477C19.7817 19.9969 19.8153 19.9902 19.8467 19.9772C19.8781 19.9642 19.9066 19.9452 19.9306 19.9211C19.9547 19.8971 19.9737 19.8686 19.9867 19.8372C19.9997 19.8058 20.0064 19.7722 20.0064 19.7382V14.565C20.0064 14.5311 19.9997 14.4974 19.9867 14.466C19.9737 14.4346 19.9547 14.4061 19.9306 14.3821C19.9066 14.3581 19.8781 14.339 19.8467 14.326C19.8153 14.313 19.7817 14.3064 19.7477 14.3064ZM13.7986 14.8237H19.489V15.341H13.7986V14.8237ZM19.489 19.4795H13.7986V15.8583H19.489V19.4795Z" fill="black"/>
<path d="M14.5673 17.9314H18.7058C18.7744 17.9314 18.8402 17.9041 18.8887 17.8556C18.9372 17.8071 18.9644 17.7413 18.9644 17.6727C18.9644 17.6041 18.9372 17.5383 18.8887 17.4898C18.8402 17.4413 18.7744 17.4141 18.7058 17.4141H14.5673C14.4987 17.4141 14.4329 17.4413 14.3844 17.4898C14.3358 17.5383 14.3086 17.6041 14.3086 17.6727C14.3086 17.7413 14.3358 17.8071 14.3844 17.8556C14.4329 17.9041 14.4987 17.9314 14.5673 17.9314Z" fill="black"/>
</svg>
