<svg id="Layer_1" data-name="Layer 1" xmlns="http://www.w3.org/2000/svg" viewBox="0 0 500 500"><defs><style>.cls-1{fill:#f48700;}.cls-2{fill:#fff;}</style></defs><circle class="cls-1" cx="250" cy="250" r="236.29"/><circle cx="186.33" cy="106.76" r="34.26"/><polygon points="160.97 415.54 160.97 341.21 273.91 341.21 273.91 415.54 303.62 415.54 303.62 355.73 280.14 314.9 273.91 314.9 190.84 314.9 160.97 314.9 160.97 192.53 131.41 188.33 131.41 415.54 160.97 415.54"/><path class="cls-2" d="M315,290.84l-27.41,15.79,58.08,101a15.82,15.82,0,1,0,27.42-15.78Zm86.27,28.94-65.84-80.2a15.84,15.84,0,0,0-20.11-3.67l-44.06,25.36-33.06-87.34,51.54-49.19a10.6,10.6,0,0,0,1.2-13.93,10.7,10.7,0,0,0-5.49-3.81L227.21,88.36a44.55,44.55,0,0,1,4,18.4,46.94,46.94,0,0,1-.28,4.92l31.45,10.06L261.05,123c-15.71,15-35.28,24.15-56,30.14L205,165.25l26.64,49L227.72,231l-15.49-7.6-13.66-56-10.92-8.69-1.45.23h0a134.7,134.7,0,0,1-36.87-.13l-20.8-3L151,134.28a44.52,44.52,0,0,1-8.91-20.7L98.62,155.43A11,11,0,0,0,95.11,163a10.56,10.56,0,0,0,9.07,10.72l64.64,9.18,40.9,114.38a26.31,26.31,0,0,0,38.25,14l18.87-11.17a15.87,15.87,0,0,0,1.79-.81L319.52,270l57.33,69.85a15.82,15.82,0,0,0,24.45-20.08Z"/></svg>