<svg id="Layer_1" data-name="Layer 1" xmlns="http://www.w3.org/2000/svg" viewBox="0 0 500 200"><defs><style>.cls-1{fill:#f48700;}.cls-2{fill:#fff;}</style></defs><path d="M222,175.21v-92h12.49V121h47.71V83.21h12.56v92H282.19v-43.1H234.48v43.1Z"/><path d="M314.48,83.21h35.66a78.13,78.13,0,0,1,12.78.75,24.66,24.66,0,0,1,7.33,2.5,21.41,21.41,0,0,1,8.84,8.87,28,28,0,0,1,3,13.36,24.17,24.17,0,0,1-3.18,12.71,21.52,21.52,0,0,1-9.5,8.28q5.37,1.5,7.65,5.06t2.84,12L381,162a24.51,24.51,0,0,0,1.28,7.28,6.22,6.22,0,0,0,2.9,3.4v2.57H370.75q-1.74-2.88-2.43-12.31v-.37l-.75-12q-.63-9.25-3.94-12t-16.55-2.75H326.85v39.41H314.48ZM326.72,94v31.17h21.36q11.57,0,16.33-3.75t4.78-12.49c0-5.45-1.5-9.31-4.49-11.55S356.16,94,348.08,94Z"/><path d="M410.91,96.82v78.39H399.42v-92h17.86l22.8,70.39c.66,2,1.15,3.55,1.47,4.65s.55,2.07.71,2.9c.34-1.54.67-2.91,1-4.12s.69-2.35,1.06-3.43l23.61-70.39h17.93v92H473.74V96.82c-.29,1.34-.62,2.68-1,4s-.77,2.7-1.19,4l-23.67,70.33h-11.8L413,104.88c-.41-1.16-.79-2.41-1.12-3.75S411.2,98.37,410.91,96.82Z"/><path class="cls-1" d="M222.33,70.73V23.8H242v6H230.91v13.5h8.75v6h-8.75V64.82h11.24v5.91Z"/><path class="cls-1" d="M247.13,70.73V23.8h19.29v5.91H255.7V43.39h8.75v6H255.7V70.73Z"/><path class="cls-1" d="M270.88,70.73V23.8h19.29v5.91H279.46V43.39h8.74v6h-8.74V70.73Z"/><path class="cls-1" d="M307.55,71.37a14.75,14.75,0,0,1-7.93-1.86,10.21,10.21,0,0,1-4.23-5.33A23.81,23.81,0,0,1,294.11,56V38.4a23.18,23.18,0,0,1,1.28-8.14,10,10,0,0,1,4.23-5.18,18.59,18.59,0,0,1,16,0,10.17,10.17,0,0,1,4.23,5.18,22.71,22.71,0,0,1,1.3,8.14V56a23,23,0,0,1-1.3,8.14,10.66,10.66,0,0,1-4.23,5.33A14.79,14.79,0,0,1,307.55,71.37Zm0-6.32a4,4,0,0,0,4.52-3.47,17,17,0,0,0,.35-3.54V36.43a16.42,16.42,0,0,0-.35-3.53,4.45,4.45,0,0,0-1.36-2.46,4.68,4.68,0,0,0-3.16-.9,4.59,4.59,0,0,0-3.07.9,4.42,4.42,0,0,0-1.39,2.46,16.42,16.42,0,0,0-.35,3.53V58a18.56,18.56,0,0,0,.32,3.54,4.47,4.47,0,0,0,1.37,2.55A4.59,4.59,0,0,0,307.55,65.05Z"/><path class="cls-1" d="M327.42,70.73V23.8h11.24a24.89,24.89,0,0,1,8,1.13,9.25,9.25,0,0,1,5,3.86,13.82,13.82,0,0,1,1.71,7.41,22.6,22.6,0,0,1-.52,5.1,9.69,9.69,0,0,1-1.77,3.85,7.92,7.92,0,0,1-3.45,2.47l6.55,23.11h-8.57l-5.68-21.49H336V70.73ZM336,43.85h2.66a9.15,9.15,0,0,0,4-.72,4.28,4.28,0,0,0,2.12-2.32,11.25,11.25,0,0,0,.64-4.09,8.9,8.9,0,0,0-1.31-5.3q-1.31-1.76-4.95-1.76H336Z"/><path class="cls-1" d="M364.39,70.73V30.12h-7.48V23.8h23.41v6.32H373V70.73Z"/><path class="cls-1" d="M384.6,70.73V23.8h8.58v41h11.35v5.91Z"/><path class="cls-1" d="M408.76,70.73V23.8h19.7v6H417.34v13.5h8.75v6h-8.75V64.82h11.24v5.91Z"/><path class="cls-1" d="M445.38,71.37a13.88,13.88,0,0,1-7.07-1.65A10.47,10.47,0,0,1,434,64.88a20.94,20.94,0,0,1-1.62-7.82l7.36-1.45a23.37,23.37,0,0,0,.66,4.81,7,7,0,0,0,1.68,3.21,4,4,0,0,0,3,1.13,3.34,3.34,0,0,0,3-1.24,5.38,5.38,0,0,0,.87-3.16,8.5,8.5,0,0,0-1.39-5,21.64,21.64,0,0,0-3.71-3.94l-5.91-5.21a17.62,17.62,0,0,1-4-4.78,13.13,13.13,0,0,1-1.48-6.52q0-5.56,3.24-8.57c2.17-2,5.12-3,8.87-3a13.08,13.08,0,0,1,5.5,1,8.69,8.69,0,0,1,3.51,2.81,12.93,12.93,0,0,1,1.94,4.08,24.83,24.83,0,0,1,.81,4.84L449,37.3a25.51,25.51,0,0,0-.49-3.94,5.53,5.53,0,0,0-1.34-2.72,3.71,3.71,0,0,0-2.81-1,3.54,3.54,0,0,0-2.92,1.24,4.74,4.74,0,0,0-1,3.1,7.07,7.07,0,0,0,1,3.91,15.08,15.08,0,0,0,2.84,3.16l5.85,5.15a24.44,24.44,0,0,1,4.95,5.71,14.58,14.58,0,0,1,2.06,7.91,11.86,11.86,0,0,1-1.48,6,10.54,10.54,0,0,1-4.11,4.08A12.38,12.38,0,0,1,445.38,71.37Z"/><path class="cls-1" d="M473.53,71.37a13.84,13.84,0,0,1-7.06-1.65,10.36,10.36,0,0,1-4.29-4.84,20.55,20.55,0,0,1-1.62-7.82l7.35-1.45a22.67,22.67,0,0,0,.67,4.81,7,7,0,0,0,1.68,3.21,4,4,0,0,0,3,1.13,3.36,3.36,0,0,0,3-1.24,5.38,5.38,0,0,0,.87-3.16,8.58,8.58,0,0,0-1.39-5A22,22,0,0,0,472,51.38l-5.91-5.21a17.85,17.85,0,0,1-4-4.78,13.23,13.23,0,0,1-1.48-6.52q0-5.56,3.25-8.57t8.86-3a13.13,13.13,0,0,1,5.51,1,8.72,8.72,0,0,1,3.5,2.81,12.51,12.51,0,0,1,1.94,4.08,23.41,23.41,0,0,1,.81,4.84l-7.3,1.27a25.51,25.51,0,0,0-.49-3.94,5.53,5.53,0,0,0-1.33-2.72,3.74,3.74,0,0,0-2.81-1,3.56,3.56,0,0,0-2.93,1.24,4.79,4.79,0,0,0-1,3.1,7.15,7.15,0,0,0,1,3.91,15.66,15.66,0,0,0,2.84,3.16l5.85,5.15a24.49,24.49,0,0,1,5,5.71,14.58,14.58,0,0,1,2.05,7.91,12,12,0,0,1-1.47,6,10.63,10.63,0,0,1-4.12,4.08A12.33,12.33,0,0,1,473.53,71.37Z"/><circle class="cls-1" cx="102.73" cy="100" r="88.59"/><circle cx="78.86" cy="46.3" r="12.85"/><polygon points="69.35 162.06 69.35 134.2 111.7 134.2 111.7 162.06 122.84 162.06 122.84 139.64 114.03 124.33 111.7 124.33 80.55 124.33 69.35 124.33 69.35 78.45 58.27 76.88 58.27 162.06 69.35 162.06"/><path class="cls-2" d="M127.11,115.31l-10.27,5.92,21.77,37.86a5.93,5.93,0,0,0,5.15,3,5.93,5.93,0,0,0,5.13-8.88Zm32.35,10.85L134.77,96.09a5.94,5.94,0,0,0-7.54-1.37l-16.51,9.51L98.32,71.48,117.64,53a4,4,0,0,0,.45-5.23A4,4,0,0,0,116,46.38l-21.84-7a16.72,16.72,0,0,1,1.49,6.9,16.08,16.08,0,0,1-.11,1.84l11.8,3.77-.5.47C101,58,93.65,61.44,85.9,63.68l0,4.55,10,18.38-1.48,6.28L88.57,90l-5.12-21-4.1-3.26-.54.08h0A50,50,0,0,1,65,65.82l-7.8-1.1,8.41-8.11a16.59,16.59,0,0,1-3.34-7.76L46,64.54a4.13,4.13,0,0,0-1.32,2.85,4,4,0,0,0,3.4,4l24.23,3.44,15.34,42.88A9.87,9.87,0,0,0,102,123l7.08-4.19c.22-.1.45-.18.67-.3l19.08-11,21.49,26.19a5.93,5.93,0,0,0,9.17-7.53Z"/></svg>