<svg width="52" height="20" viewBox="0 0 52 20" fill="none" xmlns="http://www.w3.org/2000/svg">
<rect x="0.00390625" width="51.815" height="19.654" rx="2.68009" fill="#FDC600"/>
<path fill-rule="evenodd" clip-rule="evenodd" d="M7.26105 12.8164L5.07727 13.9425C4.87433 14.0472 4.62331 13.9706 4.51654 13.7695C4.47403 13.6902 4.45937 13.5994 4.47485 13.5112L4.89396 11.1262L3.12929 9.43727C2.96517 9.28023 2.96164 9.02261 3.12179 8.86146C3.18549 8.79731 3.269 8.75557 3.35936 8.74271L5.80123 8.39662L6.89312 6.22706C6.99459 6.02546 7.24605 5.94261 7.44899 6.04211C7.53091 6.08171 7.59721 6.14673 7.63759 6.22706L8.72948 8.39662L11.1714 8.74271C11.2481 8.75348 11.3202 8.78514 11.3795 8.83408C11.4389 8.88302 11.483 8.94729 11.507 9.0196C11.5309 9.0919 11.5337 9.16934 11.5151 9.24313C11.4964 9.31692 11.457 9.3841 11.4014 9.43705L9.63675 11.126L10.0559 13.511C10.0651 13.5637 10.0637 13.6177 10.0517 13.6698C10.0397 13.722 10.0173 13.7713 9.98576 13.815C9.95427 13.8586 9.91431 13.8958 9.86816 13.9243C9.82201 13.9528 9.77058 13.972 9.71682 13.981C9.62682 13.9962 9.53417 13.9819 9.45344 13.9378L7.26966 12.8117L7.26105 12.8164ZM16.9039 12.8164L14.7197 13.9425C14.5167 14.0472 14.2657 13.9706 14.1589 13.7695C14.1164 13.6902 14.1018 13.5994 14.1173 13.5112L14.5364 11.1262L12.7717 9.43727C12.6076 9.28023 12.604 9.02261 12.7642 8.86146C12.8279 8.79731 12.9114 8.75557 13.0018 8.74271L15.4436 8.39662L16.5355 6.22706C16.637 6.02546 16.8885 5.94261 17.0914 6.04211C17.1733 6.08171 17.2396 6.14673 17.28 6.22706L18.3719 8.39662L20.8138 8.74271C20.8905 8.75348 20.9626 8.78514 21.0219 8.83408C21.0813 8.88302 21.1254 8.94729 21.1494 9.0196C21.1733 9.0919 21.1761 9.16934 21.1575 9.24313C21.1388 9.31692 21.0995 9.3841 21.0438 9.43705L19.2791 11.126L19.6983 13.511C19.7075 13.5637 19.7061 13.6177 19.6941 13.6698C19.6821 13.722 19.6597 13.7713 19.6282 13.815C19.5967 13.8586 19.5567 13.8958 19.5106 13.9243C19.4644 13.9528 19.413 13.972 19.3592 13.981C19.2692 13.9962 19.1766 13.9819 19.0958 13.9378L16.9121 12.8117L16.9039 12.8164ZM26.5483 12.8164L24.3641 13.9425C24.1611 14.0472 23.9101 13.9706 23.8033 13.7695C23.7608 13.6902 23.7462 13.5994 23.7616 13.5112L24.1807 11.1262L22.4161 9.43727C22.3604 9.38433 22.3209 9.31713 22.3022 9.24331C22.2836 9.16949 22.2863 9.092 22.3103 9.01966C22.3343 8.94732 22.3784 8.88301 22.4378 8.83406C22.4972 8.7851 22.5694 8.75345 22.6461 8.74271L25.088 8.39662L26.1799 6.22706C26.2814 6.02546 26.5328 5.94261 26.7358 6.04211C26.8176 6.08185 26.8839 6.14682 26.9244 6.22706L28.0163 8.39662L30.4581 8.74271C30.6853 8.77515 30.842 8.98173 30.8093 9.20409C30.7962 9.2927 30.7536 9.37459 30.6882 9.43705L28.9235 11.126L29.3426 13.511C29.3812 13.7327 29.2295 13.9432 29.0034 13.981C28.9134 13.9962 28.821 13.9819 28.74 13.9378L26.5562 12.8117L26.5483 12.8164ZM36.1911 12.8164L34.0073 13.9425C33.959 13.9674 33.906 13.9827 33.8516 13.9875C33.7972 13.9922 33.7423 13.9864 33.6902 13.9703C33.6381 13.9543 33.5897 13.9282 33.5478 13.8938C33.506 13.8593 33.4715 13.8171 33.4464 13.7695C33.404 13.6903 33.389 13.5995 33.4023 13.5112L33.8214 11.1262L32.0567 9.43727C32.001 9.38433 31.9616 9.31713 31.9429 9.24331C31.9242 9.16949 31.927 9.092 31.9509 9.01966C31.9749 8.94732 32.0191 8.88301 32.0784 8.83406C32.1378 8.7851 32.21 8.75345 32.2868 8.74271L34.7286 8.39662L35.8205 6.22706C35.922 6.02546 36.1735 5.94261 36.3764 6.04211C36.4582 6.08185 36.5245 6.14682 36.565 6.22706L37.6569 8.39662L40.0988 8.74271C40.1528 8.75034 40.2047 8.76833 40.2515 8.79566C40.2984 8.82299 40.3393 8.85911 40.372 8.90197C40.4046 8.94483 40.4283 8.99357 40.4416 9.04541C40.455 9.09726 40.4578 9.15118 40.4499 9.20409C40.4367 9.29061 40.3944 9.37454 40.3286 9.43705L38.5639 11.126L38.9831 13.511C38.9963 13.5859 38.9879 13.663 38.9588 13.7334C38.9297 13.8039 38.881 13.865 38.8182 13.9096C38.7555 13.9543 38.6812 13.9809 38.6039 13.9863C38.5265 13.9917 38.4492 13.9757 38.3806 13.9401L36.1964 12.814L36.1911 12.8164ZM47.1233 8.0462V13.4803L45.8351 12.8162L43.6513 13.9423C43.5827 13.9779 43.5054 13.9939 43.428 13.9886C43.3506 13.9832 43.2763 13.9567 43.2135 13.912C43.1507 13.8673 43.102 13.8062 43.0729 13.7357C43.0437 13.6652 43.0353 13.5881 43.0486 13.5131L43.4678 11.1281L41.7031 9.43922C41.6474 9.38627 41.608 9.31907 41.5893 9.24525C41.5706 9.17143 41.5733 9.09395 41.5973 9.02161C41.6213 8.94926 41.6655 8.88496 41.7248 8.836C41.7842 8.78705 41.8564 8.7554 41.9332 8.74466L44.375 8.39856L45.4669 6.229C45.5684 6.02741 45.8198 5.94456 46.0228 6.04406C46.1047 6.08366 46.171 6.14867 46.2114 6.229L47.1268 8.04598L47.1233 8.0462Z" fill="white"/>
<path d="M43.6091 13.8583L45.8385 12.7089L48.068 13.8583C48.1205 13.8855 48.1797 13.8977 48.2389 13.8936C48.2981 13.8894 48.3549 13.8691 48.4029 13.8349C48.4509 13.8007 48.4882 13.754 48.5105 13.7C48.5329 13.6461 48.5393 13.5871 48.5292 13.5298L48.1035 11.0955L49.907 9.37148C49.957 9.3239 49.9897 9.26117 49.9996 9.19303C50.0248 9.02258 49.9043 8.86424 49.7305 8.8398L47.2379 8.48463L46.1231 6.26964L46.0243 6.31723L46.1231 6.26964C46.0969 6.21744 46.0563 6.17348 46.0059 6.14274C45.9556 6.112 45.8974 6.0957 45.8381 6.0957C45.7787 6.0957 45.7206 6.112 45.6702 6.14274C45.6199 6.17348 45.5793 6.21744 45.5531 6.26964L44.4382 8.48463L41.9456 8.8398C41.8869 8.84811 41.8317 8.87238 41.7863 8.90987C41.741 8.94736 41.7072 8.99657 41.6889 9.05191C41.6705 9.10726 41.6684 9.16653 41.6827 9.22302C41.6969 9.2795 41.7271 9.33093 41.7696 9.37148L41.8464 9.29426L41.7696 9.37148L43.5731 11.0955L43.1474 13.5298C43.1355 13.5973 43.1467 13.6669 43.1794 13.7275C43.1988 13.7637 43.2253 13.7959 43.2574 13.8221C43.2894 13.8483 43.3265 13.868 43.3663 13.8802C43.4062 13.8923 43.4481 13.8967 43.4897 13.8929C43.5313 13.8892 43.5717 13.8774 43.6086 13.8583H43.6091Z" fill="white"/>
</svg>
